{
	"asset":{
		"generator":"Khronos glTF Blender I/O v5.1.20",
		"version":"2.0"
	},
	"scene":0,
	"scenes":[
		{
			"name":"Scene",
			"nodes":[
				1
			]
		}
	],
	"nodes":[
		{
			"mesh":0,
			"name":"DeadTree_3"
		},
		{
			"children":[
				0
			],
			"name":"dead_tree_3"
		}
	],
	"materials":[
		{
			"doubleSided":true,
			"name":"Bark_DeadTree",
			"normalTexture":{
				"index":0
			},
			"pbrMetallicRoughness":{
				"baseColorTexture":{
					"index":1
				},
				"metallicFactor":0
			}
		}
	],
	"meshes":[
		{
			"name":"tree.019",
			"primitives":[
				{
					"attributes":{
						"POSITION":0,
						"NORMAL":1,
						"TEXCOORD_0":2,
						"COLOR_0":3,
						"COLOR_1":4
					},
					"indices":5,
					"material":0
				}
			]
		}
	],
	"textures":[
		{
			"sampler":0,
			"source":0
		},
		{
			"sampler":0,
			"source":1
		}
	],
	"images":[
		{
			"mimeType":"image/png",
			"name":"Bark_DeadTree_Normal.png",
			"uri":"../textures/Bark_DeadTree_Normal.png"
		},
		{
			"mimeType":"image/png",
			"name":"Bark_DeadTree.png",
			"uri":"../textures/Bark_DeadTree.png"
		}
	],
	"accessors":[
		{
			"bufferView":0,
			"componentType":5126,
			"count":4065,
			"max":[
				2.540004014968872,
				12.944830894470215,
				3.043358564376831
			],
			"min":[
				-3.847569704055786,
				-0.3355545997619629,
				-3.3867006301879883
			],
			"type":"VEC3"
		},
		{
			"bufferView":1,
			"componentType":5126,
			"count":4065,
			"type":"VEC3"
		},
		{
			"bufferView":2,
			"componentType":5126,
			"count":4065,
			"type":"VEC2"
		},
		{
			"bufferView":3,
			"componentType":5121,
			"count":4065,
			"normalized":true,
			"type":"VEC4"
		},
		{
			"bufferView":4,
			"componentType":5123,
			"count":4065,
			"normalized":true,
			"type":"VEC4"
		},
		{
			"bufferView":5,
			"componentType":5123,
			"count":17406,
			"type":"SCALAR"
		}
	],
	"bufferViews":[
		{
			"buffer":0,
			"byteLength":48780,
			"byteOffset":0,
			"target":34962
		},
		{
			"buffer":0,
			"byteLength":48780,
			"byteOffset":48780,
			"target":34962
		},
		{
			"buffer":0,
			"byteLength":32520,
			"byteOffset":97560,
			"target":34962
		},
		{
			"buffer":0,
			"byteLength":16260,
			"byteOffset":130080,
			"target":34962
		},
		{
			"buffer":0,
			"byteLength":32520,
			"byteOffset":146340,
			"target":34962
		},
		{
			"buffer":0,
			"byteLength":34812,
			"byteOffset":178860,
			"target":34963
		}
	],
	"samplers":[
		{
			"magFilter":9729,
			"minFilter":9987
		}
	],
	"buffers":[
		{
			"byteLength":213672,
			"uri":"dead_tree_3.bin"
		}
	]
}
