{
	"asset":{
		"generator":"Khronos glTF Blender I/O v5.1.20",
		"version":"2.0"
	},
	"scene":0,
	"scenes":[
		{
			"name":"Scene",
			"nodes":[
				1
			]
		}
	],
	"nodes":[
		{
			"mesh":0,
			"name":"Pine_1"
		},
		{
			"children":[
				0
			],
			"name":"pine_1"
		}
	],
	"materials":[
		{
			"doubleSided":true,
			"name":"Bark_NormalTree",
			"normalTexture":{
				"index":0
			},
			"pbrMetallicRoughness":{
				"baseColorTexture":{
					"index":1
				},
				"metallicFactor":0
			}
		},
		{
			"alphaMode":"BLEND",
			"doubleSided":true,
			"name":"Leaves_Pine",
			"pbrMetallicRoughness":{
				"baseColorTexture":{
					"index":2
				},
				"metallicFactor":0
			}
		}
	],
	"meshes":[
		{
			"name":"tree.028",
			"primitives":[
				{
					"attributes":{
						"POSITION":0,
						"NORMAL":1,
						"TEXCOORD_0":2,
						"COLOR_0":3,
						"COLOR_1":4,
						"COLOR_2":5
					},
					"indices":6,
					"material":0
				},
				{
					"attributes":{
						"POSITION":7,
						"NORMAL":8,
						"TEXCOORD_0":9,
						"COLOR_0":10,
						"COLOR_1":11,
						"COLOR_2":12
					},
					"indices":13,
					"material":1
				}
			]
		}
	],
	"textures":[
		{
			"sampler":0,
			"source":0
		},
		{
			"sampler":0,
			"source":1
		},
		{
			"sampler":0,
			"source":2
		}
	],
	"images":[
		{
			"mimeType":"image/png",
			"name":"Bark_NormalTree_Normal.png",
			"uri":"../textures/Bark_NormalTree_Normal.png"
		},
		{
			"mimeType":"image/png",
			"name":"Bark_NormalTree.png",
			"uri":"../textures/Bark_NormalTree.png"
		},
		{
			"mimeType":"image/png",
			"name":"Leaf_Pine_C.png.001",
			"uri":"../textures/Leaf_Pine_C.png"
		}
	],
	"accessors":[
		{
			"bufferView":0,
			"componentType":5126,
			"count":2162,
			"max":[
				1.3389160633087158,
				6.822727203369141,
				1.3303884267807007
			],
			"min":[
				-1.0975136756896973,
				-0.23508860170841217,
				-1.8778250217437744
			],
			"type":"VEC3"
		},
		{
			"bufferView":1,
			"componentType":5126,
			"count":2162,
			"type":"VEC3"
		},
		{
			"bufferView":2,
			"componentType":5126,
			"count":2162,
			"type":"VEC2"
		},
		{
			"bufferView":3,
			"componentType":5121,
			"count":2162,
			"normalized":true,
			"type":"VEC4"
		},
		{
			"bufferView":4,
			"componentType":5123,
			"count":2162,
			"normalized":true,
			"type":"VEC4"
		},
		{
			"bufferView":5,
			"componentType":5123,
			"count":2162,
			"normalized":true,
			"type":"VEC4"
		},
		{
			"bufferView":6,
			"componentType":5123,
			"count":9531,
			"type":"SCALAR"
		},
		{
			"bufferView":7,
			"componentType":5126,
			"count":846,
			"max":[
				2.4958789348602295,
				7.081829071044922,
				2.0614705085754395
			],
			"min":[
				-2.448819160461426,
				2.158754587173462,
				-2.4769327640533447
			],
			"type":"VEC3"
		},
		{
			"bufferView":8,
			"componentType":5126,
			"count":846,
			"type":"VEC3"
		},
		{
			"bufferView":9,
			"componentType":5126,
			"count":846,
			"type":"VEC2"
		},
		{
			"bufferView":10,
			"componentType":5121,
			"count":846,
			"normalized":true,
			"type":"VEC4"
		},
		{
			"bufferView":11,
			"componentType":5123,
			"count":846,
			"normalized":true,
			"type":"VEC4"
		},
		{
			"bufferView":12,
			"componentType":5123,
			"count":846,
			"normalized":true,
			"type":"VEC4"
		},
		{
			"bufferView":13,
			"componentType":5123,
			"count":2310,
			"type":"SCALAR"
		}
	],
	"bufferViews":[
		{
			"buffer":0,
			"byteLength":25944,
			"byteOffset":0,
			"target":34962
		},
		{
			"buffer":0,
			"byteLength":25944,
			"byteOffset":25944,
			"target":34962
		},
		{
			"buffer":0,
			"byteLength":17296,
			"byteOffset":51888,
			"target":34962
		},
		{
			"buffer":0,
			"byteLength":8648,
			"byteOffset":69184,
			"target":34962
		},
		{
			"buffer":0,
			"byteLength":17296,
			"byteOffset":77832,
			"target":34962
		},
		{
			"buffer":0,
			"byteLength":17296,
			"byteOffset":95128,
			"target":34962
		},
		{
			"buffer":0,
			"byteLength":19062,
			"byteOffset":112424,
			"target":34963
		},
		{
			"buffer":0,
			"byteLength":10152,
			"byteOffset":131488,
			"target":34962
		},
		{
			"buffer":0,
			"byteLength":10152,
			"byteOffset":141640,
			"target":34962
		},
		{
			"buffer":0,
			"byteLength":6768,
			"byteOffset":151792,
			"target":34962
		},
		{
			"buffer":0,
			"byteLength":3384,
			"byteOffset":158560,
			"target":34962
		},
		{
			"buffer":0,
			"byteLength":6768,
			"byteOffset":161944,
			"target":34962
		},
		{
			"buffer":0,
			"byteLength":6768,
			"byteOffset":168712,
			"target":34962
		},
		{
			"buffer":0,
			"byteLength":4620,
			"byteOffset":175480,
			"target":34963
		}
	],
	"samplers":[
		{
			"magFilter":9729,
			"minFilter":9987
		}
	],
	"buffers":[
		{
			"byteLength":180100,
			"uri":"pine_1.bin"
		}
	]
}
