{
	"asset":{
		"generator":"Khronos glTF Blender I/O v5.1.20",
		"version":"2.0"
	},
	"scene":0,
	"scenes":[
		{
			"name":"Scene",
			"nodes":[
				1
			]
		}
	],
	"nodes":[
		{
			"mesh":0,
			"name":"RockPath_Round_Wide"
		},
		{
			"children":[
				0
			],
			"name":"rock_path_round_wide"
		}
	],
	"materials":[
		{
			"doubleSided":true,
			"name":"PathRocks",
			"pbrMetallicRoughness":{
				"baseColorTexture":{
					"index":0
				},
				"metallicFactor":0
			}
		}
	],
	"meshes":[
		{
			"name":"Cube.017_Retopology.028",
			"primitives":[
				{
					"attributes":{
						"POSITION":0,
						"NORMAL":1,
						"TEXCOORD_0":2
					},
					"indices":3,
					"material":0
				}
			]
		}
	],
	"textures":[
		{
			"sampler":0,
			"source":0
		}
	],
	"images":[
		{
			"mimeType":"image/png",
			"name":"PathRocks_Diffuse.png",
			"uri":"../textures/PathRocks_Diffuse.png"
		}
	],
	"accessors":[
		{
			"bufferView":0,
			"componentType":5126,
			"count":6684,
			"max":[
				1.0626386404037476,
				0.10394921153783798,
				1.00310480594635
			],
			"min":[
				-1.0479755401611328,
				-0.008882611989974976,
				-1.125931739807129
			],
			"type":"VEC3"
		},
		{
			"bufferView":1,
			"componentType":5126,
			"count":6684,
			"type":"VEC3"
		},
		{
			"bufferView":2,
			"componentType":5126,
			"count":6684,
			"type":"VEC2"
		},
		{
			"bufferView":3,
			"componentType":5123,
			"count":10500,
			"type":"SCALAR"
		}
	],
	"bufferViews":[
		{
			"buffer":0,
			"byteLength":80208,
			"byteOffset":0,
			"target":34962
		},
		{
			"buffer":0,
			"byteLength":80208,
			"byteOffset":80208,
			"target":34962
		},
		{
			"buffer":0,
			"byteLength":53472,
			"byteOffset":160416,
			"target":34962
		},
		{
			"buffer":0,
			"byteLength":21000,
			"byteOffset":213888,
			"target":34963
		}
	],
	"samplers":[
		{
			"magFilter":9729,
			"minFilter":9987
		}
	],
	"buffers":[
		{
			"byteLength":234888,
			"uri":"rock_path_round_wide.bin"
		}
	]
}
