{
	"asset":{
		"generator":"Khronos glTF Blender I/O v5.1.20",
		"version":"2.0"
	},
	"scene":0,
	"scenes":[
		{
			"name":"Scene",
			"nodes":[
				1
			]
		}
	],
	"nodes":[
		{
			"mesh":0,
			"name":"Axe_Bronze",
			"rotation":[
				0,
				0,
				-0.7071068286895752,
				0.7071068286895752
			],
			"scale":[
				0.8469018936157227,
				0.8469018936157227,
				0.8469018936157227
			]
		},
		{
			"children":[
				0
			],
			"name":"axe_bronze"
		}
	],
	"materials":[
		{
			"doubleSided":true,
			"name":"MI_Trim_Props_Vertex",
			"normalTexture":{
				"index":0
			},
			"pbrMetallicRoughness":{
				"baseColorTexture":{
					"index":1
				},
				"metallicFactor":0,
				"roughnessFactor":0.8727272748947144
			}
		}
	],
	"meshes":[
		{
			"name":"Cylinder.004",
			"primitives":[
				{
					"attributes":{
						"POSITION":0,
						"NORMAL":1,
						"TEXCOORD_0":2,
						"COLOR_0":3,
						"COLOR_1":4
					},
					"indices":5,
					"material":0
				}
			]
		}
	],
	"textures":[
		{
			"sampler":0,
			"source":0
		},
		{
			"sampler":0,
			"source":1
		}
	],
	"images":[
		{
			"mimeType":"image/png",
			"name":"T_Trim_Props_Normal.png",
			"uri":"../textures/T_Trim_Props_Normal.png"
		},
		{
			"mimeType":"image/png",
			"name":"T_Trim_Props_BaseColor.png",
			"uri":"../textures/T_Trim_Props_BaseColor.png"
		}
	],
	"accessors":[
		{
			"bufferView":0,
			"componentType":5126,
			"count":655,
			"max":[
				0.4494159519672394,
				0.11641929298639297,
				0.02716672793030739
			],
			"min":[
				-0.5269971489906311,
				-0.23127518594264984,
				-0.027166731655597687
			],
			"type":"VEC3"
		},
		{
			"bufferView":1,
			"componentType":5126,
			"count":655,
			"type":"VEC3"
		},
		{
			"bufferView":2,
			"componentType":5126,
			"count":655,
			"type":"VEC2"
		},
		{
			"bufferView":3,
			"componentType":5121,
			"count":655,
			"normalized":true,
			"type":"VEC4"
		},
		{
			"bufferView":4,
			"componentType":5123,
			"count":655,
			"normalized":true,
			"type":"VEC4"
		},
		{
			"bufferView":5,
			"componentType":5123,
			"count":2478,
			"type":"SCALAR"
		}
	],
	"bufferViews":[
		{
			"buffer":0,
			"byteLength":7860,
			"byteOffset":0,
			"target":34962
		},
		{
			"buffer":0,
			"byteLength":7860,
			"byteOffset":7860,
			"target":34962
		},
		{
			"buffer":0,
			"byteLength":5240,
			"byteOffset":15720,
			"target":34962
		},
		{
			"buffer":0,
			"byteLength":2620,
			"byteOffset":20960,
			"target":34962
		},
		{
			"buffer":0,
			"byteLength":5240,
			"byteOffset":23580,
			"target":34962
		},
		{
			"buffer":0,
			"byteLength":4956,
			"byteOffset":28820,
			"target":34963
		}
	],
	"samplers":[
		{
			"magFilter":9729,
			"minFilter":9987
		}
	],
	"buffers":[
		{
			"byteLength":33776,
			"uri":"axe_bronze.bin"
		}
	]
}
