{
	"asset":{
		"generator":"Khronos glTF Blender I/O v5.1.20",
		"version":"2.0"
	},
	"scene":0,
	"scenes":[
		{
			"name":"Scene",
			"nodes":[
				1
			]
		}
	],
	"nodes":[
		{
			"mesh":0,
			"name":"Bag"
		},
		{
			"children":[
				0
			],
			"name":"bag"
		}
	],
	"materials":[
		{
			"doubleSided":true,
			"name":"MI_Trim_Cloth",
			"normalTexture":{
				"index":0
			},
			"pbrMetallicRoughness":{
				"baseColorTexture":{
					"index":1
				},
				"metallicFactor":0,
				"roughnessFactor":0.5
			}
		},
		{
			"doubleSided":true,
			"name":"MI_Trim_Furniture",
			"normalTexture":{
				"index":2
			},
			"pbrMetallicRoughness":{
				"baseColorTexture":{
					"index":3
				},
				"metallicFactor":0,
				"roughnessFactor":0.8727272748947144
			}
		}
	],
	"meshes":[
		{
			"name":"Cube_Retopology.002",
			"primitives":[
				{
					"attributes":{
						"POSITION":0,
						"NORMAL":1,
						"TEXCOORD_0":2,
						"COLOR_0":3,
						"COLOR_1":4
					},
					"indices":5,
					"material":0
				},
				{
					"attributes":{
						"POSITION":6,
						"NORMAL":7,
						"TEXCOORD_0":8,
						"COLOR_0":9,
						"COLOR_1":10
					},
					"indices":11,
					"material":1
				}
			]
		}
	],
	"textures":[
		{
			"sampler":0,
			"source":0
		},
		{
			"sampler":0,
			"source":1
		},
		{
			"sampler":0,
			"source":2
		},
		{
			"sampler":0,
			"source":3
		}
	],
	"images":[
		{
			"mimeType":"image/png",
			"name":"T_Trim_Cloth_Normal.png",
			"uri":"../textures/T_Trim_Cloth_Normal.png"
		},
		{
			"mimeType":"image/png",
			"name":"T_Trim_Cloth_BaseColor.png",
			"uri":"../textures/T_Trim_Cloth_BaseColor.png"
		},
		{
			"mimeType":"image/png",
			"name":"T_Trim_Furniture_Normal.png",
			"uri":"../textures/T_Trim_Furniture_Normal.png"
		},
		{
			"mimeType":"image/png",
			"name":"T_Trim_Furniture_BaseColor.png",
			"uri":"../textures/T_Trim_Furniture_BaseColor.png"
		}
	],
	"accessors":[
		{
			"bufferView":0,
			"componentType":5126,
			"count":361,
			"max":[
				0.3254036009311676,
				0.8015695214271545,
				0.3004903793334961
			],
			"min":[
				-0.32977303862571716,
				0.002416962292045355,
				-0.2439030408859253
			],
			"type":"VEC3"
		},
		{
			"bufferView":1,
			"componentType":5126,
			"count":361,
			"type":"VEC3"
		},
		{
			"bufferView":2,
			"componentType":5126,
			"count":361,
			"type":"VEC2"
		},
		{
			"bufferView":3,
			"componentType":5121,
			"count":361,
			"normalized":true,
			"type":"VEC4"
		},
		{
			"bufferView":4,
			"componentType":5123,
			"count":361,
			"normalized":true,
			"type":"VEC4"
		},
		{
			"bufferView":5,
			"componentType":5123,
			"count":1710,
			"type":"SCALAR"
		},
		{
			"bufferView":6,
			"componentType":5126,
			"count":190,
			"max":[
				0.07282350212335587,
				0.6684817671775818,
				0.09829475730657578
			],
			"min":[
				-0.09135845303535461,
				0.5999924540519714,
				-0.05993887037038803
			],
			"type":"VEC3"
		},
		{
			"bufferView":7,
			"componentType":5126,
			"count":190,
			"type":"VEC3"
		},
		{
			"bufferView":8,
			"componentType":5126,
			"count":190,
			"type":"VEC2"
		},
		{
			"bufferView":9,
			"componentType":5121,
			"count":190,
			"normalized":true,
			"type":"VEC4"
		},
		{
			"bufferView":10,
			"componentType":5123,
			"count":190,
			"normalized":true,
			"type":"VEC4"
		},
		{
			"bufferView":11,
			"componentType":5123,
			"count":864,
			"type":"SCALAR"
		}
	],
	"bufferViews":[
		{
			"buffer":0,
			"byteLength":4332,
			"byteOffset":0,
			"target":34962
		},
		{
			"buffer":0,
			"byteLength":4332,
			"byteOffset":4332,
			"target":34962
		},
		{
			"buffer":0,
			"byteLength":2888,
			"byteOffset":8664,
			"target":34962
		},
		{
			"buffer":0,
			"byteLength":1444,
			"byteOffset":11552,
			"target":34962
		},
		{
			"buffer":0,
			"byteLength":2888,
			"byteOffset":12996,
			"target":34962
		},
		{
			"buffer":0,
			"byteLength":3420,
			"byteOffset":15884,
			"target":34963
		},
		{
			"buffer":0,
			"byteLength":2280,
			"byteOffset":19304,
			"target":34962
		},
		{
			"buffer":0,
			"byteLength":2280,
			"byteOffset":21584,
			"target":34962
		},
		{
			"buffer":0,
			"byteLength":1520,
			"byteOffset":23864,
			"target":34962
		},
		{
			"buffer":0,
			"byteLength":760,
			"byteOffset":25384,
			"target":34962
		},
		{
			"buffer":0,
			"byteLength":1520,
			"byteOffset":26144,
			"target":34962
		},
		{
			"buffer":0,
			"byteLength":1728,
			"byteOffset":27664,
			"target":34963
		}
	],
	"samplers":[
		{
			"magFilter":9729,
			"minFilter":9987
		}
	],
	"buffers":[
		{
			"byteLength":29392,
			"uri":"bag.bin"
		}
	]
}
