{
	"asset":{
		"generator":"Khronos glTF Blender I/O v5.1.20",
		"version":"2.0"
	},
	"scene":0,
	"scenes":[
		{
			"name":"Scene",
			"nodes":[
				1
			]
		}
	],
	"nodes":[
		{
			"mesh":0,
			"name":"Banner_2"
		},
		{
			"children":[
				0
			],
			"name":"banner_2"
		}
	],
	"materials":[
		{
			"doubleSided":true,
			"name":"MI_Trim_Furniture",
			"normalTexture":{
				"index":0
			},
			"pbrMetallicRoughness":{
				"baseColorTexture":{
					"index":1
				},
				"metallicFactor":0,
				"roughnessFactor":0.8727272748947144
			}
		},
		{
			"doubleSided":true,
			"name":"MI_Trim_Metal",
			"normalTexture":{
				"index":2
			},
			"pbrMetallicRoughness":{
				"baseColorTexture":{
					"index":3
				},
				"metallicFactor":0,
				"roughnessFactor":0.8727272748947144
			}
		},
		{
			"doubleSided":true,
			"name":"MI_Banner",
			"normalTexture":{
				"index":4
			},
			"pbrMetallicRoughness":{
				"baseColorTexture":{
					"index":5
				},
				"metallicFactor":0,
				"roughnessFactor":0.5
			}
		}
	],
	"meshes":[
		{
			"name":"Cube.236",
			"primitives":[
				{
					"attributes":{
						"POSITION":0,
						"NORMAL":1,
						"TEXCOORD_0":2,
						"TEXCOORD_1":3,
						"COLOR_0":4,
						"COLOR_1":5
					},
					"indices":6,
					"material":0
				},
				{
					"attributes":{
						"POSITION":7,
						"NORMAL":8,
						"TEXCOORD_0":9,
						"TEXCOORD_1":10,
						"COLOR_0":11,
						"COLOR_1":12
					},
					"indices":13,
					"material":1
				},
				{
					"attributes":{
						"POSITION":14,
						"NORMAL":15,
						"TEXCOORD_0":16,
						"TEXCOORD_1":17,
						"COLOR_0":18,
						"COLOR_1":19
					},
					"indices":20,
					"material":2
				}
			]
		}
	],
	"textures":[
		{
			"sampler":0,
			"source":0
		},
		{
			"sampler":0,
			"source":1
		},
		{
			"sampler":0,
			"source":2
		},
		{
			"sampler":0,
			"source":3
		},
		{
			"sampler":0,
			"source":4
		},
		{
			"sampler":0,
			"source":5
		}
	],
	"images":[
		{
			"mimeType":"image/png",
			"name":"T_Trim_Furniture_Normal.png",
			"uri":"../textures/T_Trim_Furniture_Normal.png"
		},
		{
			"mimeType":"image/png",
			"name":"T_Trim_Furniture_BaseColor.png",
			"uri":"../textures/T_Trim_Furniture_BaseColor.png"
		},
		{
			"mimeType":"image/png",
			"name":"T_Trim_Metal_Normal.png",
			"uri":"../textures/T_Trim_Metal_Normal.png"
		},
		{
			"mimeType":"image/png",
			"name":"T_Trim_Metal_BaseColor.png",
			"uri":"../textures/T_Trim_Metal_BaseColor.png"
		},
		{
			"mimeType":"image/png",
			"name":"T_Trim_Cloth_Normal.png",
			"uri":"../textures/T_Trim_Cloth_Normal.png"
		},
		{
			"mimeType":"image/png",
			"name":"T_Trim_Cloth_BaseColor.png",
			"uri":"../textures/T_Trim_Cloth_BaseColor.png"
		}
	],
	"accessors":[
		{
			"bufferView":0,
			"componentType":5126,
			"count":164,
			"max":[
				1.6123000383377075,
				0.8106507658958435,
				0.07623777538537979
			],
			"min":[
				-0.0008076705853454769,
				-0.8036257028579712,
				-0.07623784244060516
			],
			"type":"VEC3"
		},
		{
			"bufferView":1,
			"componentType":5126,
			"count":164,
			"type":"VEC3"
		},
		{
			"bufferView":2,
			"componentType":5126,
			"count":164,
			"type":"VEC2"
		},
		{
			"bufferView":3,
			"componentType":5126,
			"count":164,
			"type":"VEC2"
		},
		{
			"bufferView":4,
			"componentType":5121,
			"count":164,
			"normalized":true,
			"type":"VEC4"
		},
		{
			"bufferView":5,
			"componentType":5123,
			"count":164,
			"normalized":true,
			"type":"VEC4"
		},
		{
			"bufferView":6,
			"componentType":5123,
			"count":432,
			"type":"SCALAR"
		},
		{
			"bufferView":7,
			"componentType":5126,
			"count":144,
			"max":[
				1.3999640941619873,
				0.8435074090957642,
				0.097610704600811
			],
			"min":[
				0.11459258943796158,
				-0.47926658391952515,
				-0.09295948594808578
			],
			"type":"VEC3"
		},
		{
			"bufferView":8,
			"componentType":5126,
			"count":144,
			"type":"VEC3"
		},
		{
			"bufferView":9,
			"componentType":5126,
			"count":144,
			"type":"VEC2"
		},
		{
			"bufferView":10,
			"componentType":5126,
			"count":144,
			"type":"VEC2"
		},
		{
			"bufferView":11,
			"componentType":5121,
			"count":144,
			"normalized":true,
			"type":"VEC4"
		},
		{
			"bufferView":12,
			"componentType":5123,
			"count":144,
			"normalized":true,
			"type":"VEC4"
		},
		{
			"bufferView":13,
			"componentType":5123,
			"count":726,
			"type":"SCALAR"
		},
		{
			"bufferView":14,
			"componentType":5126,
			"count":40,
			"max":[
				1.429229736328125,
				0.6976960897445679,
				-4.9907313837138645e-09
			],
			"min":[
				0.6190621256828308,
				-1.233574390411377,
				-9.471112605297094e-08
			],
			"type":"VEC3"
		},
		{
			"bufferView":15,
			"componentType":5126,
			"count":40,
			"type":"VEC3"
		},
		{
			"bufferView":16,
			"componentType":5126,
			"count":40,
			"type":"VEC2"
		},
		{
			"bufferView":17,
			"componentType":5126,
			"count":40,
			"type":"VEC2"
		},
		{
			"bufferView":18,
			"componentType":5121,
			"count":40,
			"normalized":true,
			"type":"VEC4"
		},
		{
			"bufferView":19,
			"componentType":5123,
			"count":40,
			"normalized":true,
			"type":"VEC4"
		},
		{
			"bufferView":20,
			"componentType":5123,
			"count":129,
			"type":"SCALAR"
		}
	],
	"bufferViews":[
		{
			"buffer":0,
			"byteLength":1968,
			"byteOffset":0,
			"target":34962
		},
		{
			"buffer":0,
			"byteLength":1968,
			"byteOffset":1968,
			"target":34962
		},
		{
			"buffer":0,
			"byteLength":1312,
			"byteOffset":3936,
			"target":34962
		},
		{
			"buffer":0,
			"byteLength":1312,
			"byteOffset":5248,
			"target":34962
		},
		{
			"buffer":0,
			"byteLength":656,
			"byteOffset":6560,
			"target":34962
		},
		{
			"buffer":0,
			"byteLength":1312,
			"byteOffset":7216,
			"target":34962
		},
		{
			"buffer":0,
			"byteLength":864,
			"byteOffset":8528,
			"target":34963
		},
		{
			"buffer":0,
			"byteLength":1728,
			"byteOffset":9392,
			"target":34962
		},
		{
			"buffer":0,
			"byteLength":1728,
			"byteOffset":11120,
			"target":34962
		},
		{
			"buffer":0,
			"byteLength":1152,
			"byteOffset":12848,
			"target":34962
		},
		{
			"buffer":0,
			"byteLength":1152,
			"byteOffset":14000,
			"target":34962
		},
		{
			"buffer":0,
			"byteLength":576,
			"byteOffset":15152,
			"target":34962
		},
		{
			"buffer":0,
			"byteLength":1152,
			"byteOffset":15728,
			"target":34962
		},
		{
			"buffer":0,
			"byteLength":1452,
			"byteOffset":16880,
			"target":34963
		},
		{
			"buffer":0,
			"byteLength":480,
			"byteOffset":18332,
			"target":34962
		},
		{
			"buffer":0,
			"byteLength":480,
			"byteOffset":18812,
			"target":34962
		},
		{
			"buffer":0,
			"byteLength":320,
			"byteOffset":19292,
			"target":34962
		},
		{
			"buffer":0,
			"byteLength":320,
			"byteOffset":19612,
			"target":34962
		},
		{
			"buffer":0,
			"byteLength":160,
			"byteOffset":19932,
			"target":34962
		},
		{
			"buffer":0,
			"byteLength":320,
			"byteOffset":20092,
			"target":34962
		},
		{
			"buffer":0,
			"byteLength":258,
			"byteOffset":20412,
			"target":34963
		}
	],
	"samplers":[
		{
			"magFilter":9729,
			"minFilter":9987
		}
	],
	"buffers":[
		{
			"byteLength":20672,
			"uri":"banner_2.bin"
		}
	]
}
