{
	"asset":{
		"generator":"Khronos glTF Blender I/O v5.1.20",
		"version":"2.0"
	},
	"scene":0,
	"scenes":[
		{
			"name":"Scene",
			"nodes":[
				1
			]
		}
	],
	"nodes":[
		{
			"mesh":0,
			"name":"Barrel_Apples"
		},
		{
			"children":[
				0
			],
			"name":"barrel_apples"
		}
	],
	"materials":[
		{
			"doubleSided":true,
			"name":"MI_Trim_Furniture",
			"normalTexture":{
				"index":0
			},
			"pbrMetallicRoughness":{
				"baseColorTexture":{
					"index":1
				},
				"metallicFactor":0,
				"roughnessFactor":0.8727272748947144
			}
		},
		{
			"doubleSided":true,
			"name":"MI_Trim_Metal",
			"normalTexture":{
				"index":2
			},
			"pbrMetallicRoughness":{
				"baseColorTexture":{
					"index":3
				},
				"metallicFactor":0,
				"roughnessFactor":0.8727272748947144
			}
		},
		{
			"doubleSided":true,
			"name":"MI_Trim_Props_Vertex",
			"normalTexture":{
				"index":4
			},
			"pbrMetallicRoughness":{
				"baseColorTexture":{
					"index":5
				},
				"metallicFactor":0,
				"roughnessFactor":0.8727272748947144
			}
		}
	],
	"meshes":[
		{
			"name":"Cylinder.054",
			"primitives":[
				{
					"attributes":{
						"POSITION":0,
						"NORMAL":1,
						"TEXCOORD_0":2,
						"COLOR_0":3,
						"COLOR_1":4
					},
					"indices":5,
					"material":0
				},
				{
					"attributes":{
						"POSITION":6,
						"NORMAL":7,
						"TEXCOORD_0":8,
						"COLOR_0":9,
						"COLOR_1":10
					},
					"indices":11,
					"material":1
				},
				{
					"attributes":{
						"POSITION":12,
						"NORMAL":13,
						"TEXCOORD_0":14,
						"COLOR_0":15,
						"COLOR_1":16
					},
					"indices":17,
					"material":2
				}
			]
		}
	],
	"textures":[
		{
			"sampler":0,
			"source":0
		},
		{
			"sampler":0,
			"source":1
		},
		{
			"sampler":0,
			"source":2
		},
		{
			"sampler":0,
			"source":3
		},
		{
			"sampler":0,
			"source":4
		},
		{
			"sampler":0,
			"source":5
		}
	],
	"images":[
		{
			"mimeType":"image/png",
			"name":"T_Trim_Furniture_Normal.png",
			"uri":"../textures/T_Trim_Furniture_Normal.png"
		},
		{
			"mimeType":"image/png",
			"name":"T_Trim_Furniture_BaseColor.png",
			"uri":"../textures/T_Trim_Furniture_BaseColor.png"
		},
		{
			"mimeType":"image/png",
			"name":"T_Trim_Metal_Normal.png",
			"uri":"../textures/T_Trim_Metal_Normal.png"
		},
		{
			"mimeType":"image/png",
			"name":"T_Trim_Metal_BaseColor.png",
			"uri":"../textures/T_Trim_Metal_BaseColor.png"
		},
		{
			"mimeType":"image/png",
			"name":"T_Trim_Props_Normal.png",
			"uri":"../textures/T_Trim_Props_Normal.png"
		},
		{
			"mimeType":"image/png",
			"name":"T_Trim_Props_BaseColor.png",
			"uri":"../textures/T_Trim_Props_BaseColor.png"
		}
	],
	"accessors":[
		{
			"bufferView":0,
			"componentType":5126,
			"count":473,
			"max":[
				0.3480248749256134,
				0.9013950824737549,
				0.3480248749256134
			],
			"min":[
				-0.3480248749256134,
				0.003436744213104248,
				-0.3480248749256134
			],
			"type":"VEC3"
		},
		{
			"bufferView":1,
			"componentType":5126,
			"count":473,
			"type":"VEC3"
		},
		{
			"bufferView":2,
			"componentType":5126,
			"count":473,
			"type":"VEC2"
		},
		{
			"bufferView":3,
			"componentType":5121,
			"count":473,
			"normalized":true,
			"type":"VEC4"
		},
		{
			"bufferView":4,
			"componentType":5123,
			"count":473,
			"normalized":true,
			"type":"VEC4"
		},
		{
			"bufferView":5,
			"componentType":5123,
			"count":1176,
			"type":"SCALAR"
		},
		{
			"bufferView":6,
			"componentType":5126,
			"count":726,
			"max":[
				0.3490154445171356,
				0.7329425811767578,
				0.3490155041217804
			],
			"min":[
				-0.34901556372642517,
				0.14952683448791504,
				-0.349015474319458
			],
			"type":"VEC3"
		},
		{
			"bufferView":7,
			"componentType":5126,
			"count":726,
			"type":"VEC3"
		},
		{
			"bufferView":8,
			"componentType":5126,
			"count":726,
			"type":"VEC2"
		},
		{
			"bufferView":9,
			"componentType":5121,
			"count":726,
			"normalized":true,
			"type":"VEC4"
		},
		{
			"bufferView":10,
			"componentType":5123,
			"count":726,
			"normalized":true,
			"type":"VEC4"
		},
		{
			"bufferView":11,
			"componentType":5123,
			"count":1296,
			"type":"SCALAR"
		},
		{
			"bufferView":12,
			"componentType":5126,
			"count":1044,
			"max":[
				0.21615931391716003,
				0.8800793886184692,
				0.22505947947502136
			],
			"min":[
				-0.2171129733324051,
				0.6426482200622559,
				-0.21824856102466583
			],
			"type":"VEC3"
		},
		{
			"bufferView":13,
			"componentType":5126,
			"count":1044,
			"type":"VEC3"
		},
		{
			"bufferView":14,
			"componentType":5126,
			"count":1044,
			"type":"VEC2"
		},
		{
			"bufferView":15,
			"componentType":5121,
			"count":1044,
			"normalized":true,
			"type":"VEC4"
		},
		{
			"bufferView":16,
			"componentType":5123,
			"count":1044,
			"normalized":true,
			"type":"VEC4"
		},
		{
			"bufferView":17,
			"componentType":5123,
			"count":4968,
			"type":"SCALAR"
		}
	],
	"bufferViews":[
		{
			"buffer":0,
			"byteLength":5676,
			"byteOffset":0,
			"target":34962
		},
		{
			"buffer":0,
			"byteLength":5676,
			"byteOffset":5676,
			"target":34962
		},
		{
			"buffer":0,
			"byteLength":3784,
			"byteOffset":11352,
			"target":34962
		},
		{
			"buffer":0,
			"byteLength":1892,
			"byteOffset":15136,
			"target":34962
		},
		{
			"buffer":0,
			"byteLength":3784,
			"byteOffset":17028,
			"target":34962
		},
		{
			"buffer":0,
			"byteLength":2352,
			"byteOffset":20812,
			"target":34963
		},
		{
			"buffer":0,
			"byteLength":8712,
			"byteOffset":23164,
			"target":34962
		},
		{
			"buffer":0,
			"byteLength":8712,
			"byteOffset":31876,
			"target":34962
		},
		{
			"buffer":0,
			"byteLength":5808,
			"byteOffset":40588,
			"target":34962
		},
		{
			"buffer":0,
			"byteLength":2904,
			"byteOffset":46396,
			"target":34962
		},
		{
			"buffer":0,
			"byteLength":5808,
			"byteOffset":49300,
			"target":34962
		},
		{
			"buffer":0,
			"byteLength":2592,
			"byteOffset":55108,
			"target":34963
		},
		{
			"buffer":0,
			"byteLength":12528,
			"byteOffset":57700,
			"target":34962
		},
		{
			"buffer":0,
			"byteLength":12528,
			"byteOffset":70228,
			"target":34962
		},
		{
			"buffer":0,
			"byteLength":8352,
			"byteOffset":82756,
			"target":34962
		},
		{
			"buffer":0,
			"byteLength":4176,
			"byteOffset":91108,
			"target":34962
		},
		{
			"buffer":0,
			"byteLength":8352,
			"byteOffset":95284,
			"target":34962
		},
		{
			"buffer":0,
			"byteLength":9936,
			"byteOffset":103636,
			"target":34963
		}
	],
	"samplers":[
		{
			"magFilter":9729,
			"minFilter":9987
		}
	],
	"buffers":[
		{
			"byteLength":113572,
			"uri":"barrel_apples.bin"
		}
	]
}
