{
	"asset":{
		"generator":"Khronos glTF Blender I/O v5.1.20",
		"version":"2.0"
	},
	"scene":0,
	"scenes":[
		{
			"name":"Scene",
			"nodes":[
				1
			]
		}
	],
	"nodes":[
		{
			"mesh":0,
			"name":"Barrel_Holder"
		},
		{
			"children":[
				0
			],
			"name":"barrel_holder"
		}
	],
	"materials":[
		{
			"doubleSided":true,
			"name":"MI_Trim_Furniture",
			"normalTexture":{
				"index":0
			},
			"pbrMetallicRoughness":{
				"baseColorTexture":{
					"index":1
				},
				"metallicFactor":0,
				"roughnessFactor":0.8727272748947144
			}
		},
		{
			"doubleSided":true,
			"name":"MI_Trim_Metal",
			"normalTexture":{
				"index":2
			},
			"pbrMetallicRoughness":{
				"baseColorTexture":{
					"index":3
				},
				"metallicFactor":0,
				"roughnessFactor":0.8727272748947144
			}
		}
	],
	"meshes":[
		{
			"name":"Cube.045",
			"primitives":[
				{
					"attributes":{
						"POSITION":0,
						"NORMAL":1,
						"TEXCOORD_0":2,
						"COLOR_0":3,
						"COLOR_1":4
					},
					"indices":5,
					"material":0
				},
				{
					"attributes":{
						"POSITION":6,
						"NORMAL":7,
						"TEXCOORD_0":8,
						"COLOR_0":9,
						"COLOR_1":10
					},
					"indices":11,
					"material":1
				}
			]
		}
	],
	"textures":[
		{
			"sampler":0,
			"source":0
		},
		{
			"sampler":0,
			"source":1
		},
		{
			"sampler":0,
			"source":2
		},
		{
			"sampler":0,
			"source":3
		}
	],
	"images":[
		{
			"mimeType":"image/png",
			"name":"T_Trim_Furniture_Normal.png",
			"uri":"../textures/T_Trim_Furniture_Normal.png"
		},
		{
			"mimeType":"image/png",
			"name":"T_Trim_Furniture_BaseColor.png",
			"uri":"../textures/T_Trim_Furniture_BaseColor.png"
		},
		{
			"mimeType":"image/png",
			"name":"T_Trim_Metal_Normal.png",
			"uri":"../textures/T_Trim_Metal_Normal.png"
		},
		{
			"mimeType":"image/png",
			"name":"T_Trim_Metal_BaseColor.png",
			"uri":"../textures/T_Trim_Metal_BaseColor.png"
		}
	],
	"accessors":[
		{
			"bufferView":0,
			"componentType":5126,
			"count":1790,
			"max":[
				0.6776637434959412,
				1.2503478527069092,
				0.35821568965911865
			],
			"min":[
				-0.6776637434959412,
				-0.006288634147495031,
				-0.35199832916259766
			],
			"type":"VEC3"
		},
		{
			"bufferView":1,
			"componentType":5126,
			"count":1790,
			"type":"VEC3"
		},
		{
			"bufferView":2,
			"componentType":5126,
			"count":1790,
			"type":"VEC2"
		},
		{
			"bufferView":3,
			"componentType":5121,
			"count":1790,
			"normalized":true,
			"type":"VEC4"
		},
		{
			"bufferView":4,
			"componentType":5123,
			"count":1790,
			"normalized":true,
			"type":"VEC4"
		},
		{
			"bufferView":5,
			"componentType":5123,
			"count":4032,
			"type":"SCALAR"
		},
		{
			"bufferView":6,
			"componentType":5126,
			"count":1854,
			"max":[
				0.679623007774353,
				1.2511107921600342,
				0.3889680802822113
			],
			"min":[
				-0.679623007774353,
				0.7135266661643982,
				-0.23948796093463898
			],
			"type":"VEC3"
		},
		{
			"bufferView":7,
			"componentType":5126,
			"count":1854,
			"type":"VEC3"
		},
		{
			"bufferView":8,
			"componentType":5126,
			"count":1854,
			"type":"VEC2"
		},
		{
			"bufferView":9,
			"componentType":5121,
			"count":1854,
			"normalized":true,
			"type":"VEC4"
		},
		{
			"bufferView":10,
			"componentType":5123,
			"count":1854,
			"normalized":true,
			"type":"VEC4"
		},
		{
			"bufferView":11,
			"componentType":5123,
			"count":3996,
			"type":"SCALAR"
		}
	],
	"bufferViews":[
		{
			"buffer":0,
			"byteLength":21480,
			"byteOffset":0,
			"target":34962
		},
		{
			"buffer":0,
			"byteLength":21480,
			"byteOffset":21480,
			"target":34962
		},
		{
			"buffer":0,
			"byteLength":14320,
			"byteOffset":42960,
			"target":34962
		},
		{
			"buffer":0,
			"byteLength":7160,
			"byteOffset":57280,
			"target":34962
		},
		{
			"buffer":0,
			"byteLength":14320,
			"byteOffset":64440,
			"target":34962
		},
		{
			"buffer":0,
			"byteLength":8064,
			"byteOffset":78760,
			"target":34963
		},
		{
			"buffer":0,
			"byteLength":22248,
			"byteOffset":86824,
			"target":34962
		},
		{
			"buffer":0,
			"byteLength":22248,
			"byteOffset":109072,
			"target":34962
		},
		{
			"buffer":0,
			"byteLength":14832,
			"byteOffset":131320,
			"target":34962
		},
		{
			"buffer":0,
			"byteLength":7416,
			"byteOffset":146152,
			"target":34962
		},
		{
			"buffer":0,
			"byteLength":14832,
			"byteOffset":153568,
			"target":34962
		},
		{
			"buffer":0,
			"byteLength":7992,
			"byteOffset":168400,
			"target":34963
		}
	],
	"samplers":[
		{
			"magFilter":9729,
			"minFilter":9987
		}
	],
	"buffers":[
		{
			"byteLength":176392,
			"uri":"barrel_holder.bin"
		}
	]
}
