{
	"asset":{
		"generator":"Khronos glTF Blender I/O v5.1.20",
		"version":"2.0"
	},
	"scene":0,
	"scenes":[
		{
			"name":"Scene",
			"nodes":[
				1
			]
		}
	],
	"nodes":[
		{
			"mesh":0,
			"name":"Bed_Twin1"
		},
		{
			"children":[
				0
			],
			"name":"bed_twin_1"
		}
	],
	"materials":[
		{
			"doubleSided":true,
			"name":"MI_Trim_Furniture",
			"normalTexture":{
				"index":0
			},
			"pbrMetallicRoughness":{
				"baseColorTexture":{
					"index":1
				},
				"metallicFactor":0,
				"roughnessFactor":0.8727272748947144
			}
		},
		{
			"doubleSided":true,
			"name":"MI_Trim_Metal",
			"normalTexture":{
				"index":2
			},
			"pbrMetallicRoughness":{
				"baseColorTexture":{
					"index":3
				},
				"metallicFactor":0,
				"roughnessFactor":0.8727272748947144
			}
		},
		{
			"doubleSided":true,
			"name":"MI_Trim_Cloth",
			"normalTexture":{
				"index":4
			},
			"pbrMetallicRoughness":{
				"baseColorTexture":{
					"index":5
				},
				"metallicFactor":0,
				"roughnessFactor":0.5
			}
		}
	],
	"meshes":[
		{
			"name":"Cube.188",
			"primitives":[
				{
					"attributes":{
						"POSITION":0,
						"NORMAL":1,
						"TEXCOORD_0":2,
						"COLOR_0":3,
						"COLOR_1":4,
						"COLOR_2":5
					},
					"indices":6,
					"material":0
				},
				{
					"attributes":{
						"POSITION":7,
						"NORMAL":8,
						"TEXCOORD_0":9,
						"COLOR_0":10,
						"COLOR_1":11,
						"COLOR_2":12
					},
					"indices":13,
					"material":1
				},
				{
					"attributes":{
						"POSITION":14,
						"NORMAL":15,
						"TEXCOORD_0":16,
						"COLOR_0":17,
						"COLOR_1":18,
						"COLOR_2":19
					},
					"indices":20,
					"material":2
				}
			]
		}
	],
	"textures":[
		{
			"sampler":0,
			"source":0
		},
		{
			"sampler":0,
			"source":1
		},
		{
			"sampler":0,
			"source":2
		},
		{
			"sampler":0,
			"source":3
		},
		{
			"sampler":0,
			"source":4
		},
		{
			"sampler":0,
			"source":5
		}
	],
	"images":[
		{
			"mimeType":"image/png",
			"name":"T_Trim_Furniture_Normal.png",
			"uri":"../textures/T_Trim_Furniture_Normal.png"
		},
		{
			"mimeType":"image/png",
			"name":"T_Trim_Furniture_BaseColor.png",
			"uri":"../textures/T_Trim_Furniture_BaseColor.png"
		},
		{
			"mimeType":"image/png",
			"name":"T_Trim_Metal_Normal.png",
			"uri":"../textures/T_Trim_Metal_Normal.png"
		},
		{
			"mimeType":"image/png",
			"name":"T_Trim_Metal_BaseColor.png",
			"uri":"../textures/T_Trim_Metal_BaseColor.png"
		},
		{
			"mimeType":"image/png",
			"name":"T_Trim_Cloth_Normal.png",
			"uri":"../textures/T_Trim_Cloth_Normal.png"
		},
		{
			"mimeType":"image/png",
			"name":"T_Trim_Cloth_BaseColor.png",
			"uri":"../textures/T_Trim_Cloth_BaseColor.png"
		}
	],
	"accessors":[
		{
			"bufferView":0,
			"componentType":5126,
			"count":1232,
			"max":[
				0.9378617405891418,
				0.8055568933486938,
				1.205949068069458
			],
			"min":[
				-0.9378617405891418,
				0.0004533232713583857,
				-1.205949068069458
			],
			"type":"VEC3"
		},
		{
			"bufferView":1,
			"componentType":5126,
			"count":1232,
			"type":"VEC3"
		},
		{
			"bufferView":2,
			"componentType":5126,
			"count":1232,
			"type":"VEC2"
		},
		{
			"bufferView":3,
			"componentType":5121,
			"count":1232,
			"normalized":true,
			"type":"VEC4"
		},
		{
			"bufferView":4,
			"componentType":5123,
			"count":1232,
			"normalized":true,
			"type":"VEC4"
		},
		{
			"bufferView":5,
			"componentType":5123,
			"count":1232,
			"normalized":true,
			"type":"VEC4"
		},
		{
			"bufferView":6,
			"componentType":5123,
			"count":2988,
			"type":"SCALAR"
		},
		{
			"bufferView":7,
			"componentType":5126,
			"count":160,
			"max":[
				0.7206220030784607,
				0.7600604295730591,
				1.138973593711853
			],
			"min":[
				-0.7275890111923218,
				0.16273373365402222,
				-1.1464409828186035
			],
			"type":"VEC3"
		},
		{
			"bufferView":8,
			"componentType":5126,
			"count":160,
			"type":"VEC3"
		},
		{
			"bufferView":9,
			"componentType":5126,
			"count":160,
			"type":"VEC2"
		},
		{
			"bufferView":10,
			"componentType":5121,
			"count":160,
			"normalized":true,
			"type":"VEC4"
		},
		{
			"bufferView":11,
			"componentType":5123,
			"count":160,
			"normalized":true,
			"type":"VEC4"
		},
		{
			"bufferView":12,
			"componentType":5123,
			"count":160,
			"normalized":true,
			"type":"VEC4"
		},
		{
			"bufferView":13,
			"componentType":5123,
			"count":528,
			"type":"SCALAR"
		},
		{
			"bufferView":14,
			"componentType":5126,
			"count":302,
			"max":[
				0.6707859039306641,
				0.6944201588630676,
				1.0489273071289062
			],
			"min":[
				-0.6707857847213745,
				0.27071884274482727,
				-1.0911182165145874
			],
			"type":"VEC3"
		},
		{
			"bufferView":15,
			"componentType":5126,
			"count":302,
			"type":"VEC3"
		},
		{
			"bufferView":16,
			"componentType":5126,
			"count":302,
			"type":"VEC2"
		},
		{
			"bufferView":17,
			"componentType":5121,
			"count":302,
			"normalized":true,
			"type":"VEC4"
		},
		{
			"bufferView":18,
			"componentType":5123,
			"count":302,
			"normalized":true,
			"type":"VEC4"
		},
		{
			"bufferView":19,
			"componentType":5123,
			"count":302,
			"normalized":true,
			"type":"VEC4"
		},
		{
			"bufferView":20,
			"componentType":5123,
			"count":1284,
			"type":"SCALAR"
		}
	],
	"bufferViews":[
		{
			"buffer":0,
			"byteLength":14784,
			"byteOffset":0,
			"target":34962
		},
		{
			"buffer":0,
			"byteLength":14784,
			"byteOffset":14784,
			"target":34962
		},
		{
			"buffer":0,
			"byteLength":9856,
			"byteOffset":29568,
			"target":34962
		},
		{
			"buffer":0,
			"byteLength":4928,
			"byteOffset":39424,
			"target":34962
		},
		{
			"buffer":0,
			"byteLength":9856,
			"byteOffset":44352,
			"target":34962
		},
		{
			"buffer":0,
			"byteLength":9856,
			"byteOffset":54208,
			"target":34962
		},
		{
			"buffer":0,
			"byteLength":5976,
			"byteOffset":64064,
			"target":34963
		},
		{
			"buffer":0,
			"byteLength":1920,
			"byteOffset":70040,
			"target":34962
		},
		{
			"buffer":0,
			"byteLength":1920,
			"byteOffset":71960,
			"target":34962
		},
		{
			"buffer":0,
			"byteLength":1280,
			"byteOffset":73880,
			"target":34962
		},
		{
			"buffer":0,
			"byteLength":640,
			"byteOffset":75160,
			"target":34962
		},
		{
			"buffer":0,
			"byteLength":1280,
			"byteOffset":75800,
			"target":34962
		},
		{
			"buffer":0,
			"byteLength":1280,
			"byteOffset":77080,
			"target":34962
		},
		{
			"buffer":0,
			"byteLength":1056,
			"byteOffset":78360,
			"target":34963
		},
		{
			"buffer":0,
			"byteLength":3624,
			"byteOffset":79416,
			"target":34962
		},
		{
			"buffer":0,
			"byteLength":3624,
			"byteOffset":83040,
			"target":34962
		},
		{
			"buffer":0,
			"byteLength":2416,
			"byteOffset":86664,
			"target":34962
		},
		{
			"buffer":0,
			"byteLength":1208,
			"byteOffset":89080,
			"target":34962
		},
		{
			"buffer":0,
			"byteLength":2416,
			"byteOffset":90288,
			"target":34962
		},
		{
			"buffer":0,
			"byteLength":2416,
			"byteOffset":92704,
			"target":34962
		},
		{
			"buffer":0,
			"byteLength":2568,
			"byteOffset":95120,
			"target":34963
		}
	],
	"samplers":[
		{
			"magFilter":9729,
			"minFilter":9987
		}
	],
	"buffers":[
		{
			"byteLength":97688,
			"uri":"bed_twin_1.bin"
		}
	]
}
