{
	"asset":{
		"generator":"Khronos glTF Blender I/O v5.1.20",
		"version":"2.0"
	},
	"scene":0,
	"scenes":[
		{
			"name":"Scene",
			"nodes":[
				1
			]
		}
	],
	"nodes":[
		{
			"mesh":0,
			"name":"Bench"
		},
		{
			"children":[
				0
			],
			"name":"bench"
		}
	],
	"materials":[
		{
			"doubleSided":true,
			"name":"MI_Trim_Furniture",
			"normalTexture":{
				"index":0
			},
			"pbrMetallicRoughness":{
				"baseColorTexture":{
					"index":1
				},
				"metallicFactor":0,
				"roughnessFactor":0.8727272748947144
			}
		},
		{
			"doubleSided":true,
			"name":"MI_Trim_Metal",
			"normalTexture":{
				"index":2
			},
			"pbrMetallicRoughness":{
				"baseColorTexture":{
					"index":3
				},
				"metallicFactor":0,
				"roughnessFactor":0.8727272748947144
			}
		}
	],
	"meshes":[
		{
			"name":"Cube.011",
			"primitives":[
				{
					"attributes":{
						"POSITION":0,
						"NORMAL":1,
						"TEXCOORD_0":2,
						"COLOR_0":3,
						"COLOR_1":4
					},
					"indices":5,
					"material":0
				},
				{
					"attributes":{
						"POSITION":6,
						"NORMAL":7,
						"TEXCOORD_0":8,
						"COLOR_0":9,
						"COLOR_1":10
					},
					"indices":11,
					"material":1
				}
			]
		}
	],
	"textures":[
		{
			"sampler":0,
			"source":0
		},
		{
			"sampler":0,
			"source":1
		},
		{
			"sampler":0,
			"source":2
		},
		{
			"sampler":0,
			"source":3
		}
	],
	"images":[
		{
			"mimeType":"image/png",
			"name":"T_Trim_Furniture_Normal.png",
			"uri":"../textures/T_Trim_Furniture_Normal.png"
		},
		{
			"mimeType":"image/png",
			"name":"T_Trim_Furniture_BaseColor.png",
			"uri":"../textures/T_Trim_Furniture_BaseColor.png"
		},
		{
			"mimeType":"image/png",
			"name":"T_Trim_Metal_Normal.png",
			"uri":"../textures/T_Trim_Metal_Normal.png"
		},
		{
			"mimeType":"image/png",
			"name":"T_Trim_Metal_BaseColor.png",
			"uri":"../textures/T_Trim_Metal_BaseColor.png"
		}
	],
	"accessors":[
		{
			"bufferView":0,
			"componentType":5126,
			"count":326,
			"max":[
				1.3883408308029175,
				0.525951623916626,
				0.2721467912197113
			],
			"min":[
				-1.3883408308029175,
				-0.007262172643095255,
				-0.2621202766895294
			],
			"type":"VEC3"
		},
		{
			"bufferView":1,
			"componentType":5126,
			"count":326,
			"type":"VEC3"
		},
		{
			"bufferView":2,
			"componentType":5126,
			"count":326,
			"type":"VEC2"
		},
		{
			"bufferView":3,
			"componentType":5121,
			"count":326,
			"normalized":true,
			"type":"VEC4"
		},
		{
			"bufferView":4,
			"componentType":5123,
			"count":326,
			"normalized":true,
			"type":"VEC4"
		},
		{
			"bufferView":5,
			"componentType":5123,
			"count":756,
			"type":"SCALAR"
		},
		{
			"bufferView":6,
			"componentType":5126,
			"count":96,
			"max":[
				0.919512927532196,
				0.5064800381660461,
				0.1749059408903122
			],
			"min":[
				-0.919512927532196,
				0.47778594493865967,
				-0.17728674411773682
			],
			"type":"VEC3"
		},
		{
			"bufferView":7,
			"componentType":5126,
			"count":96,
			"type":"VEC3"
		},
		{
			"bufferView":8,
			"componentType":5126,
			"count":96,
			"type":"VEC2"
		},
		{
			"bufferView":9,
			"componentType":5121,
			"count":96,
			"normalized":true,
			"type":"VEC4"
		},
		{
			"bufferView":10,
			"componentType":5123,
			"count":96,
			"normalized":true,
			"type":"VEC4"
		},
		{
			"bufferView":11,
			"componentType":5123,
			"count":456,
			"type":"SCALAR"
		}
	],
	"bufferViews":[
		{
			"buffer":0,
			"byteLength":3912,
			"byteOffset":0,
			"target":34962
		},
		{
			"buffer":0,
			"byteLength":3912,
			"byteOffset":3912,
			"target":34962
		},
		{
			"buffer":0,
			"byteLength":2608,
			"byteOffset":7824,
			"target":34962
		},
		{
			"buffer":0,
			"byteLength":1304,
			"byteOffset":10432,
			"target":34962
		},
		{
			"buffer":0,
			"byteLength":2608,
			"byteOffset":11736,
			"target":34962
		},
		{
			"buffer":0,
			"byteLength":1512,
			"byteOffset":14344,
			"target":34963
		},
		{
			"buffer":0,
			"byteLength":1152,
			"byteOffset":15856,
			"target":34962
		},
		{
			"buffer":0,
			"byteLength":1152,
			"byteOffset":17008,
			"target":34962
		},
		{
			"buffer":0,
			"byteLength":768,
			"byteOffset":18160,
			"target":34962
		},
		{
			"buffer":0,
			"byteLength":384,
			"byteOffset":18928,
			"target":34962
		},
		{
			"buffer":0,
			"byteLength":768,
			"byteOffset":19312,
			"target":34962
		},
		{
			"buffer":0,
			"byteLength":912,
			"byteOffset":20080,
			"target":34963
		}
	],
	"samplers":[
		{
			"magFilter":9729,
			"minFilter":9987
		}
	],
	"buffers":[
		{
			"byteLength":20992,
			"uri":"bench.bin"
		}
	]
}
