{
	"asset":{
		"generator":"Khronos glTF Blender I/O v5.1.20",
		"version":"2.0"
	},
	"scene":0,
	"scenes":[
		{
			"name":"Scene",
			"nodes":[
				1
			]
		}
	],
	"nodes":[
		{
			"mesh":0,
			"name":"Bookcase_2"
		},
		{
			"children":[
				0
			],
			"name":"bookcase_2"
		}
	],
	"materials":[
		{
			"doubleSided":true,
			"name":"MI_Trim_Furniture",
			"normalTexture":{
				"index":0
			},
			"pbrMetallicRoughness":{
				"baseColorTexture":{
					"index":1
				},
				"metallicFactor":0,
				"roughnessFactor":0.8727272748947144
			}
		},
		{
			"doubleSided":true,
			"name":"MI_Trim_Metal",
			"normalTexture":{
				"index":2
			},
			"pbrMetallicRoughness":{
				"baseColorTexture":{
					"index":3
				},
				"metallicFactor":0,
				"roughnessFactor":0.8727272748947144
			}
		}
	],
	"meshes":[
		{
			"name":"Cube.168",
			"primitives":[
				{
					"attributes":{
						"POSITION":0,
						"NORMAL":1,
						"TEXCOORD_0":2,
						"COLOR_0":3,
						"COLOR_1":4
					},
					"indices":5,
					"material":0
				},
				{
					"attributes":{
						"POSITION":6,
						"NORMAL":7,
						"TEXCOORD_0":8,
						"COLOR_0":9,
						"COLOR_1":10
					},
					"indices":11,
					"material":1
				}
			]
		}
	],
	"textures":[
		{
			"sampler":0,
			"source":0
		},
		{
			"sampler":0,
			"source":1
		},
		{
			"sampler":0,
			"source":2
		},
		{
			"sampler":0,
			"source":3
		}
	],
	"images":[
		{
			"mimeType":"image/png",
			"name":"T_Trim_Furniture_Normal.png",
			"uri":"../textures/T_Trim_Furniture_Normal.png"
		},
		{
			"mimeType":"image/png",
			"name":"T_Trim_Furniture_BaseColor.png",
			"uri":"../textures/T_Trim_Furniture_BaseColor.png"
		},
		{
			"mimeType":"image/png",
			"name":"T_Trim_Metal_Normal.png",
			"uri":"../textures/T_Trim_Metal_Normal.png"
		},
		{
			"mimeType":"image/png",
			"name":"T_Trim_Metal_BaseColor.png",
			"uri":"../textures/T_Trim_Metal_BaseColor.png"
		}
	],
	"accessors":[
		{
			"bufferView":0,
			"componentType":5126,
			"count":712,
			"max":[
				0.7306193113327026,
				2.516263008117676,
				0.2082521617412567
			],
			"min":[
				-0.7306193113327026,
				-0.017383012920618057,
				-0.20637671649456024
			],
			"type":"VEC3"
		},
		{
			"bufferView":1,
			"componentType":5126,
			"count":712,
			"type":"VEC3"
		},
		{
			"bufferView":2,
			"componentType":5126,
			"count":712,
			"type":"VEC2"
		},
		{
			"bufferView":3,
			"componentType":5121,
			"count":712,
			"normalized":true,
			"type":"VEC4"
		},
		{
			"bufferView":4,
			"componentType":5123,
			"count":712,
			"normalized":true,
			"type":"VEC4"
		},
		{
			"bufferView":5,
			"componentType":5123,
			"count":1428,
			"type":"SCALAR"
		},
		{
			"bufferView":6,
			"componentType":5126,
			"count":1290,
			"max":[
				0.7018479704856873,
				2.5274698734283447,
				0.2144896239042282
			],
			"min":[
				-0.7018479704856873,
				0.5072457790374756,
				-0.21449044346809387
			],
			"type":"VEC3"
		},
		{
			"bufferView":7,
			"componentType":5126,
			"count":1290,
			"type":"VEC3"
		},
		{
			"bufferView":8,
			"componentType":5126,
			"count":1290,
			"type":"VEC2"
		},
		{
			"bufferView":9,
			"componentType":5121,
			"count":1290,
			"normalized":true,
			"type":"VEC4"
		},
		{
			"bufferView":10,
			"componentType":5123,
			"count":1290,
			"normalized":true,
			"type":"VEC4"
		},
		{
			"bufferView":11,
			"componentType":5123,
			"count":5016,
			"type":"SCALAR"
		}
	],
	"bufferViews":[
		{
			"buffer":0,
			"byteLength":8544,
			"byteOffset":0,
			"target":34962
		},
		{
			"buffer":0,
			"byteLength":8544,
			"byteOffset":8544,
			"target":34962
		},
		{
			"buffer":0,
			"byteLength":5696,
			"byteOffset":17088,
			"target":34962
		},
		{
			"buffer":0,
			"byteLength":2848,
			"byteOffset":22784,
			"target":34962
		},
		{
			"buffer":0,
			"byteLength":5696,
			"byteOffset":25632,
			"target":34962
		},
		{
			"buffer":0,
			"byteLength":2856,
			"byteOffset":31328,
			"target":34963
		},
		{
			"buffer":0,
			"byteLength":15480,
			"byteOffset":34184,
			"target":34962
		},
		{
			"buffer":0,
			"byteLength":15480,
			"byteOffset":49664,
			"target":34962
		},
		{
			"buffer":0,
			"byteLength":10320,
			"byteOffset":65144,
			"target":34962
		},
		{
			"buffer":0,
			"byteLength":5160,
			"byteOffset":75464,
			"target":34962
		},
		{
			"buffer":0,
			"byteLength":10320,
			"byteOffset":80624,
			"target":34962
		},
		{
			"buffer":0,
			"byteLength":10032,
			"byteOffset":90944,
			"target":34963
		}
	],
	"samplers":[
		{
			"magFilter":9729,
			"minFilter":9987
		}
	],
	"buffers":[
		{
			"byteLength":100976,
			"uri":"bookcase_2.bin"
		}
	]
}
