{
	"asset":{
		"generator":"Khronos glTF Blender I/O v5.1.20",
		"version":"2.0"
	},
	"scene":0,
	"scenes":[
		{
			"name":"Scene",
			"nodes":[
				1
			]
		}
	],
	"nodes":[
		{
			"mesh":0,
			"name":"Cabinet"
		},
		{
			"children":[
				0
			],
			"name":"cabinet"
		}
	],
	"materials":[
		{
			"doubleSided":true,
			"name":"MI_Trim_Furniture",
			"normalTexture":{
				"index":0
			},
			"pbrMetallicRoughness":{
				"baseColorTexture":{
					"index":1
				},
				"metallicFactor":0,
				"roughnessFactor":0.8727272748947144
			}
		},
		{
			"doubleSided":true,
			"name":"MI_Trim_Metal",
			"normalTexture":{
				"index":2
			},
			"pbrMetallicRoughness":{
				"baseColorTexture":{
					"index":3
				},
				"metallicFactor":0,
				"roughnessFactor":0.8727272748947144
			}
		}
	],
	"meshes":[
		{
			"name":"Cube.098",
			"primitives":[
				{
					"attributes":{
						"POSITION":0,
						"NORMAL":1,
						"TEXCOORD_0":2,
						"COLOR_0":3,
						"COLOR_1":4
					},
					"indices":5,
					"material":0
				},
				{
					"attributes":{
						"POSITION":6,
						"NORMAL":7,
						"TEXCOORD_0":8,
						"COLOR_0":9,
						"COLOR_1":10
					},
					"indices":11,
					"material":1
				}
			]
		}
	],
	"textures":[
		{
			"sampler":0,
			"source":0
		},
		{
			"sampler":0,
			"source":1
		},
		{
			"sampler":0,
			"source":2
		},
		{
			"sampler":0,
			"source":3
		}
	],
	"images":[
		{
			"mimeType":"image/png",
			"name":"T_Trim_Furniture_Normal.png",
			"uri":"../textures/T_Trim_Furniture_Normal.png"
		},
		{
			"mimeType":"image/png",
			"name":"T_Trim_Furniture_BaseColor.png",
			"uri":"../textures/T_Trim_Furniture_BaseColor.png"
		},
		{
			"mimeType":"image/png",
			"name":"T_Trim_Metal_Normal.png",
			"uri":"../textures/T_Trim_Metal_Normal.png"
		},
		{
			"mimeType":"image/png",
			"name":"T_Trim_Metal_BaseColor.png",
			"uri":"../textures/T_Trim_Metal_BaseColor.png"
		}
	],
	"accessors":[
		{
			"bufferView":0,
			"componentType":5126,
			"count":463,
			"max":[
				0.6809141635894775,
				0.9976039528846741,
				0.17651748657226562
			],
			"min":[
				-0.6809141635894775,
				0.0001875162124633789,
				-0.18054699897766113
			],
			"type":"VEC3"
		},
		{
			"bufferView":1,
			"componentType":5126,
			"count":463,
			"type":"VEC3"
		},
		{
			"bufferView":2,
			"componentType":5126,
			"count":463,
			"type":"VEC2"
		},
		{
			"bufferView":3,
			"componentType":5121,
			"count":463,
			"normalized":true,
			"type":"VEC4"
		},
		{
			"bufferView":4,
			"componentType":5123,
			"count":463,
			"normalized":true,
			"type":"VEC4"
		},
		{
			"bufferView":5,
			"componentType":5123,
			"count":972,
			"type":"SCALAR"
		},
		{
			"bufferView":6,
			"componentType":5126,
			"count":2048,
			"max":[
				0.6081902384757996,
				0.6309489607810974,
				0.17564845085144043
			],
			"min":[
				-0.6081902384757996,
				0.15696312487125397,
				0.136638805270195
			],
			"type":"VEC3"
		},
		{
			"bufferView":7,
			"componentType":5126,
			"count":2048,
			"type":"VEC3"
		},
		{
			"bufferView":8,
			"componentType":5126,
			"count":2048,
			"type":"VEC2"
		},
		{
			"bufferView":9,
			"componentType":5121,
			"count":2048,
			"normalized":true,
			"type":"VEC4"
		},
		{
			"bufferView":10,
			"componentType":5123,
			"count":2048,
			"normalized":true,
			"type":"VEC4"
		},
		{
			"bufferView":11,
			"componentType":5123,
			"count":6192,
			"type":"SCALAR"
		}
	],
	"bufferViews":[
		{
			"buffer":0,
			"byteLength":5556,
			"byteOffset":0,
			"target":34962
		},
		{
			"buffer":0,
			"byteLength":5556,
			"byteOffset":5556,
			"target":34962
		},
		{
			"buffer":0,
			"byteLength":3704,
			"byteOffset":11112,
			"target":34962
		},
		{
			"buffer":0,
			"byteLength":1852,
			"byteOffset":14816,
			"target":34962
		},
		{
			"buffer":0,
			"byteLength":3704,
			"byteOffset":16668,
			"target":34962
		},
		{
			"buffer":0,
			"byteLength":1944,
			"byteOffset":20372,
			"target":34963
		},
		{
			"buffer":0,
			"byteLength":24576,
			"byteOffset":22316,
			"target":34962
		},
		{
			"buffer":0,
			"byteLength":24576,
			"byteOffset":46892,
			"target":34962
		},
		{
			"buffer":0,
			"byteLength":16384,
			"byteOffset":71468,
			"target":34962
		},
		{
			"buffer":0,
			"byteLength":8192,
			"byteOffset":87852,
			"target":34962
		},
		{
			"buffer":0,
			"byteLength":16384,
			"byteOffset":96044,
			"target":34962
		},
		{
			"buffer":0,
			"byteLength":12384,
			"byteOffset":112428,
			"target":34963
		}
	],
	"samplers":[
		{
			"magFilter":9729,
			"minFilter":9987
		}
	],
	"buffers":[
		{
			"byteLength":124812,
			"uri":"cabinet.bin"
		}
	]
}
