{
	"asset":{
		"generator":"Khronos glTF Blender I/O v5.1.20",
		"version":"2.0"
	},
	"scene":0,
	"scenes":[
		{
			"name":"Scene",
			"nodes":[
				1
			]
		}
	],
	"nodes":[
		{
			"mesh":0,
			"name":"CandleStick_Stand"
		},
		{
			"children":[
				0
			],
			"name":"candle_stick_stand"
		}
	],
	"materials":[
		{
			"doubleSided":true,
			"name":"MI_Trim_Metal",
			"normalTexture":{
				"index":0
			},
			"pbrMetallicRoughness":{
				"baseColorTexture":{
					"index":1
				},
				"metallicFactor":0,
				"roughnessFactor":0.8727272748947144
			}
		},
		{
			"doubleSided":true,
			"name":"MI_Trim_Props_Vertex",
			"normalTexture":{
				"index":2
			},
			"pbrMetallicRoughness":{
				"baseColorTexture":{
					"index":3
				},
				"metallicFactor":0,
				"roughnessFactor":0.8727272748947144
			}
		}
	],
	"meshes":[
		{
			"name":"Cylinder.127",
			"primitives":[
				{
					"attributes":{
						"POSITION":0,
						"NORMAL":1,
						"TEXCOORD_0":2,
						"COLOR_0":3,
						"COLOR_1":4
					},
					"indices":5,
					"material":0
				},
				{
					"attributes":{
						"POSITION":6,
						"NORMAL":7,
						"TEXCOORD_0":8,
						"COLOR_0":9,
						"COLOR_1":10
					},
					"indices":11,
					"material":1
				}
			]
		}
	],
	"textures":[
		{
			"sampler":0,
			"source":0
		},
		{
			"sampler":0,
			"source":1
		},
		{
			"sampler":0,
			"source":2
		},
		{
			"sampler":0,
			"source":3
		}
	],
	"images":[
		{
			"mimeType":"image/png",
			"name":"T_Trim_Metal_Normal.png",
			"uri":"../textures/T_Trim_Metal_Normal.png"
		},
		{
			"mimeType":"image/png",
			"name":"T_Trim_Metal_BaseColor.png",
			"uri":"../textures/T_Trim_Metal_BaseColor.png"
		},
		{
			"mimeType":"image/png",
			"name":"T_Trim_Props_Normal.png",
			"uri":"../textures/T_Trim_Props_Normal.png"
		},
		{
			"mimeType":"image/png",
			"name":"T_Trim_Props_BaseColor.png",
			"uri":"../textures/T_Trim_Props_BaseColor.png"
		}
	],
	"accessors":[
		{
			"bufferView":0,
			"componentType":5126,
			"count":2810,
			"max":[
				0.3656429648399353,
				1.1970200538635254,
				0.36562031507492065
			],
			"min":[
				-0.36662405729293823,
				-0.007947052828967571,
				-0.36566540598869324
			],
			"type":"VEC3"
		},
		{
			"bufferView":1,
			"componentType":5126,
			"count":2810,
			"type":"VEC3"
		},
		{
			"bufferView":2,
			"componentType":5126,
			"count":2810,
			"type":"VEC2"
		},
		{
			"bufferView":3,
			"componentType":5121,
			"count":2810,
			"normalized":true,
			"type":"VEC4"
		},
		{
			"bufferView":4,
			"componentType":5123,
			"count":2810,
			"normalized":true,
			"type":"VEC4"
		},
		{
			"bufferView":5,
			"componentType":5123,
			"count":11124,
			"type":"SCALAR"
		},
		{
			"bufferView":6,
			"componentType":5126,
			"count":1985,
			"max":[
				0.3439567983150482,
				1.304558515548706,
				0.3408641815185547
			],
			"min":[
				-0.34282851219177246,
				0.9577401280403137,
				-0.34276488423347473
			],
			"type":"VEC3"
		},
		{
			"bufferView":7,
			"componentType":5126,
			"count":1985,
			"type":"VEC3"
		},
		{
			"bufferView":8,
			"componentType":5126,
			"count":1985,
			"type":"VEC2"
		},
		{
			"bufferView":9,
			"componentType":5121,
			"count":1985,
			"normalized":true,
			"type":"VEC4"
		},
		{
			"bufferView":10,
			"componentType":5123,
			"count":1985,
			"normalized":true,
			"type":"VEC4"
		},
		{
			"bufferView":11,
			"componentType":5123,
			"count":6090,
			"type":"SCALAR"
		}
	],
	"bufferViews":[
		{
			"buffer":0,
			"byteLength":33720,
			"byteOffset":0,
			"target":34962
		},
		{
			"buffer":0,
			"byteLength":33720,
			"byteOffset":33720,
			"target":34962
		},
		{
			"buffer":0,
			"byteLength":22480,
			"byteOffset":67440,
			"target":34962
		},
		{
			"buffer":0,
			"byteLength":11240,
			"byteOffset":89920,
			"target":34962
		},
		{
			"buffer":0,
			"byteLength":22480,
			"byteOffset":101160,
			"target":34962
		},
		{
			"buffer":0,
			"byteLength":22248,
			"byteOffset":123640,
			"target":34963
		},
		{
			"buffer":0,
			"byteLength":23820,
			"byteOffset":145888,
			"target":34962
		},
		{
			"buffer":0,
			"byteLength":23820,
			"byteOffset":169708,
			"target":34962
		},
		{
			"buffer":0,
			"byteLength":15880,
			"byteOffset":193528,
			"target":34962
		},
		{
			"buffer":0,
			"byteLength":7940,
			"byteOffset":209408,
			"target":34962
		},
		{
			"buffer":0,
			"byteLength":15880,
			"byteOffset":217348,
			"target":34962
		},
		{
			"buffer":0,
			"byteLength":12180,
			"byteOffset":233228,
			"target":34963
		}
	],
	"samplers":[
		{
			"magFilter":9729,
			"minFilter":9987
		}
	],
	"buffers":[
		{
			"byteLength":245408,
			"uri":"candle_stick_stand.bin"
		}
	]
}
