{
	"asset":{
		"generator":"Khronos glTF Blender I/O v5.1.20",
		"version":"2.0"
	},
	"scene":0,
	"scenes":[
		{
			"name":"Scene",
			"nodes":[
				1
			]
		}
	],
	"nodes":[
		{
			"mesh":0,
			"name":"Carrot"
		},
		{
			"children":[
				0
			],
			"name":"carrot"
		}
	],
	"materials":[
		{
			"doubleSided":true,
			"name":"MI_Trim_Props_Vertex",
			"normalTexture":{
				"index":0
			},
			"pbrMetallicRoughness":{
				"baseColorTexture":{
					"index":1
				},
				"metallicFactor":0,
				"roughnessFactor":0.8727272748947144
			}
		}
	],
	"meshes":[
		{
			"name":"Cylinder.064",
			"primitives":[
				{
					"attributes":{
						"POSITION":0,
						"NORMAL":1,
						"TEXCOORD_0":2,
						"COLOR_0":3,
						"COLOR_1":4
					},
					"indices":5,
					"material":0
				}
			]
		}
	],
	"textures":[
		{
			"sampler":0,
			"source":0
		},
		{
			"sampler":0,
			"source":1
		}
	],
	"images":[
		{
			"mimeType":"image/png",
			"name":"T_Trim_Props_Normal.png",
			"uri":"../textures/T_Trim_Props_Normal.png"
		},
		{
			"mimeType":"image/png",
			"name":"T_Trim_Props_BaseColor.png",
			"uri":"../textures/T_Trim_Props_BaseColor.png"
		}
	],
	"accessors":[
		{
			"bufferView":0,
			"componentType":5126,
			"count":461,
			"max":[
				0.06535572558641434,
				0.32802721858024597,
				0.11505041271448135
			],
			"min":[
				-0.11449738591909409,
				-0.23777589201927185,
				-0.10699532926082611
			],
			"type":"VEC3"
		},
		{
			"bufferView":1,
			"componentType":5126,
			"count":461,
			"type":"VEC3"
		},
		{
			"bufferView":2,
			"componentType":5126,
			"count":461,
			"type":"VEC2"
		},
		{
			"bufferView":3,
			"componentType":5121,
			"count":461,
			"normalized":true,
			"type":"VEC4"
		},
		{
			"bufferView":4,
			"componentType":5123,
			"count":461,
			"normalized":true,
			"type":"VEC4"
		},
		{
			"bufferView":5,
			"componentType":5123,
			"count":1902,
			"type":"SCALAR"
		}
	],
	"bufferViews":[
		{
			"buffer":0,
			"byteLength":5532,
			"byteOffset":0,
			"target":34962
		},
		{
			"buffer":0,
			"byteLength":5532,
			"byteOffset":5532,
			"target":34962
		},
		{
			"buffer":0,
			"byteLength":3688,
			"byteOffset":11064,
			"target":34962
		},
		{
			"buffer":0,
			"byteLength":1844,
			"byteOffset":14752,
			"target":34962
		},
		{
			"buffer":0,
			"byteLength":3688,
			"byteOffset":16596,
			"target":34962
		},
		{
			"buffer":0,
			"byteLength":3804,
			"byteOffset":20284,
			"target":34963
		}
	],
	"samplers":[
		{
			"magFilter":9729,
			"minFilter":9987
		}
	],
	"buffers":[
		{
			"byteLength":24088,
			"uri":"carrot.bin"
		}
	]
}
