{
	"asset":{
		"generator":"Khronos glTF Blender I/O v5.1.20",
		"version":"2.0"
	},
	"scene":0,
	"scenes":[
		{
			"name":"Scene",
			"nodes":[
				1
			]
		}
	],
	"nodes":[
		{
			"mesh":0,
			"name":"Chain_Coil"
		},
		{
			"children":[
				0
			],
			"name":"chain_coil"
		}
	],
	"materials":[
		{
			"doubleSided":true,
			"name":"MI_Trim_Metal",
			"normalTexture":{
				"index":0
			},
			"pbrMetallicRoughness":{
				"baseColorTexture":{
					"index":1
				},
				"metallicFactor":0,
				"roughnessFactor":0.8727272748947144
			}
		}
	],
	"meshes":[
		{
			"name":"Cylinder.002",
			"primitives":[
				{
					"attributes":{
						"POSITION":0,
						"NORMAL":1,
						"TEXCOORD_0":2,
						"COLOR_0":3,
						"COLOR_1":4
					},
					"indices":5,
					"material":0
				}
			]
		}
	],
	"textures":[
		{
			"sampler":0,
			"source":0
		},
		{
			"sampler":0,
			"source":1
		}
	],
	"images":[
		{
			"mimeType":"image/png",
			"name":"T_Trim_Metal_Normal.png",
			"uri":"../textures/T_Trim_Metal_Normal.png"
		},
		{
			"mimeType":"image/png",
			"name":"T_Trim_Metal_BaseColor.png",
			"uri":"../textures/T_Trim_Metal_BaseColor.png"
		}
	],
	"accessors":[
		{
			"bufferView":0,
			"componentType":5126,
			"count":4280,
			"max":[
				0.4885097146034241,
				0.09187339246273041,
				0.5013493895530701
			],
			"min":[
				-0.5817813873291016,
				0.004720371216535568,
				-0.40639230608940125
			],
			"type":"VEC3"
		},
		{
			"bufferView":1,
			"componentType":5126,
			"count":4280,
			"type":"VEC3"
		},
		{
			"bufferView":2,
			"componentType":5126,
			"count":4280,
			"type":"VEC2"
		},
		{
			"bufferView":3,
			"componentType":5121,
			"count":4280,
			"normalized":true,
			"type":"VEC4"
		},
		{
			"bufferView":4,
			"componentType":5123,
			"count":4280,
			"normalized":true,
			"type":"VEC4"
		},
		{
			"bufferView":5,
			"componentType":5123,
			"count":11232,
			"type":"SCALAR"
		}
	],
	"bufferViews":[
		{
			"buffer":0,
			"byteLength":51360,
			"byteOffset":0,
			"target":34962
		},
		{
			"buffer":0,
			"byteLength":51360,
			"byteOffset":51360,
			"target":34962
		},
		{
			"buffer":0,
			"byteLength":34240,
			"byteOffset":102720,
			"target":34962
		},
		{
			"buffer":0,
			"byteLength":17120,
			"byteOffset":136960,
			"target":34962
		},
		{
			"buffer":0,
			"byteLength":34240,
			"byteOffset":154080,
			"target":34962
		},
		{
			"buffer":0,
			"byteLength":22464,
			"byteOffset":188320,
			"target":34963
		}
	],
	"samplers":[
		{
			"magFilter":9729,
			"minFilter":9987
		}
	],
	"buffers":[
		{
			"byteLength":210784,
			"uri":"chain_coil.bin"
		}
	]
}
