{
	"asset":{
		"generator":"Khronos glTF Blender I/O v5.1.20",
		"version":"2.0"
	},
	"scene":0,
	"scenes":[
		{
			"name":"Scene",
			"nodes":[
				1
			]
		}
	],
	"nodes":[
		{
			"mesh":0,
			"name":"Chandelier"
		},
		{
			"children":[
				0
			],
			"name":"chandelier"
		}
	],
	"materials":[
		{
			"doubleSided":true,
			"name":"MI_Trim_Metal",
			"normalTexture":{
				"index":0
			},
			"pbrMetallicRoughness":{
				"baseColorTexture":{
					"index":1
				},
				"metallicFactor":0,
				"roughnessFactor":0.8727272748947144
			}
		},
		{
			"doubleSided":true,
			"name":"MI_Trim_Furniture",
			"normalTexture":{
				"index":2
			},
			"pbrMetallicRoughness":{
				"baseColorTexture":{
					"index":3
				},
				"metallicFactor":0,
				"roughnessFactor":0.8727272748947144
			}
		},
		{
			"doubleSided":true,
			"name":"MI_Trim_Props_Vertex",
			"normalTexture":{
				"index":4
			},
			"pbrMetallicRoughness":{
				"baseColorTexture":{
					"index":5
				},
				"metallicFactor":0,
				"roughnessFactor":0.8727272748947144
			}
		}
	],
	"meshes":[
		{
			"name":"Cylinder.092",
			"primitives":[
				{
					"attributes":{
						"POSITION":0,
						"NORMAL":1,
						"TEXCOORD_0":2,
						"COLOR_0":3,
						"COLOR_1":4
					},
					"indices":5,
					"material":0
				},
				{
					"attributes":{
						"POSITION":6,
						"NORMAL":7,
						"TEXCOORD_0":8,
						"COLOR_0":9,
						"COLOR_1":10
					},
					"indices":11,
					"material":1
				},
				{
					"attributes":{
						"POSITION":12,
						"NORMAL":13,
						"TEXCOORD_0":14,
						"COLOR_0":15,
						"COLOR_1":16
					},
					"indices":17,
					"material":2
				}
			]
		}
	],
	"textures":[
		{
			"sampler":0,
			"source":0
		},
		{
			"sampler":0,
			"source":1
		},
		{
			"sampler":0,
			"source":2
		},
		{
			"sampler":0,
			"source":3
		},
		{
			"sampler":0,
			"source":4
		},
		{
			"sampler":0,
			"source":5
		}
	],
	"images":[
		{
			"mimeType":"image/png",
			"name":"T_Trim_Metal_Normal.png",
			"uri":"../textures/T_Trim_Metal_Normal.png"
		},
		{
			"mimeType":"image/png",
			"name":"T_Trim_Metal_BaseColor.png",
			"uri":"../textures/T_Trim_Metal_BaseColor.png"
		},
		{
			"mimeType":"image/png",
			"name":"T_Trim_Furniture_Normal.png",
			"uri":"../textures/T_Trim_Furniture_Normal.png"
		},
		{
			"mimeType":"image/png",
			"name":"T_Trim_Furniture_BaseColor.png",
			"uri":"../textures/T_Trim_Furniture_BaseColor.png"
		},
		{
			"mimeType":"image/png",
			"name":"T_Trim_Props_Normal.png",
			"uri":"../textures/T_Trim_Props_Normal.png"
		},
		{
			"mimeType":"image/png",
			"name":"T_Trim_Props_BaseColor.png",
			"uri":"../textures/T_Trim_Props_BaseColor.png"
		}
	],
	"accessors":[
		{
			"bufferView":0,
			"componentType":5126,
			"count":3582,
			"max":[
				0.651257336139679,
				0.035917043685913086,
				0.651257336139679
			],
			"min":[
				-0.6512573957443237,
				-1.2606366872787476,
				-0.651257336139679
			],
			"type":"VEC3"
		},
		{
			"bufferView":1,
			"componentType":5126,
			"count":3582,
			"type":"VEC3"
		},
		{
			"bufferView":2,
			"componentType":5126,
			"count":3582,
			"type":"VEC2"
		},
		{
			"bufferView":3,
			"componentType":5121,
			"count":3582,
			"normalized":true,
			"type":"VEC4"
		},
		{
			"bufferView":4,
			"componentType":5123,
			"count":3582,
			"normalized":true,
			"type":"VEC4"
		},
		{
			"bufferView":5,
			"componentType":5123,
			"count":10230,
			"type":"SCALAR"
		},
		{
			"bufferView":6,
			"componentType":5126,
			"count":248,
			"max":[
				0.5572736859321594,
				-1.1233465671539307,
				0.5544241070747375
			],
			"min":[
				-0.5575311183929443,
				-1.2585351467132568,
				-0.5542735457420349
			],
			"type":"VEC3"
		},
		{
			"bufferView":7,
			"componentType":5126,
			"count":248,
			"type":"VEC3"
		},
		{
			"bufferView":8,
			"componentType":5126,
			"count":248,
			"type":"VEC2"
		},
		{
			"bufferView":9,
			"componentType":5121,
			"count":248,
			"normalized":true,
			"type":"VEC4"
		},
		{
			"bufferView":10,
			"componentType":5123,
			"count":248,
			"normalized":true,
			"type":"VEC4"
		},
		{
			"bufferView":11,
			"componentType":5123,
			"count":720,
			"type":"SCALAR"
		},
		{
			"bufferView":12,
			"componentType":5126,
			"count":1985,
			"max":[
				0.6183496117591858,
				-0.9082695245742798,
				0.6136910319328308
			],
			"min":[
				-0.6160293221473694,
				-1.4217151403427124,
				-0.6165067553520203
			],
			"type":"VEC3"
		},
		{
			"bufferView":13,
			"componentType":5126,
			"count":1985,
			"type":"VEC3"
		},
		{
			"bufferView":14,
			"componentType":5126,
			"count":1985,
			"type":"VEC2"
		},
		{
			"bufferView":15,
			"componentType":5121,
			"count":1985,
			"normalized":true,
			"type":"VEC4"
		},
		{
			"bufferView":16,
			"componentType":5123,
			"count":1985,
			"normalized":true,
			"type":"VEC4"
		},
		{
			"bufferView":17,
			"componentType":5123,
			"count":6090,
			"type":"SCALAR"
		}
	],
	"bufferViews":[
		{
			"buffer":0,
			"byteLength":42984,
			"byteOffset":0,
			"target":34962
		},
		{
			"buffer":0,
			"byteLength":42984,
			"byteOffset":42984,
			"target":34962
		},
		{
			"buffer":0,
			"byteLength":28656,
			"byteOffset":85968,
			"target":34962
		},
		{
			"buffer":0,
			"byteLength":14328,
			"byteOffset":114624,
			"target":34962
		},
		{
			"buffer":0,
			"byteLength":28656,
			"byteOffset":128952,
			"target":34962
		},
		{
			"buffer":0,
			"byteLength":20460,
			"byteOffset":157608,
			"target":34963
		},
		{
			"buffer":0,
			"byteLength":2976,
			"byteOffset":178068,
			"target":34962
		},
		{
			"buffer":0,
			"byteLength":2976,
			"byteOffset":181044,
			"target":34962
		},
		{
			"buffer":0,
			"byteLength":1984,
			"byteOffset":184020,
			"target":34962
		},
		{
			"buffer":0,
			"byteLength":992,
			"byteOffset":186004,
			"target":34962
		},
		{
			"buffer":0,
			"byteLength":1984,
			"byteOffset":186996,
			"target":34962
		},
		{
			"buffer":0,
			"byteLength":1440,
			"byteOffset":188980,
			"target":34963
		},
		{
			"buffer":0,
			"byteLength":23820,
			"byteOffset":190420,
			"target":34962
		},
		{
			"buffer":0,
			"byteLength":23820,
			"byteOffset":214240,
			"target":34962
		},
		{
			"buffer":0,
			"byteLength":15880,
			"byteOffset":238060,
			"target":34962
		},
		{
			"buffer":0,
			"byteLength":7940,
			"byteOffset":253940,
			"target":34962
		},
		{
			"buffer":0,
			"byteLength":15880,
			"byteOffset":261880,
			"target":34962
		},
		{
			"buffer":0,
			"byteLength":12180,
			"byteOffset":277760,
			"target":34963
		}
	],
	"samplers":[
		{
			"magFilter":9729,
			"minFilter":9987
		}
	],
	"buffers":[
		{
			"byteLength":289940,
			"uri":"chandelier.bin"
		}
	]
}
