{
	"asset":{
		"generator":"Khronos glTF Blender I/O v5.1.20",
		"version":"2.0"
	},
	"scene":0,
	"scenes":[
		{
			"name":"Scene",
			"nodes":[
				6
			]
		}
	],
	"nodes":[
		{
			"name":"Chest_Top",
			"translation":[
				1.8592691830576769e-09,
				0.42861831188201904,
				-0.314306378364563
			]
		},
		{
			"children":[
				0
			],
			"name":"Chest_Bottom",
			"rotation":[
				0,
				-1.1920928955078125e-07,
				0,
				1
			]
		},
		{
			"children":[
				1
			],
			"name":"Root",
			"rotation":[
				0,
				1.1920928955078125e-07,
				0,
				1
			]
		},
		{
			"mesh":0,
			"name":"Chest_Wood_Base",
			"skin":0
		},
		{
			"mesh":1,
			"name":"Chest_Wood_Lid",
			"skin":0
		},
		{
			"children":[
				3,
				4,
				2
			],
			"name":"Chest_Armature"
		},
		{
			"children":[
				5
			],
			"name":"chest_wood"
		}
	],
	"animations":[
		{
			"channels":[
				{
					"sampler":0,
					"target":{
						"node":2,
						"path":"translation"
					}
				},
				{
					"sampler":1,
					"target":{
						"node":2,
						"path":"rotation"
					}
				},
				{
					"sampler":2,
					"target":{
						"node":2,
						"path":"scale"
					}
				},
				{
					"sampler":3,
					"target":{
						"node":1,
						"path":"translation"
					}
				},
				{
					"sampler":4,
					"target":{
						"node":1,
						"path":"rotation"
					}
				},
				{
					"sampler":5,
					"target":{
						"node":1,
						"path":"scale"
					}
				},
				{
					"sampler":6,
					"target":{
						"node":0,
						"path":"translation"
					}
				},
				{
					"sampler":7,
					"target":{
						"node":0,
						"path":"rotation"
					}
				},
				{
					"sampler":8,
					"target":{
						"node":0,
						"path":"scale"
					}
				},
				{
					"sampler":9,
					"target":{
						"node":5,
						"path":"translation"
					}
				},
				{
					"sampler":10,
					"target":{
						"node":5,
						"path":"rotation"
					}
				},
				{
					"sampler":11,
					"target":{
						"node":5,
						"path":"scale"
					}
				}
			],
			"name":"Chest_Armature|Chest_Armature|Chest_Close",
			"samplers":[
				{
					"input":25,
					"interpolation":"STEP",
					"output":26
				},
				{
					"input":25,
					"interpolation":"STEP",
					"output":27
				},
				{
					"input":25,
					"interpolation":"STEP",
					"output":28
				},
				{
					"input":29,
					"interpolation":"LINEAR",
					"output":30
				},
				{
					"input":29,
					"interpolation":"LINEAR",
					"output":31
				},
				{
					"input":25,
					"interpolation":"STEP",
					"output":28
				},
				{
					"input":25,
					"interpolation":"STEP",
					"output":32
				},
				{
					"input":29,
					"interpolation":"LINEAR",
					"output":33
				},
				{
					"input":25,
					"interpolation":"LINEAR",
					"output":34
				},
				{
					"input":25,
					"interpolation":"STEP",
					"output":35
				},
				{
					"input":25,
					"interpolation":"STEP",
					"output":36
				},
				{
					"input":25,
					"interpolation":"STEP",
					"output":28
				}
			]
		},
		{
			"channels":[
				{
					"sampler":0,
					"target":{
						"node":2,
						"path":"translation"
					}
				},
				{
					"sampler":1,
					"target":{
						"node":2,
						"path":"rotation"
					}
				},
				{
					"sampler":2,
					"target":{
						"node":2,
						"path":"scale"
					}
				},
				{
					"sampler":3,
					"target":{
						"node":1,
						"path":"translation"
					}
				},
				{
					"sampler":4,
					"target":{
						"node":1,
						"path":"rotation"
					}
				},
				{
					"sampler":5,
					"target":{
						"node":1,
						"path":"scale"
					}
				},
				{
					"sampler":6,
					"target":{
						"node":0,
						"path":"translation"
					}
				},
				{
					"sampler":7,
					"target":{
						"node":0,
						"path":"rotation"
					}
				},
				{
					"sampler":8,
					"target":{
						"node":0,
						"path":"scale"
					}
				},
				{
					"sampler":9,
					"target":{
						"node":5,
						"path":"translation"
					}
				},
				{
					"sampler":10,
					"target":{
						"node":5,
						"path":"rotation"
					}
				},
				{
					"sampler":11,
					"target":{
						"node":5,
						"path":"scale"
					}
				}
			],
			"name":"Chest_Armature|Chest_Armature|Chest_Closed",
			"samplers":[
				{
					"input":37,
					"interpolation":"STEP",
					"output":26
				},
				{
					"input":37,
					"interpolation":"STEP",
					"output":27
				},
				{
					"input":37,
					"interpolation":"STEP",
					"output":28
				},
				{
					"input":37,
					"interpolation":"STEP",
					"output":26
				},
				{
					"input":37,
					"interpolation":"STEP",
					"output":38
				},
				{
					"input":37,
					"interpolation":"STEP",
					"output":28
				},
				{
					"input":37,
					"interpolation":"STEP",
					"output":32
				},
				{
					"input":37,
					"interpolation":"STEP",
					"output":39
				},
				{
					"input":37,
					"interpolation":"STEP",
					"output":28
				},
				{
					"input":37,
					"interpolation":"STEP",
					"output":35
				},
				{
					"input":37,
					"interpolation":"STEP",
					"output":36
				},
				{
					"input":37,
					"interpolation":"STEP",
					"output":28
				}
			]
		},
		{
			"channels":[
				{
					"sampler":0,
					"target":{
						"node":2,
						"path":"translation"
					}
				},
				{
					"sampler":1,
					"target":{
						"node":2,
						"path":"rotation"
					}
				},
				{
					"sampler":2,
					"target":{
						"node":2,
						"path":"scale"
					}
				},
				{
					"sampler":3,
					"target":{
						"node":1,
						"path":"translation"
					}
				},
				{
					"sampler":4,
					"target":{
						"node":1,
						"path":"rotation"
					}
				},
				{
					"sampler":5,
					"target":{
						"node":1,
						"path":"scale"
					}
				},
				{
					"sampler":6,
					"target":{
						"node":0,
						"path":"translation"
					}
				},
				{
					"sampler":7,
					"target":{
						"node":0,
						"path":"rotation"
					}
				},
				{
					"sampler":8,
					"target":{
						"node":0,
						"path":"scale"
					}
				},
				{
					"sampler":9,
					"target":{
						"node":5,
						"path":"translation"
					}
				},
				{
					"sampler":10,
					"target":{
						"node":5,
						"path":"rotation"
					}
				},
				{
					"sampler":11,
					"target":{
						"node":5,
						"path":"scale"
					}
				}
			],
			"name":"Chest_Armature|Chest_Armature|Chest_Open",
			"samplers":[
				{
					"input":40,
					"interpolation":"STEP",
					"output":26
				},
				{
					"input":40,
					"interpolation":"STEP",
					"output":27
				},
				{
					"input":40,
					"interpolation":"STEP",
					"output":28
				},
				{
					"input":41,
					"interpolation":"LINEAR",
					"output":42
				},
				{
					"input":41,
					"interpolation":"LINEAR",
					"output":43
				},
				{
					"input":40,
					"interpolation":"STEP",
					"output":28
				},
				{
					"input":40,
					"interpolation":"STEP",
					"output":32
				},
				{
					"input":41,
					"interpolation":"LINEAR",
					"output":44
				},
				{
					"input":40,
					"interpolation":"LINEAR",
					"output":45
				},
				{
					"input":40,
					"interpolation":"STEP",
					"output":35
				},
				{
					"input":40,
					"interpolation":"STEP",
					"output":36
				},
				{
					"input":40,
					"interpolation":"STEP",
					"output":28
				}
			]
		},
		{
			"channels":[
				{
					"sampler":0,
					"target":{
						"node":2,
						"path":"translation"
					}
				},
				{
					"sampler":1,
					"target":{
						"node":2,
						"path":"rotation"
					}
				},
				{
					"sampler":2,
					"target":{
						"node":2,
						"path":"scale"
					}
				},
				{
					"sampler":3,
					"target":{
						"node":1,
						"path":"translation"
					}
				},
				{
					"sampler":4,
					"target":{
						"node":1,
						"path":"rotation"
					}
				},
				{
					"sampler":5,
					"target":{
						"node":1,
						"path":"scale"
					}
				},
				{
					"sampler":6,
					"target":{
						"node":0,
						"path":"translation"
					}
				},
				{
					"sampler":7,
					"target":{
						"node":0,
						"path":"rotation"
					}
				},
				{
					"sampler":8,
					"target":{
						"node":0,
						"path":"scale"
					}
				},
				{
					"sampler":9,
					"target":{
						"node":5,
						"path":"translation"
					}
				},
				{
					"sampler":10,
					"target":{
						"node":5,
						"path":"rotation"
					}
				},
				{
					"sampler":11,
					"target":{
						"node":5,
						"path":"scale"
					}
				}
			],
			"name":"Chest_Armature|Chest_Armature|Chest_Opened",
			"samplers":[
				{
					"input":37,
					"interpolation":"STEP",
					"output":26
				},
				{
					"input":37,
					"interpolation":"STEP",
					"output":27
				},
				{
					"input":37,
					"interpolation":"STEP",
					"output":28
				},
				{
					"input":37,
					"interpolation":"STEP",
					"output":26
				},
				{
					"input":37,
					"interpolation":"STEP",
					"output":38
				},
				{
					"input":37,
					"interpolation":"STEP",
					"output":28
				},
				{
					"input":37,
					"interpolation":"STEP",
					"output":32
				},
				{
					"input":37,
					"interpolation":"STEP",
					"output":46
				},
				{
					"input":37,
					"interpolation":"STEP",
					"output":47
				},
				{
					"input":37,
					"interpolation":"STEP",
					"output":35
				},
				{
					"input":37,
					"interpolation":"STEP",
					"output":36
				},
				{
					"input":37,
					"interpolation":"STEP",
					"output":28
				}
			]
		}
	],
	"materials":[
		{
			"doubleSided":true,
			"name":"MI_Trim_Furniture",
			"normalTexture":{
				"index":0
			},
			"pbrMetallicRoughness":{
				"baseColorTexture":{
					"index":1
				},
				"metallicFactor":0,
				"roughnessFactor":0.8727272748947144
			}
		},
		{
			"doubleSided":true,
			"name":"MI_Trim_Metal",
			"normalTexture":{
				"index":2
			},
			"pbrMetallicRoughness":{
				"baseColorTexture":{
					"index":3
				},
				"metallicFactor":0,
				"roughnessFactor":0.8727272748947144
			}
		}
	],
	"meshes":[
		{
			"name":"Cube.001",
			"primitives":[
				{
					"attributes":{
						"POSITION":0,
						"NORMAL":1,
						"TEXCOORD_0":2,
						"JOINTS_0":3,
						"WEIGHTS_0":4
					},
					"indices":5,
					"material":0
				},
				{
					"attributes":{
						"POSITION":6,
						"NORMAL":7,
						"TEXCOORD_0":8,
						"JOINTS_0":9,
						"WEIGHTS_0":10
					},
					"indices":11,
					"material":1
				}
			]
		},
		{
			"name":"Cube.002",
			"primitives":[
				{
					"attributes":{
						"POSITION":13,
						"NORMAL":14,
						"TEXCOORD_0":15,
						"JOINTS_0":16,
						"WEIGHTS_0":17
					},
					"indices":18,
					"material":0
				},
				{
					"attributes":{
						"POSITION":19,
						"NORMAL":20,
						"TEXCOORD_0":21,
						"JOINTS_0":22,
						"WEIGHTS_0":23
					},
					"indices":24,
					"material":1
				}
			]
		}
	],
	"textures":[
		{
			"sampler":0,
			"source":0
		},
		{
			"sampler":0,
			"source":1
		},
		{
			"sampler":0,
			"source":2
		},
		{
			"sampler":0,
			"source":3
		}
	],
	"images":[
		{
			"mimeType":"image/png",
			"name":"T_Trim_Furniture_Normal.png",
			"uri":"../textures/T_Trim_Furniture_Normal.png"
		},
		{
			"mimeType":"image/png",
			"name":"T_Trim_Furniture_BaseColor.png",
			"uri":"../textures/T_Trim_Furniture_BaseColor.png"
		},
		{
			"mimeType":"image/png",
			"name":"T_Trim_Metal_Normal.png",
			"uri":"../textures/T_Trim_Metal_Normal.png"
		},
		{
			"mimeType":"image/png",
			"name":"T_Trim_Metal_BaseColor.png",
			"uri":"../textures/T_Trim_Metal_BaseColor.png"
		}
	],
	"skins":[
		{
			"inverseBindMatrices":12,
			"joints":[
				2,
				1,
				0
			],
			"name":"Chest_Armature"
		}
	],
	"accessors":[
		{
			"bufferView":0,
			"componentType":5126,
			"count":72,
			"max":[
				0.5617947578430176,
				0.30550992488861084,
				0.30463868379592896
			],
			"min":[
				-0.5617947578430176,
				-0.01874333620071411,
				-0.30463868379592896
			],
			"type":"VEC3"
		},
		{
			"bufferView":1,
			"componentType":5126,
			"count":72,
			"type":"VEC3"
		},
		{
			"bufferView":2,
			"componentType":5126,
			"count":72,
			"type":"VEC2"
		},
		{
			"bufferView":3,
			"componentType":5121,
			"count":72,
			"type":"VEC4"
		},
		{
			"bufferView":4,
			"componentType":5126,
			"count":72,
			"type":"VEC4"
		},
		{
			"bufferView":5,
			"componentType":5123,
			"count":120,
			"type":"SCALAR"
		},
		{
			"bufferView":6,
			"componentType":5126,
			"count":1680,
			"max":[
				0.6376006007194519,
				0.4419104754924774,
				0.3777053952217102
			],
			"min":[
				-0.638446033000946,
				-0.022696927189826965,
				-0.377705454826355
			],
			"type":"VEC3"
		},
		{
			"bufferView":7,
			"componentType":5126,
			"count":1680,
			"type":"VEC3"
		},
		{
			"bufferView":8,
			"componentType":5126,
			"count":1680,
			"type":"VEC2"
		},
		{
			"bufferView":9,
			"componentType":5121,
			"count":1680,
			"type":"VEC4"
		},
		{
			"bufferView":10,
			"componentType":5126,
			"count":1680,
			"type":"VEC4"
		},
		{
			"bufferView":11,
			"componentType":5123,
			"count":4164,
			"type":"SCALAR"
		},
		{
			"bufferView":12,
			"componentType":5126,
			"count":3,
			"type":"MAT4"
		},
		{
			"bufferView":13,
			"componentType":5126,
			"count":381,
			"max":[
				0.5457670092582703,
				0.6750708222389221,
				0.3092080056667328
			],
			"min":[
				-0.545767068862915,
				0.46670860052108765,
				-0.3092081844806671
			],
			"type":"VEC3"
		},
		{
			"bufferView":14,
			"componentType":5126,
			"count":381,
			"type":"VEC3"
		},
		{
			"bufferView":15,
			"componentType":5126,
			"count":381,
			"type":"VEC2"
		},
		{
			"bufferView":16,
			"componentType":5121,
			"count":381,
			"type":"VEC4"
		},
		{
			"bufferView":17,
			"componentType":5126,
			"count":381,
			"type":"VEC4"
		},
		{
			"bufferView":18,
			"componentType":5123,
			"count":984,
			"type":"SCALAR"
		},
		{
			"bufferView":19,
			"componentType":5126,
			"count":1051,
			"max":[
				0.5719738602638245,
				0.6925303339958191,
				0.3679825961589813
			],
			"min":[
				-0.5719738602638245,
				0.32489094138145447,
				-0.3420896530151367
			],
			"type":"VEC3"
		},
		{
			"bufferView":20,
			"componentType":5126,
			"count":1051,
			"type":"VEC3"
		},
		{
			"bufferView":21,
			"componentType":5126,
			"count":1051,
			"type":"VEC2"
		},
		{
			"bufferView":22,
			"componentType":5121,
			"count":1051,
			"type":"VEC4"
		},
		{
			"bufferView":23,
			"componentType":5126,
			"count":1051,
			"type":"VEC4"
		},
		{
			"bufferView":24,
			"componentType":5123,
			"count":2370,
			"type":"SCALAR"
		},
		{
			"bufferView":25,
			"componentType":5126,
			"count":2,
			"max":[
				0.5
			],
			"min":[
				0.03333333333333333
			],
			"type":"SCALAR"
		},
		{
			"bufferView":26,
			"componentType":5126,
			"count":2,
			"type":"VEC3"
		},
		{
			"bufferView":27,
			"componentType":5126,
			"count":2,
			"type":"VEC4"
		},
		{
			"bufferView":28,
			"componentType":5126,
			"count":2,
			"type":"VEC3"
		},
		{
			"bufferView":29,
			"componentType":5126,
			"count":15,
			"max":[
				0.5
			],
			"min":[
				0.03333333333333333
			],
			"type":"SCALAR"
		},
		{
			"bufferView":30,
			"componentType":5126,
			"count":15,
			"type":"VEC3"
		},
		{
			"bufferView":31,
			"componentType":5126,
			"count":15,
			"type":"VEC4"
		},
		{
			"bufferView":32,
			"componentType":5126,
			"count":2,
			"type":"VEC3"
		},
		{
			"bufferView":33,
			"componentType":5126,
			"count":15,
			"type":"VEC4"
		},
		{
			"bufferView":34,
			"componentType":5126,
			"count":2,
			"type":"VEC3"
		},
		{
			"bufferView":35,
			"componentType":5126,
			"count":2,
			"type":"VEC3"
		},
		{
			"bufferView":36,
			"componentType":5126,
			"count":2,
			"type":"VEC4"
		},
		{
			"bufferView":37,
			"componentType":5126,
			"count":2,
			"max":[
				0.36666666666666664
			],
			"min":[
				0.03333333333333333
			],
			"type":"SCALAR"
		},
		{
			"bufferView":38,
			"componentType":5126,
			"count":2,
			"type":"VEC4"
		},
		{
			"bufferView":39,
			"componentType":5126,
			"count":2,
			"type":"VEC4"
		},
		{
			"bufferView":40,
			"componentType":5126,
			"count":2,
			"max":[
				0.6666666666666666
			],
			"min":[
				0.03333333333333333
			],
			"type":"SCALAR"
		},
		{
			"bufferView":41,
			"componentType":5126,
			"count":20,
			"max":[
				0.6666666666666666
			],
			"min":[
				0.03333333333333333
			],
			"type":"SCALAR"
		},
		{
			"bufferView":42,
			"componentType":5126,
			"count":20,
			"type":"VEC3"
		},
		{
			"bufferView":43,
			"componentType":5126,
			"count":20,
			"type":"VEC4"
		},
		{
			"bufferView":44,
			"componentType":5126,
			"count":20,
			"type":"VEC4"
		},
		{
			"bufferView":45,
			"componentType":5126,
			"count":2,
			"type":"VEC3"
		},
		{
			"bufferView":46,
			"componentType":5126,
			"count":2,
			"type":"VEC4"
		},
		{
			"bufferView":47,
			"componentType":5126,
			"count":2,
			"type":"VEC3"
		}
	],
	"bufferViews":[
		{
			"buffer":0,
			"byteLength":864,
			"byteOffset":0,
			"target":34962
		},
		{
			"buffer":0,
			"byteLength":864,
			"byteOffset":864,
			"target":34962
		},
		{
			"buffer":0,
			"byteLength":576,
			"byteOffset":1728,
			"target":34962
		},
		{
			"buffer":0,
			"byteLength":288,
			"byteOffset":2304,
			"target":34962
		},
		{
			"buffer":0,
			"byteLength":1152,
			"byteOffset":2592,
			"target":34962
		},
		{
			"buffer":0,
			"byteLength":240,
			"byteOffset":3744,
			"target":34963
		},
		{
			"buffer":0,
			"byteLength":20160,
			"byteOffset":3984,
			"target":34962
		},
		{
			"buffer":0,
			"byteLength":20160,
			"byteOffset":24144,
			"target":34962
		},
		{
			"buffer":0,
			"byteLength":13440,
			"byteOffset":44304,
			"target":34962
		},
		{
			"buffer":0,
			"byteLength":6720,
			"byteOffset":57744,
			"target":34962
		},
		{
			"buffer":0,
			"byteLength":26880,
			"byteOffset":64464,
			"target":34962
		},
		{
			"buffer":0,
			"byteLength":8328,
			"byteOffset":91344,
			"target":34963
		},
		{
			"buffer":0,
			"byteLength":192,
			"byteOffset":99672
		},
		{
			"buffer":0,
			"byteLength":4572,
			"byteOffset":99864,
			"target":34962
		},
		{
			"buffer":0,
			"byteLength":4572,
			"byteOffset":104436,
			"target":34962
		},
		{
			"buffer":0,
			"byteLength":3048,
			"byteOffset":109008,
			"target":34962
		},
		{
			"buffer":0,
			"byteLength":1524,
			"byteOffset":112056,
			"target":34962
		},
		{
			"buffer":0,
			"byteLength":6096,
			"byteOffset":113580,
			"target":34962
		},
		{
			"buffer":0,
			"byteLength":1968,
			"byteOffset":119676,
			"target":34963
		},
		{
			"buffer":0,
			"byteLength":12612,
			"byteOffset":121644,
			"target":34962
		},
		{
			"buffer":0,
			"byteLength":12612,
			"byteOffset":134256,
			"target":34962
		},
		{
			"buffer":0,
			"byteLength":8408,
			"byteOffset":146868,
			"target":34962
		},
		{
			"buffer":0,
			"byteLength":4204,
			"byteOffset":155276,
			"target":34962
		},
		{
			"buffer":0,
			"byteLength":16816,
			"byteOffset":159480,
			"target":34962
		},
		{
			"buffer":0,
			"byteLength":4740,
			"byteOffset":176296,
			"target":34963
		},
		{
			"buffer":0,
			"byteLength":8,
			"byteOffset":181036
		},
		{
			"buffer":0,
			"byteLength":24,
			"byteOffset":181044
		},
		{
			"buffer":0,
			"byteLength":32,
			"byteOffset":181068
		},
		{
			"buffer":0,
			"byteLength":24,
			"byteOffset":181100
		},
		{
			"buffer":0,
			"byteLength":60,
			"byteOffset":181124
		},
		{
			"buffer":0,
			"byteLength":180,
			"byteOffset":181184
		},
		{
			"buffer":0,
			"byteLength":240,
			"byteOffset":181364
		},
		{
			"buffer":0,
			"byteLength":24,
			"byteOffset":181604
		},
		{
			"buffer":0,
			"byteLength":240,
			"byteOffset":181628
		},
		{
			"buffer":0,
			"byteLength":24,
			"byteOffset":181868
		},
		{
			"buffer":0,
			"byteLength":24,
			"byteOffset":181892
		},
		{
			"buffer":0,
			"byteLength":32,
			"byteOffset":181916
		},
		{
			"buffer":0,
			"byteLength":8,
			"byteOffset":181948
		},
		{
			"buffer":0,
			"byteLength":32,
			"byteOffset":181956
		},
		{
			"buffer":0,
			"byteLength":32,
			"byteOffset":181988
		},
		{
			"buffer":0,
			"byteLength":8,
			"byteOffset":182020
		},
		{
			"buffer":0,
			"byteLength":80,
			"byteOffset":182028
		},
		{
			"buffer":0,
			"byteLength":240,
			"byteOffset":182108
		},
		{
			"buffer":0,
			"byteLength":320,
			"byteOffset":182348
		},
		{
			"buffer":0,
			"byteLength":320,
			"byteOffset":182668
		},
		{
			"buffer":0,
			"byteLength":24,
			"byteOffset":182988
		},
		{
			"buffer":0,
			"byteLength":32,
			"byteOffset":183012
		},
		{
			"buffer":0,
			"byteLength":24,
			"byteOffset":183044
		}
	],
	"samplers":[
		{
			"magFilter":9729,
			"minFilter":9987
		}
	],
	"buffers":[
		{
			"byteLength":183068,
			"uri":"chest_wood.bin"
		}
	]
}
