{
	"asset":{
		"generator":"Khronos glTF Blender I/O v5.1.20",
		"version":"2.0"
	},
	"scene":0,
	"scenes":[
		{
			"name":"Scene",
			"nodes":[
				1
			]
		}
	],
	"nodes":[
		{
			"mesh":0,
			"name":"Coin_Pile_2"
		},
		{
			"children":[
				0
			],
			"name":"coin_pile_2"
		}
	],
	"materials":[
		{
			"doubleSided":true,
			"name":"MI_Trim_Metal_Vertex",
			"pbrMetallicRoughness":{
				"baseColorTexture":{
					"index":0
				},
				"metallicFactor":0,
				"roughnessFactor":0.8727272748947144
			}
		}
	],
	"meshes":[
		{
			"name":"Cylinder.085",
			"primitives":[
				{
					"attributes":{
						"POSITION":0,
						"NORMAL":1,
						"TEXCOORD_0":2,
						"COLOR_0":3,
						"COLOR_1":4
					},
					"indices":5,
					"material":0
				}
			]
		}
	],
	"textures":[
		{
			"sampler":0,
			"source":0
		}
	],
	"images":[
		{
			"mimeType":"image/png",
			"name":"T_Trim_Metal_BaseColor.png",
			"uri":"../textures/T_Trim_Metal_BaseColor.png"
		}
	],
	"accessors":[
		{
			"bufferView":0,
			"componentType":5126,
			"count":1156,
			"max":[
				0.10890618711709976,
				0.05870247259736061,
				0.10301289707422256
			],
			"min":[
				-0.16981934010982513,
				0.0002548198390286416,
				-0.09714920818805695
			],
			"type":"VEC3"
		},
		{
			"bufferView":1,
			"componentType":5126,
			"count":1156,
			"type":"VEC3"
		},
		{
			"bufferView":2,
			"componentType":5126,
			"count":1156,
			"type":"VEC2"
		},
		{
			"bufferView":3,
			"componentType":5121,
			"count":1156,
			"normalized":true,
			"type":"VEC4"
		},
		{
			"bufferView":4,
			"componentType":5123,
			"count":1156,
			"normalized":true,
			"type":"VEC4"
		},
		{
			"bufferView":5,
			"componentType":5123,
			"count":3186,
			"type":"SCALAR"
		}
	],
	"bufferViews":[
		{
			"buffer":0,
			"byteLength":13872,
			"byteOffset":0,
			"target":34962
		},
		{
			"buffer":0,
			"byteLength":13872,
			"byteOffset":13872,
			"target":34962
		},
		{
			"buffer":0,
			"byteLength":9248,
			"byteOffset":27744,
			"target":34962
		},
		{
			"buffer":0,
			"byteLength":4624,
			"byteOffset":36992,
			"target":34962
		},
		{
			"buffer":0,
			"byteLength":9248,
			"byteOffset":41616,
			"target":34962
		},
		{
			"buffer":0,
			"byteLength":6372,
			"byteOffset":50864,
			"target":34963
		}
	],
	"samplers":[
		{
			"magFilter":9729,
			"minFilter":9987
		}
	],
	"buffers":[
		{
			"byteLength":57236,
			"uri":"coin_pile_2.bin"
		}
	]
}
