{
	"asset":{
		"generator":"Khronos glTF Blender I/O v5.1.20",
		"version":"2.0"
	},
	"scene":0,
	"scenes":[
		{
			"name":"Scene",
			"nodes":[
				1
			]
		}
	],
	"nodes":[
		{
			"mesh":0,
			"name":"Crate_Metal"
		},
		{
			"children":[
				0
			],
			"name":"crate_metal"
		}
	],
	"materials":[
		{
			"doubleSided":true,
			"name":"MI_Trim_Furniture",
			"normalTexture":{
				"index":0
			},
			"pbrMetallicRoughness":{
				"baseColorTexture":{
					"index":1
				},
				"metallicFactor":0,
				"roughnessFactor":0.8727272748947144
			}
		},
		{
			"doubleSided":true,
			"name":"MI_Trim_Metal",
			"normalTexture":{
				"index":2
			},
			"pbrMetallicRoughness":{
				"baseColorTexture":{
					"index":3
				},
				"metallicFactor":0,
				"roughnessFactor":0.8727272748947144
			}
		}
	],
	"meshes":[
		{
			"name":"Cube.035",
			"primitives":[
				{
					"attributes":{
						"POSITION":0,
						"NORMAL":1,
						"TEXCOORD_0":2,
						"COLOR_0":3,
						"COLOR_1":4
					},
					"indices":5,
					"material":0
				},
				{
					"attributes":{
						"POSITION":6,
						"NORMAL":7,
						"TEXCOORD_0":8,
						"COLOR_0":9,
						"COLOR_1":10
					},
					"indices":11,
					"material":1
				}
			]
		}
	],
	"textures":[
		{
			"sampler":0,
			"source":0
		},
		{
			"sampler":0,
			"source":1
		},
		{
			"sampler":0,
			"source":2
		},
		{
			"sampler":0,
			"source":3
		}
	],
	"images":[
		{
			"mimeType":"image/png",
			"name":"T_Trim_Furniture_Normal.png",
			"uri":"../textures/T_Trim_Furniture_Normal.png"
		},
		{
			"mimeType":"image/png",
			"name":"T_Trim_Furniture_BaseColor.png",
			"uri":"../textures/T_Trim_Furniture_BaseColor.png"
		},
		{
			"mimeType":"image/png",
			"name":"T_Trim_Metal_Normal.png",
			"uri":"../textures/T_Trim_Metal_Normal.png"
		},
		{
			"mimeType":"image/png",
			"name":"T_Trim_Metal_BaseColor.png",
			"uri":"../textures/T_Trim_Metal_BaseColor.png"
		}
	],
	"accessors":[
		{
			"bufferView":0,
			"componentType":5126,
			"count":248,
			"max":[
				0.40082406997680664,
				0.847319483757019,
				0.40082406997680664
			],
			"min":[
				-0.40082406997680664,
				0.025826482102274895,
				-0.40082406997680664
			],
			"type":"VEC3"
		},
		{
			"bufferView":1,
			"componentType":5126,
			"count":248,
			"type":"VEC3"
		},
		{
			"bufferView":2,
			"componentType":5126,
			"count":248,
			"type":"VEC2"
		},
		{
			"bufferView":3,
			"componentType":5121,
			"count":248,
			"normalized":true,
			"type":"VEC4"
		},
		{
			"bufferView":4,
			"componentType":5123,
			"count":248,
			"normalized":true,
			"type":"VEC4"
		},
		{
			"bufferView":5,
			"componentType":5123,
			"count":372,
			"type":"SCALAR"
		},
		{
			"bufferView":6,
			"componentType":5126,
			"count":2512,
			"max":[
				0.43194907903671265,
				0.8705162405967712,
				0.43296074867248535
			],
			"min":[
				-0.43194907903671265,
				0.002629682421684265,
				-0.43296074867248535
			],
			"type":"VEC3"
		},
		{
			"bufferView":7,
			"componentType":5126,
			"count":2512,
			"type":"VEC3"
		},
		{
			"bufferView":8,
			"componentType":5126,
			"count":2512,
			"type":"VEC2"
		},
		{
			"bufferView":9,
			"componentType":5121,
			"count":2512,
			"normalized":true,
			"type":"VEC4"
		},
		{
			"bufferView":10,
			"componentType":5123,
			"count":2512,
			"normalized":true,
			"type":"VEC4"
		},
		{
			"bufferView":11,
			"componentType":5123,
			"count":7842,
			"type":"SCALAR"
		}
	],
	"bufferViews":[
		{
			"buffer":0,
			"byteLength":2976,
			"byteOffset":0,
			"target":34962
		},
		{
			"buffer":0,
			"byteLength":2976,
			"byteOffset":2976,
			"target":34962
		},
		{
			"buffer":0,
			"byteLength":1984,
			"byteOffset":5952,
			"target":34962
		},
		{
			"buffer":0,
			"byteLength":992,
			"byteOffset":7936,
			"target":34962
		},
		{
			"buffer":0,
			"byteLength":1984,
			"byteOffset":8928,
			"target":34962
		},
		{
			"buffer":0,
			"byteLength":744,
			"byteOffset":10912,
			"target":34963
		},
		{
			"buffer":0,
			"byteLength":30144,
			"byteOffset":11656,
			"target":34962
		},
		{
			"buffer":0,
			"byteLength":30144,
			"byteOffset":41800,
			"target":34962
		},
		{
			"buffer":0,
			"byteLength":20096,
			"byteOffset":71944,
			"target":34962
		},
		{
			"buffer":0,
			"byteLength":10048,
			"byteOffset":92040,
			"target":34962
		},
		{
			"buffer":0,
			"byteLength":20096,
			"byteOffset":102088,
			"target":34962
		},
		{
			"buffer":0,
			"byteLength":15684,
			"byteOffset":122184,
			"target":34963
		}
	],
	"samplers":[
		{
			"magFilter":9729,
			"minFilter":9987
		}
	],
	"buffers":[
		{
			"byteLength":137868,
			"uri":"crate_metal.bin"
		}
	]
}
