{
	"asset":{
		"generator":"Khronos glTF Blender I/O v5.1.20",
		"version":"2.0"
	},
	"scene":0,
	"scenes":[
		{
			"name":"Scene",
			"nodes":[
				1
			]
		}
	],
	"nodes":[
		{
			"mesh":0,
			"name":"Dummy"
		},
		{
			"children":[
				0
			],
			"name":"dummy"
		}
	],
	"materials":[
		{
			"doubleSided":true,
			"name":"MI_Trim_Furniture",
			"normalTexture":{
				"index":0
			},
			"pbrMetallicRoughness":{
				"baseColorTexture":{
					"index":1
				},
				"metallicFactor":0,
				"roughnessFactor":0.8727272748947144
			}
		},
		{
			"doubleSided":true,
			"name":"MI_Trim_Metal",
			"normalTexture":{
				"index":2
			},
			"pbrMetallicRoughness":{
				"baseColorTexture":{
					"index":3
				},
				"metallicFactor":0,
				"roughnessFactor":0.8727272748947144
			}
		},
		{
			"doubleSided":true,
			"name":"MI_Trim_Cloth",
			"normalTexture":{
				"index":4
			},
			"pbrMetallicRoughness":{
				"baseColorTexture":{
					"index":5
				},
				"metallicFactor":0,
				"roughnessFactor":0.5
			}
		}
	],
	"meshes":[
		{
			"name":"Cube.223",
			"primitives":[
				{
					"attributes":{
						"POSITION":0,
						"NORMAL":1,
						"TEXCOORD_0":2,
						"COLOR_0":3,
						"COLOR_1":4
					},
					"indices":5,
					"material":0
				},
				{
					"attributes":{
						"POSITION":6,
						"NORMAL":7,
						"TEXCOORD_0":8,
						"COLOR_0":9,
						"COLOR_1":10
					},
					"indices":11,
					"material":1
				},
				{
					"attributes":{
						"POSITION":12,
						"NORMAL":13,
						"TEXCOORD_0":14,
						"COLOR_0":15,
						"COLOR_1":16
					},
					"indices":17,
					"material":2
				}
			]
		}
	],
	"textures":[
		{
			"sampler":0,
			"source":0
		},
		{
			"sampler":0,
			"source":1
		},
		{
			"sampler":0,
			"source":2
		},
		{
			"sampler":0,
			"source":3
		},
		{
			"sampler":0,
			"source":4
		},
		{
			"sampler":0,
			"source":5
		}
	],
	"images":[
		{
			"mimeType":"image/png",
			"name":"T_Trim_Furniture_Normal.png",
			"uri":"../textures/T_Trim_Furniture_Normal.png"
		},
		{
			"mimeType":"image/png",
			"name":"T_Trim_Furniture_BaseColor.png",
			"uri":"../textures/T_Trim_Furniture_BaseColor.png"
		},
		{
			"mimeType":"image/png",
			"name":"T_Trim_Metal_Normal.png",
			"uri":"../textures/T_Trim_Metal_Normal.png"
		},
		{
			"mimeType":"image/png",
			"name":"T_Trim_Metal_BaseColor.png",
			"uri":"../textures/T_Trim_Metal_BaseColor.png"
		},
		{
			"mimeType":"image/png",
			"name":"T_Trim_Cloth_Normal.png",
			"uri":"../textures/T_Trim_Cloth_Normal.png"
		},
		{
			"mimeType":"image/png",
			"name":"T_Trim_Cloth_BaseColor.png",
			"uri":"../textures/T_Trim_Cloth_BaseColor.png"
		}
	],
	"accessors":[
		{
			"bufferView":0,
			"componentType":5126,
			"count":924,
			"max":[
				0.2925231158733368,
				1.6169136762619019,
				0.2925231158733368
			],
			"min":[
				-0.2920801341533661,
				-0.002887953072786331,
				-0.2920801341533661
			],
			"type":"VEC3"
		},
		{
			"bufferView":1,
			"componentType":5126,
			"count":924,
			"type":"VEC3"
		},
		{
			"bufferView":2,
			"componentType":5126,
			"count":924,
			"type":"VEC2"
		},
		{
			"bufferView":3,
			"componentType":5121,
			"count":924,
			"normalized":true,
			"type":"VEC4"
		},
		{
			"bufferView":4,
			"componentType":5123,
			"count":924,
			"normalized":true,
			"type":"VEC4"
		},
		{
			"bufferView":5,
			"componentType":5123,
			"count":3702,
			"type":"SCALAR"
		},
		{
			"bufferView":6,
			"componentType":5126,
			"count":128,
			"max":[
				0.22404655814170837,
				0.24871774017810822,
				0.22404655814170837
			],
			"min":[
				-0.22404655814170837,
				0.061605341732501984,
				-0.22404655814170837
			],
			"type":"VEC3"
		},
		{
			"bufferView":7,
			"componentType":5126,
			"count":128,
			"type":"VEC3"
		},
		{
			"bufferView":8,
			"componentType":5126,
			"count":128,
			"type":"VEC2"
		},
		{
			"bufferView":9,
			"componentType":5121,
			"count":128,
			"normalized":true,
			"type":"VEC4"
		},
		{
			"bufferView":10,
			"componentType":5123,
			"count":128,
			"normalized":true,
			"type":"VEC4"
		},
		{
			"bufferView":11,
			"componentType":5123,
			"count":528,
			"type":"SCALAR"
		},
		{
			"bufferView":12,
			"componentType":5126,
			"count":943,
			"max":[
				0.4044542610645294,
				1.8597913980484009,
				0.17893469333648682
			],
			"min":[
				-0.4040466845035553,
				0.8079881072044373,
				-0.17773109674453735
			],
			"type":"VEC3"
		},
		{
			"bufferView":13,
			"componentType":5126,
			"count":943,
			"type":"VEC3"
		},
		{
			"bufferView":14,
			"componentType":5126,
			"count":943,
			"type":"VEC2"
		},
		{
			"bufferView":15,
			"componentType":5121,
			"count":943,
			"normalized":true,
			"type":"VEC4"
		},
		{
			"bufferView":16,
			"componentType":5123,
			"count":943,
			"normalized":true,
			"type":"VEC4"
		},
		{
			"bufferView":17,
			"componentType":5123,
			"count":4344,
			"type":"SCALAR"
		}
	],
	"bufferViews":[
		{
			"buffer":0,
			"byteLength":11088,
			"byteOffset":0,
			"target":34962
		},
		{
			"buffer":0,
			"byteLength":11088,
			"byteOffset":11088,
			"target":34962
		},
		{
			"buffer":0,
			"byteLength":7392,
			"byteOffset":22176,
			"target":34962
		},
		{
			"buffer":0,
			"byteLength":3696,
			"byteOffset":29568,
			"target":34962
		},
		{
			"buffer":0,
			"byteLength":7392,
			"byteOffset":33264,
			"target":34962
		},
		{
			"buffer":0,
			"byteLength":7404,
			"byteOffset":40656,
			"target":34963
		},
		{
			"buffer":0,
			"byteLength":1536,
			"byteOffset":48060,
			"target":34962
		},
		{
			"buffer":0,
			"byteLength":1536,
			"byteOffset":49596,
			"target":34962
		},
		{
			"buffer":0,
			"byteLength":1024,
			"byteOffset":51132,
			"target":34962
		},
		{
			"buffer":0,
			"byteLength":512,
			"byteOffset":52156,
			"target":34962
		},
		{
			"buffer":0,
			"byteLength":1024,
			"byteOffset":52668,
			"target":34962
		},
		{
			"buffer":0,
			"byteLength":1056,
			"byteOffset":53692,
			"target":34963
		},
		{
			"buffer":0,
			"byteLength":11316,
			"byteOffset":54748,
			"target":34962
		},
		{
			"buffer":0,
			"byteLength":11316,
			"byteOffset":66064,
			"target":34962
		},
		{
			"buffer":0,
			"byteLength":7544,
			"byteOffset":77380,
			"target":34962
		},
		{
			"buffer":0,
			"byteLength":3772,
			"byteOffset":84924,
			"target":34962
		},
		{
			"buffer":0,
			"byteLength":7544,
			"byteOffset":88696,
			"target":34962
		},
		{
			"buffer":0,
			"byteLength":8688,
			"byteOffset":96240,
			"target":34963
		}
	],
	"samplers":[
		{
			"magFilter":9729,
			"minFilter":9987
		}
	],
	"buffers":[
		{
			"byteLength":104928,
			"uri":"dummy.bin"
		}
	]
}
