{
	"asset":{
		"generator":"Khronos glTF Blender I/O v5.1.20",
		"version":"2.0"
	},
	"scene":0,
	"scenes":[
		{
			"name":"Scene",
			"nodes":[
				1
			]
		}
	],
	"nodes":[
		{
			"mesh":0,
			"name":"FarmCrate_Carrot"
		},
		{
			"children":[
				0
			],
			"name":"farm_crate_carrot"
		}
	],
	"materials":[
		{
			"doubleSided":true,
			"name":"MI_Trim_Props_Vertex",
			"normalTexture":{
				"index":0
			},
			"pbrMetallicRoughness":{
				"baseColorTexture":{
					"index":1
				},
				"metallicFactor":0,
				"roughnessFactor":0.8727272748947144
			}
		},
		{
			"doubleSided":true,
			"name":"MI_Trim_Furniture",
			"normalTexture":{
				"index":2
			},
			"pbrMetallicRoughness":{
				"baseColorTexture":{
					"index":3
				},
				"metallicFactor":0,
				"roughnessFactor":0.8727272748947144
			}
		},
		{
			"doubleSided":true,
			"name":"MI_Trim_Metal",
			"normalTexture":{
				"index":4
			},
			"pbrMetallicRoughness":{
				"baseColorTexture":{
					"index":5
				},
				"metallicFactor":0,
				"roughnessFactor":0.8727272748947144
			}
		}
	],
	"meshes":[
		{
			"name":"Cylinder.018",
			"primitives":[
				{
					"attributes":{
						"POSITION":0,
						"NORMAL":1,
						"TEXCOORD_0":2,
						"COLOR_0":3,
						"COLOR_1":4
					},
					"indices":5,
					"material":0
				},
				{
					"attributes":{
						"POSITION":6,
						"NORMAL":7,
						"TEXCOORD_0":8,
						"COLOR_0":9,
						"COLOR_1":10
					},
					"indices":11,
					"material":1
				},
				{
					"attributes":{
						"POSITION":12,
						"NORMAL":13,
						"TEXCOORD_0":14,
						"COLOR_0":15,
						"COLOR_1":16
					},
					"indices":17,
					"material":2
				}
			]
		}
	],
	"textures":[
		{
			"sampler":0,
			"source":0
		},
		{
			"sampler":0,
			"source":1
		},
		{
			"sampler":0,
			"source":2
		},
		{
			"sampler":0,
			"source":3
		},
		{
			"sampler":0,
			"source":4
		},
		{
			"sampler":0,
			"source":5
		}
	],
	"images":[
		{
			"mimeType":"image/png",
			"name":"T_Trim_Props_Normal.png",
			"uri":"../textures/T_Trim_Props_Normal.png"
		},
		{
			"mimeType":"image/png",
			"name":"T_Trim_Props_BaseColor.png",
			"uri":"../textures/T_Trim_Props_BaseColor.png"
		},
		{
			"mimeType":"image/png",
			"name":"T_Trim_Furniture_Normal.png",
			"uri":"../textures/T_Trim_Furniture_Normal.png"
		},
		{
			"mimeType":"image/png",
			"name":"T_Trim_Furniture_BaseColor.png",
			"uri":"../textures/T_Trim_Furniture_BaseColor.png"
		},
		{
			"mimeType":"image/png",
			"name":"T_Trim_Metal_Normal.png",
			"uri":"../textures/T_Trim_Metal_Normal.png"
		},
		{
			"mimeType":"image/png",
			"name":"T_Trim_Metal_BaseColor.png",
			"uri":"../textures/T_Trim_Metal_BaseColor.png"
		}
	],
	"accessors":[
		{
			"bufferView":0,
			"componentType":5126,
			"count":3474,
			"max":[
				0.3203352093696594,
				0.39533743262290955,
				0.19160284101963043
			],
			"min":[
				-0.34520721435546875,
				0.15995095670223236,
				-0.3599160313606262
			],
			"type":"VEC3"
		},
		{
			"bufferView":1,
			"componentType":5126,
			"count":3474,
			"type":"VEC3"
		},
		{
			"bufferView":2,
			"componentType":5126,
			"count":3474,
			"type":"VEC2"
		},
		{
			"bufferView":3,
			"componentType":5121,
			"count":3474,
			"normalized":true,
			"type":"VEC4"
		},
		{
			"bufferView":4,
			"componentType":5123,
			"count":3474,
			"normalized":true,
			"type":"VEC4"
		},
		{
			"bufferView":5,
			"componentType":5123,
			"count":12810,
			"type":"SCALAR"
		},
		{
			"bufferView":6,
			"componentType":5126,
			"count":556,
			"max":[
				0.35689881443977356,
				0.2277919203042984,
				0.198461651802063
			],
			"min":[
				-0.35689881443977356,
				-0.01598544418811798,
				-0.19846166670322418
			],
			"type":"VEC3"
		},
		{
			"bufferView":7,
			"componentType":5126,
			"count":556,
			"type":"VEC3"
		},
		{
			"bufferView":8,
			"componentType":5126,
			"count":556,
			"type":"VEC2"
		},
		{
			"bufferView":9,
			"componentType":5121,
			"count":556,
			"normalized":true,
			"type":"VEC4"
		},
		{
			"bufferView":10,
			"componentType":5123,
			"count":556,
			"normalized":true,
			"type":"VEC4"
		},
		{
			"bufferView":11,
			"componentType":5123,
			"count":1608,
			"type":"SCALAR"
		},
		{
			"bufferView":12,
			"componentType":5126,
			"count":288,
			"max":[
				0.28873270750045776,
				0.20590126514434814,
				0.20708000659942627
			],
			"min":[
				-0.29124000668525696,
				0.01727546937763691,
				-0.20708005130290985
			],
			"type":"VEC3"
		},
		{
			"bufferView":13,
			"componentType":5126,
			"count":288,
			"type":"VEC3"
		},
		{
			"bufferView":14,
			"componentType":5126,
			"count":288,
			"type":"VEC2"
		},
		{
			"bufferView":15,
			"componentType":5121,
			"count":288,
			"normalized":true,
			"type":"VEC4"
		},
		{
			"bufferView":16,
			"componentType":5123,
			"count":288,
			"normalized":true,
			"type":"VEC4"
		},
		{
			"bufferView":17,
			"componentType":5123,
			"count":1368,
			"type":"SCALAR"
		}
	],
	"bufferViews":[
		{
			"buffer":0,
			"byteLength":41688,
			"byteOffset":0,
			"target":34962
		},
		{
			"buffer":0,
			"byteLength":41688,
			"byteOffset":41688,
			"target":34962
		},
		{
			"buffer":0,
			"byteLength":27792,
			"byteOffset":83376,
			"target":34962
		},
		{
			"buffer":0,
			"byteLength":13896,
			"byteOffset":111168,
			"target":34962
		},
		{
			"buffer":0,
			"byteLength":27792,
			"byteOffset":125064,
			"target":34962
		},
		{
			"buffer":0,
			"byteLength":25620,
			"byteOffset":152856,
			"target":34963
		},
		{
			"buffer":0,
			"byteLength":6672,
			"byteOffset":178476,
			"target":34962
		},
		{
			"buffer":0,
			"byteLength":6672,
			"byteOffset":185148,
			"target":34962
		},
		{
			"buffer":0,
			"byteLength":4448,
			"byteOffset":191820,
			"target":34962
		},
		{
			"buffer":0,
			"byteLength":2224,
			"byteOffset":196268,
			"target":34962
		},
		{
			"buffer":0,
			"byteLength":4448,
			"byteOffset":198492,
			"target":34962
		},
		{
			"buffer":0,
			"byteLength":3216,
			"byteOffset":202940,
			"target":34963
		},
		{
			"buffer":0,
			"byteLength":3456,
			"byteOffset":206156,
			"target":34962
		},
		{
			"buffer":0,
			"byteLength":3456,
			"byteOffset":209612,
			"target":34962
		},
		{
			"buffer":0,
			"byteLength":2304,
			"byteOffset":213068,
			"target":34962
		},
		{
			"buffer":0,
			"byteLength":1152,
			"byteOffset":215372,
			"target":34962
		},
		{
			"buffer":0,
			"byteLength":2304,
			"byteOffset":216524,
			"target":34962
		},
		{
			"buffer":0,
			"byteLength":2736,
			"byteOffset":218828,
			"target":34963
		}
	],
	"samplers":[
		{
			"magFilter":9729,
			"minFilter":9987
		}
	],
	"buffers":[
		{
			"byteLength":221564,
			"uri":"farm_crate_carrot.bin"
		}
	]
}
