{
	"asset":{
		"generator":"Khronos glTF Blender I/O v5.1.20",
		"version":"2.0"
	},
	"scene":0,
	"scenes":[
		{
			"name":"Scene",
			"nodes":[
				1
			]
		}
	],
	"nodes":[
		{
			"mesh":0,
			"name":"Potion_1"
		},
		{
			"children":[
				0
			],
			"name":"potion_1"
		}
	],
	"materials":[
		{
			"doubleSided":true,
			"name":"MI_Trim_Props_Vertex",
			"normalTexture":{
				"index":0
			},
			"pbrMetallicRoughness":{
				"baseColorTexture":{
					"index":1
				},
				"metallicFactor":0,
				"roughnessFactor":0.8727272748947144
			}
		}
	],
	"meshes":[
		{
			"name":"Cylinder.049",
			"primitives":[
				{
					"attributes":{
						"POSITION":0,
						"NORMAL":1,
						"TEXCOORD_0":2,
						"COLOR_0":3,
						"COLOR_1":4
					},
					"indices":5,
					"material":0
				}
			]
		}
	],
	"textures":[
		{
			"sampler":0,
			"source":0
		},
		{
			"sampler":0,
			"source":1
		}
	],
	"images":[
		{
			"mimeType":"image/png",
			"name":"T_Trim_Props_Normal.png",
			"uri":"../textures/T_Trim_Props_Normal.png"
		},
		{
			"mimeType":"image/png",
			"name":"T_Trim_Props_BaseColor.png",
			"uri":"../textures/T_Trim_Props_BaseColor.png"
		}
	],
	"accessors":[
		{
			"bufferView":0,
			"componentType":5126,
			"count":389,
			"max":[
				0.05693448707461357,
				0.13998661935329437,
				0.05693448707461357
			],
			"min":[
				-0.05693448707461357,
				-0.00039556194678880274,
				-0.05693448707461357
			],
			"type":"VEC3"
		},
		{
			"bufferView":1,
			"componentType":5126,
			"count":389,
			"type":"VEC3"
		},
		{
			"bufferView":2,
			"componentType":5126,
			"count":389,
			"type":"VEC2"
		},
		{
			"bufferView":3,
			"componentType":5121,
			"count":389,
			"normalized":true,
			"type":"VEC4"
		},
		{
			"bufferView":4,
			"componentType":5123,
			"count":389,
			"normalized":true,
			"type":"VEC4"
		},
		{
			"bufferView":5,
			"componentType":5123,
			"count":1320,
			"type":"SCALAR"
		}
	],
	"bufferViews":[
		{
			"buffer":0,
			"byteLength":4668,
			"byteOffset":0,
			"target":34962
		},
		{
			"buffer":0,
			"byteLength":4668,
			"byteOffset":4668,
			"target":34962
		},
		{
			"buffer":0,
			"byteLength":3112,
			"byteOffset":9336,
			"target":34962
		},
		{
			"buffer":0,
			"byteLength":1556,
			"byteOffset":12448,
			"target":34962
		},
		{
			"buffer":0,
			"byteLength":3112,
			"byteOffset":14004,
			"target":34962
		},
		{
			"buffer":0,
			"byteLength":2640,
			"byteOffset":17116,
			"target":34963
		}
	],
	"samplers":[
		{
			"magFilter":9729,
			"minFilter":9987
		}
	],
	"buffers":[
		{
			"byteLength":19756,
			"uri":"potion_1.bin"
		}
	]
}
