{
	"asset":{
		"generator":"Khronos glTF Blender I/O v5.1.20",
		"version":"2.0"
	},
	"scene":0,
	"scenes":[
		{
			"name":"Scene",
			"nodes":[
				1
			]
		}
	],
	"nodes":[
		{
			"mesh":0,
			"name":"Pouch_Large"
		},
		{
			"children":[
				0
			],
			"name":"pouch_large"
		}
	],
	"materials":[
		{
			"doubleSided":true,
			"name":"MI_Trim_Props_Vertex",
			"normalTexture":{
				"index":0
			},
			"pbrMetallicRoughness":{
				"baseColorTexture":{
					"index":1
				},
				"metallicFactor":0,
				"roughnessFactor":0.8727272748947144
			}
		},
		{
			"doubleSided":true,
			"name":"MI_Trim_Metal",
			"normalTexture":{
				"index":2
			},
			"pbrMetallicRoughness":{
				"baseColorTexture":{
					"index":3
				},
				"metallicFactor":0,
				"roughnessFactor":0.8727272748947144
			}
		}
	],
	"meshes":[
		{
			"name":"Cube.144",
			"primitives":[
				{
					"attributes":{
						"POSITION":0,
						"NORMAL":1,
						"TEXCOORD_0":2,
						"COLOR_0":3,
						"COLOR_1":4
					},
					"indices":5,
					"material":0
				},
				{
					"attributes":{
						"POSITION":6,
						"NORMAL":7,
						"TEXCOORD_0":8,
						"COLOR_0":9,
						"COLOR_1":10
					},
					"indices":11,
					"material":1
				}
			]
		}
	],
	"textures":[
		{
			"sampler":0,
			"source":0
		},
		{
			"sampler":0,
			"source":1
		},
		{
			"sampler":0,
			"source":2
		},
		{
			"sampler":0,
			"source":3
		}
	],
	"images":[
		{
			"mimeType":"image/png",
			"name":"T_Trim_Props_Normal.png",
			"uri":"../textures/T_Trim_Props_Normal.png"
		},
		{
			"mimeType":"image/png",
			"name":"T_Trim_Props_BaseColor.png",
			"uri":"../textures/T_Trim_Props_BaseColor.png"
		},
		{
			"mimeType":"image/png",
			"name":"T_Trim_Metal_Normal.png",
			"uri":"../textures/T_Trim_Metal_Normal.png"
		},
		{
			"mimeType":"image/png",
			"name":"T_Trim_Metal_BaseColor.png",
			"uri":"../textures/T_Trim_Metal_BaseColor.png"
		}
	],
	"accessors":[
		{
			"bufferView":0,
			"componentType":5126,
			"count":454,
			"max":[
				0.1117013618350029,
				0.15981073677539825,
				0.06788310408592224
			],
			"min":[
				-0.11379196494817734,
				0.0007084211683832109,
				-0.04801042750477791
			],
			"type":"VEC3"
		},
		{
			"bufferView":1,
			"componentType":5126,
			"count":454,
			"type":"VEC3"
		},
		{
			"bufferView":2,
			"componentType":5126,
			"count":454,
			"type":"VEC2"
		},
		{
			"bufferView":3,
			"componentType":5121,
			"count":454,
			"normalized":true,
			"type":"VEC4"
		},
		{
			"bufferView":4,
			"componentType":5123,
			"count":454,
			"normalized":true,
			"type":"VEC4"
		},
		{
			"bufferView":5,
			"componentType":5123,
			"count":1542,
			"type":"SCALAR"
		},
		{
			"bufferView":6,
			"componentType":5126,
			"count":226,
			"max":[
				0.0754198506474495,
				0.11255805194377899,
				0.07180917263031006
			],
			"min":[
				-0.07589969784021378,
				0.06666167080402374,
				0.04826852306723595
			],
			"type":"VEC3"
		},
		{
			"bufferView":7,
			"componentType":5126,
			"count":226,
			"type":"VEC3"
		},
		{
			"bufferView":8,
			"componentType":5126,
			"count":226,
			"type":"VEC2"
		},
		{
			"bufferView":9,
			"componentType":5121,
			"count":226,
			"normalized":true,
			"type":"VEC4"
		},
		{
			"bufferView":10,
			"componentType":5123,
			"count":226,
			"normalized":true,
			"type":"VEC4"
		},
		{
			"bufferView":11,
			"componentType":5123,
			"count":648,
			"type":"SCALAR"
		}
	],
	"bufferViews":[
		{
			"buffer":0,
			"byteLength":5448,
			"byteOffset":0,
			"target":34962
		},
		{
			"buffer":0,
			"byteLength":5448,
			"byteOffset":5448,
			"target":34962
		},
		{
			"buffer":0,
			"byteLength":3632,
			"byteOffset":10896,
			"target":34962
		},
		{
			"buffer":0,
			"byteLength":1816,
			"byteOffset":14528,
			"target":34962
		},
		{
			"buffer":0,
			"byteLength":3632,
			"byteOffset":16344,
			"target":34962
		},
		{
			"buffer":0,
			"byteLength":3084,
			"byteOffset":19976,
			"target":34963
		},
		{
			"buffer":0,
			"byteLength":2712,
			"byteOffset":23060,
			"target":34962
		},
		{
			"buffer":0,
			"byteLength":2712,
			"byteOffset":25772,
			"target":34962
		},
		{
			"buffer":0,
			"byteLength":1808,
			"byteOffset":28484,
			"target":34962
		},
		{
			"buffer":0,
			"byteLength":904,
			"byteOffset":30292,
			"target":34962
		},
		{
			"buffer":0,
			"byteLength":1808,
			"byteOffset":31196,
			"target":34962
		},
		{
			"buffer":0,
			"byteLength":1296,
			"byteOffset":33004,
			"target":34963
		}
	],
	"samplers":[
		{
			"magFilter":9729,
			"minFilter":9987
		}
	],
	"buffers":[
		{
			"byteLength":34300,
			"uri":"pouch_large.bin"
		}
	]
}
