{
	"asset":{
		"generator":"Khronos glTF Blender I/O v5.1.20",
		"version":"2.0"
	},
	"scene":0,
	"scenes":[
		{
			"name":"Scene",
			"nodes":[
				1
			]
		}
	],
	"nodes":[
		{
			"mesh":0,
			"name":"Rope_1"
		},
		{
			"children":[
				0
			],
			"name":"rope_1"
		}
	],
	"materials":[
		{
			"doubleSided":true,
			"name":"MI_Trim_Furniture",
			"normalTexture":{
				"index":0
			},
			"pbrMetallicRoughness":{
				"baseColorTexture":{
					"index":1
				},
				"metallicFactor":0,
				"roughnessFactor":0.8727272748947144
			}
		}
	],
	"meshes":[
		{
			"name":"BezierCurve.004",
			"primitives":[
				{
					"attributes":{
						"POSITION":0,
						"NORMAL":1,
						"TEXCOORD_0":2
					},
					"indices":3,
					"material":0
				}
			]
		}
	],
	"textures":[
		{
			"sampler":0,
			"source":0
		},
		{
			"sampler":0,
			"source":1
		}
	],
	"images":[
		{
			"mimeType":"image/png",
			"name":"T_Trim_Furniture_Normal.png",
			"uri":"../textures/T_Trim_Furniture_Normal.png"
		},
		{
			"mimeType":"image/png",
			"name":"T_Trim_Furniture_BaseColor.png",
			"uri":"../textures/T_Trim_Furniture_BaseColor.png"
		}
	],
	"accessors":[
		{
			"bufferView":0,
			"componentType":5126,
			"count":973,
			"max":[
				0.27178487181663513,
				0.07098738104104996,
				0.2745339870452881
			],
			"min":[
				-0.2856038510799408,
				-0.02687135338783264,
				-0.3317700922489166
			],
			"type":"VEC3"
		},
		{
			"bufferView":1,
			"componentType":5126,
			"count":973,
			"type":"VEC3"
		},
		{
			"bufferView":2,
			"componentType":5126,
			"count":973,
			"type":"VEC2"
		},
		{
			"bufferView":3,
			"componentType":5123,
			"count":5244,
			"type":"SCALAR"
		}
	],
	"bufferViews":[
		{
			"buffer":0,
			"byteLength":11676,
			"byteOffset":0,
			"target":34962
		},
		{
			"buffer":0,
			"byteLength":11676,
			"byteOffset":11676,
			"target":34962
		},
		{
			"buffer":0,
			"byteLength":7784,
			"byteOffset":23352,
			"target":34962
		},
		{
			"buffer":0,
			"byteLength":10488,
			"byteOffset":31136,
			"target":34963
		}
	],
	"samplers":[
		{
			"magFilter":9729,
			"minFilter":9987
		}
	],
	"buffers":[
		{
			"byteLength":41624,
			"uri":"rope_1.bin"
		}
	]
}
