{
	"asset":{
		"generator":"Khronos glTF Blender I/O v5.1.20",
		"version":"2.0"
	},
	"scene":0,
	"scenes":[
		{
			"name":"Scene",
			"nodes":[
				1
			]
		}
	],
	"nodes":[
		{
			"mesh":0,
			"name":"Scroll_1"
		},
		{
			"children":[
				0
			],
			"name":"scroll_1"
		}
	],
	"materials":[
		{
			"doubleSided":true,
			"name":"MI_Page_Empty",
			"pbrMetallicRoughness":{
				"baseColorFactor":[
					0.800000011920929,
					0.800000011920929,
					0.800000011920929,
					1
				],
				"metallicFactor":0,
				"roughnessFactor":0.5
			}
		},
		{
			"doubleSided":true,
			"name":"MI_Trim_Props_Vertex",
			"normalTexture":{
				"index":0
			},
			"pbrMetallicRoughness":{
				"baseColorTexture":{
					"index":1
				},
				"metallicFactor":0,
				"roughnessFactor":0.8727272748947144
			}
		}
	],
	"meshes":[
		{
			"name":"Cube.152",
			"primitives":[
				{
					"attributes":{
						"POSITION":0,
						"NORMAL":1,
						"TEXCOORD_0":2,
						"COLOR_0":3,
						"COLOR_1":4
					},
					"indices":5,
					"material":0
				},
				{
					"attributes":{
						"POSITION":6,
						"NORMAL":7,
						"TEXCOORD_0":8,
						"COLOR_0":9,
						"COLOR_1":10
					},
					"indices":11,
					"material":1
				}
			]
		}
	],
	"textures":[
		{
			"sampler":0,
			"source":0
		},
		{
			"sampler":0,
			"source":1
		}
	],
	"images":[
		{
			"mimeType":"image/png",
			"name":"T_Trim_Props_Normal.png",
			"uri":"../textures/T_Trim_Props_Normal.png"
		},
		{
			"mimeType":"image/png",
			"name":"T_Trim_Props_BaseColor.png",
			"uri":"../textures/T_Trim_Props_BaseColor.png"
		}
	],
	"accessors":[
		{
			"bufferView":0,
			"componentType":5126,
			"count":344,
			"max":[
				0.12319763749837875,
				0.05978281795978546,
				0.037676237523555756
			],
			"min":[
				-0.12069449573755264,
				0.0012552384287118912,
				-0.025440212339162827
			],
			"type":"VEC3"
		},
		{
			"bufferView":1,
			"componentType":5126,
			"count":344,
			"type":"VEC3"
		},
		{
			"bufferView":2,
			"componentType":5126,
			"count":344,
			"type":"VEC2"
		},
		{
			"bufferView":3,
			"componentType":5121,
			"count":344,
			"normalized":true,
			"type":"VEC4"
		},
		{
			"bufferView":4,
			"componentType":5123,
			"count":344,
			"normalized":true,
			"type":"VEC4"
		},
		{
			"bufferView":5,
			"componentType":5123,
			"count":1308,
			"type":"SCALAR"
		},
		{
			"bufferView":6,
			"componentType":5126,
			"count":82,
			"max":[
				0.01670416072010994,
				0.05059728026390076,
				0.02792986109852791
			],
			"min":[
				-0.01670416072010994,
				0.0009954404085874557,
				-0.021671976894140244
			],
			"type":"VEC3"
		},
		{
			"bufferView":7,
			"componentType":5126,
			"count":82,
			"type":"VEC3"
		},
		{
			"bufferView":8,
			"componentType":5126,
			"count":82,
			"type":"VEC2"
		},
		{
			"bufferView":9,
			"componentType":5121,
			"count":82,
			"normalized":true,
			"type":"VEC4"
		},
		{
			"bufferView":10,
			"componentType":5123,
			"count":82,
			"normalized":true,
			"type":"VEC4"
		},
		{
			"bufferView":11,
			"componentType":5123,
			"count":228,
			"type":"SCALAR"
		}
	],
	"bufferViews":[
		{
			"buffer":0,
			"byteLength":4128,
			"byteOffset":0,
			"target":34962
		},
		{
			"buffer":0,
			"byteLength":4128,
			"byteOffset":4128,
			"target":34962
		},
		{
			"buffer":0,
			"byteLength":2752,
			"byteOffset":8256,
			"target":34962
		},
		{
			"buffer":0,
			"byteLength":1376,
			"byteOffset":11008,
			"target":34962
		},
		{
			"buffer":0,
			"byteLength":2752,
			"byteOffset":12384,
			"target":34962
		},
		{
			"buffer":0,
			"byteLength":2616,
			"byteOffset":15136,
			"target":34963
		},
		{
			"buffer":0,
			"byteLength":984,
			"byteOffset":17752,
			"target":34962
		},
		{
			"buffer":0,
			"byteLength":984,
			"byteOffset":18736,
			"target":34962
		},
		{
			"buffer":0,
			"byteLength":656,
			"byteOffset":19720,
			"target":34962
		},
		{
			"buffer":0,
			"byteLength":328,
			"byteOffset":20376,
			"target":34962
		},
		{
			"buffer":0,
			"byteLength":656,
			"byteOffset":20704,
			"target":34962
		},
		{
			"buffer":0,
			"byteLength":456,
			"byteOffset":21360,
			"target":34963
		}
	],
	"samplers":[
		{
			"magFilter":9729,
			"minFilter":9987
		}
	],
	"buffers":[
		{
			"byteLength":21816,
			"uri":"scroll_1.bin"
		}
	]
}
