{
	"asset":{
		"generator":"Khronos glTF Blender I/O v5.1.20",
		"version":"2.0"
	},
	"scene":0,
	"scenes":[
		{
			"name":"Scene",
			"nodes":[
				1
			]
		}
	],
	"nodes":[
		{
			"mesh":0,
			"name":"Scroll_2"
		},
		{
			"children":[
				0
			],
			"name":"scroll_2"
		}
	],
	"materials":[
		{
			"doubleSided":true,
			"name":"MI_Page_Empty",
			"pbrMetallicRoughness":{
				"baseColorFactor":[
					0.800000011920929,
					0.800000011920929,
					0.800000011920929,
					1
				],
				"metallicFactor":0,
				"roughnessFactor":0.5
			}
		},
		{
			"doubleSided":true,
			"name":"MI_Trim_Props_Vertex",
			"normalTexture":{
				"index":0
			},
			"pbrMetallicRoughness":{
				"baseColorTexture":{
					"index":1
				},
				"metallicFactor":0,
				"roughnessFactor":0.8727272748947144
			}
		}
	],
	"meshes":[
		{
			"name":"Cube.156",
			"primitives":[
				{
					"attributes":{
						"POSITION":0,
						"NORMAL":1,
						"TEXCOORD_0":2,
						"COLOR_0":3,
						"COLOR_1":4
					},
					"indices":5,
					"material":0
				},
				{
					"attributes":{
						"POSITION":6,
						"NORMAL":7,
						"TEXCOORD_0":8,
						"COLOR_0":9,
						"COLOR_1":10
					},
					"indices":11,
					"material":1
				}
			]
		}
	],
	"textures":[
		{
			"sampler":0,
			"source":0
		},
		{
			"sampler":0,
			"source":1
		}
	],
	"images":[
		{
			"mimeType":"image/png",
			"name":"T_Trim_Props_Normal.png",
			"uri":"../textures/T_Trim_Props_Normal.png"
		},
		{
			"mimeType":"image/png",
			"name":"T_Trim_Props_BaseColor.png",
			"uri":"../textures/T_Trim_Props_BaseColor.png"
		}
	],
	"accessors":[
		{
			"bufferView":0,
			"componentType":5126,
			"count":341,
			"max":[
				0.12022127211093903,
				0.059123024344444275,
				0.03823823481798172
			],
			"min":[
				-0.11272069811820984,
				0.0008520148694515228,
				-0.025440212339162827
			],
			"type":"VEC3"
		},
		{
			"bufferView":1,
			"componentType":5126,
			"count":341,
			"type":"VEC3"
		},
		{
			"bufferView":2,
			"componentType":5126,
			"count":341,
			"type":"VEC2"
		},
		{
			"bufferView":3,
			"componentType":5121,
			"count":341,
			"normalized":true,
			"type":"VEC4"
		},
		{
			"bufferView":4,
			"componentType":5123,
			"count":341,
			"normalized":true,
			"type":"VEC4"
		},
		{
			"bufferView":5,
			"componentType":5123,
			"count":1308,
			"type":"SCALAR"
		},
		{
			"bufferView":6,
			"componentType":5126,
			"count":268,
			"max":[
				0.017295602709054947,
				0.051771700382232666,
				0.028807982802391052
			],
			"min":[
				-0.017295602709054947,
				0.00041361525654792786,
				-0.022550098598003387
			],
			"type":"VEC3"
		},
		{
			"bufferView":7,
			"componentType":5126,
			"count":268,
			"type":"VEC3"
		},
		{
			"bufferView":8,
			"componentType":5126,
			"count":268,
			"type":"VEC2"
		},
		{
			"bufferView":9,
			"componentType":5121,
			"count":268,
			"normalized":true,
			"type":"VEC4"
		},
		{
			"bufferView":10,
			"componentType":5123,
			"count":268,
			"normalized":true,
			"type":"VEC4"
		},
		{
			"bufferView":11,
			"componentType":5123,
			"count":708,
			"type":"SCALAR"
		}
	],
	"bufferViews":[
		{
			"buffer":0,
			"byteLength":4092,
			"byteOffset":0,
			"target":34962
		},
		{
			"buffer":0,
			"byteLength":4092,
			"byteOffset":4092,
			"target":34962
		},
		{
			"buffer":0,
			"byteLength":2728,
			"byteOffset":8184,
			"target":34962
		},
		{
			"buffer":0,
			"byteLength":1364,
			"byteOffset":10912,
			"target":34962
		},
		{
			"buffer":0,
			"byteLength":2728,
			"byteOffset":12276,
			"target":34962
		},
		{
			"buffer":0,
			"byteLength":2616,
			"byteOffset":15004,
			"target":34963
		},
		{
			"buffer":0,
			"byteLength":3216,
			"byteOffset":17620,
			"target":34962
		},
		{
			"buffer":0,
			"byteLength":3216,
			"byteOffset":20836,
			"target":34962
		},
		{
			"buffer":0,
			"byteLength":2144,
			"byteOffset":24052,
			"target":34962
		},
		{
			"buffer":0,
			"byteLength":1072,
			"byteOffset":26196,
			"target":34962
		},
		{
			"buffer":0,
			"byteLength":2144,
			"byteOffset":27268,
			"target":34962
		},
		{
			"buffer":0,
			"byteLength":1416,
			"byteOffset":29412,
			"target":34963
		}
	],
	"samplers":[
		{
			"magFilter":9729,
			"minFilter":9987
		}
	],
	"buffers":[
		{
			"byteLength":30828,
			"uri":"scroll_2.bin"
		}
	]
}
