{
	"asset":{
		"generator":"Khronos glTF Blender I/O v5.1.20",
		"version":"2.0"
	},
	"scene":0,
	"scenes":[
		{
			"name":"Scene",
			"nodes":[
				1
			]
		}
	],
	"nodes":[
		{
			"mesh":0,
			"name":"Shelf_Small_Bottles"
		},
		{
			"children":[
				0
			],
			"name":"shelf_small_bottles"
		}
	],
	"materials":[
		{
			"doubleSided":true,
			"name":"MI_Trim_Props_Vertex",
			"normalTexture":{
				"index":0
			},
			"pbrMetallicRoughness":{
				"baseColorTexture":{
					"index":1
				},
				"metallicFactor":0,
				"roughnessFactor":0.8727272748947144
			}
		},
		{
			"doubleSided":true,
			"name":"MI_Trim_Metal",
			"normalTexture":{
				"index":2
			},
			"pbrMetallicRoughness":{
				"baseColorTexture":{
					"index":3
				},
				"metallicFactor":0,
				"roughnessFactor":0.8727272748947144
			}
		},
		{
			"doubleSided":true,
			"name":"MI_Trim_Furniture",
			"normalTexture":{
				"index":4
			},
			"pbrMetallicRoughness":{
				"baseColorTexture":{
					"index":5
				},
				"metallicFactor":0,
				"roughnessFactor":0.8727272748947144
			}
		}
	],
	"meshes":[
		{
			"name":"Cube.166",
			"primitives":[
				{
					"attributes":{
						"POSITION":0,
						"NORMAL":1,
						"TEXCOORD_0":2,
						"COLOR_0":3,
						"COLOR_1":4
					},
					"indices":5,
					"material":0
				},
				{
					"attributes":{
						"POSITION":6,
						"NORMAL":7,
						"TEXCOORD_0":8,
						"COLOR_0":9,
						"COLOR_1":10
					},
					"indices":11,
					"material":1
				},
				{
					"attributes":{
						"POSITION":12,
						"NORMAL":13,
						"TEXCOORD_0":14,
						"COLOR_0":15,
						"COLOR_1":16
					},
					"indices":17,
					"material":2
				}
			]
		}
	],
	"textures":[
		{
			"sampler":0,
			"source":0
		},
		{
			"sampler":0,
			"source":1
		},
		{
			"sampler":0,
			"source":2
		},
		{
			"sampler":0,
			"source":3
		},
		{
			"sampler":0,
			"source":4
		},
		{
			"sampler":0,
			"source":5
		}
	],
	"images":[
		{
			"mimeType":"image/png",
			"name":"T_Trim_Props_Normal.png",
			"uri":"../textures/T_Trim_Props_Normal.png"
		},
		{
			"mimeType":"image/png",
			"name":"T_Trim_Props_BaseColor.png",
			"uri":"../textures/T_Trim_Props_BaseColor.png"
		},
		{
			"mimeType":"image/png",
			"name":"T_Trim_Metal_Normal.png",
			"uri":"../textures/T_Trim_Metal_Normal.png"
		},
		{
			"mimeType":"image/png",
			"name":"T_Trim_Metal_BaseColor.png",
			"uri":"../textures/T_Trim_Metal_BaseColor.png"
		},
		{
			"mimeType":"image/png",
			"name":"T_Trim_Furniture_Normal.png",
			"uri":"../textures/T_Trim_Furniture_Normal.png"
		},
		{
			"mimeType":"image/png",
			"name":"T_Trim_Furniture_BaseColor.png",
			"uri":"../textures/T_Trim_Furniture_BaseColor.png"
		}
	],
	"accessors":[
		{
			"bufferView":0,
			"componentType":5126,
			"count":3964,
			"max":[
				0.4887983798980713,
				0.5681943297386169,
				0.2528019845485687
			],
			"min":[
				-0.47426745295524597,
				0.12408984452486038,
				0.15985724329948425
			],
			"type":"VEC3"
		},
		{
			"bufferView":1,
			"componentType":5126,
			"count":3964,
			"type":"VEC3"
		},
		{
			"bufferView":2,
			"componentType":5126,
			"count":3964,
			"type":"VEC2"
		},
		{
			"bufferView":3,
			"componentType":5121,
			"count":3964,
			"normalized":true,
			"type":"VEC4"
		},
		{
			"bufferView":4,
			"componentType":5123,
			"count":3964,
			"normalized":true,
			"type":"VEC4"
		},
		{
			"bufferView":5,
			"componentType":5123,
			"count":12924,
			"type":"SCALAR"
		},
		{
			"bufferView":6,
			"componentType":5126,
			"count":688,
			"max":[
				0.568484365940094,
				0.47293800115585327,
				0.2822330594062805
			],
			"min":[
				-0.5686498880386353,
				0.0399734228849411,
				0.02318727970123291
			],
			"type":"VEC3"
		},
		{
			"bufferView":7,
			"componentType":5126,
			"count":688,
			"type":"VEC3"
		},
		{
			"bufferView":8,
			"componentType":5126,
			"count":688,
			"type":"VEC2"
		},
		{
			"bufferView":9,
			"componentType":5121,
			"count":688,
			"normalized":true,
			"type":"VEC4"
		},
		{
			"bufferView":10,
			"componentType":5123,
			"count":688,
			"normalized":true,
			"type":"VEC4"
		},
		{
			"bufferView":11,
			"componentType":5123,
			"count":2160,
			"type":"SCALAR"
		},
		{
			"bufferView":12,
			"componentType":5126,
			"count":300,
			"max":[
				0.5429956912994385,
				0.6282642483711243,
				0.2946760654449463
			],
			"min":[
				-0.5431612133979797,
				-0.019115358591079712,
				0.010097309947013855
			],
			"type":"VEC3"
		},
		{
			"bufferView":13,
			"componentType":5126,
			"count":300,
			"type":"VEC3"
		},
		{
			"bufferView":14,
			"componentType":5126,
			"count":300,
			"type":"VEC2"
		},
		{
			"bufferView":15,
			"componentType":5121,
			"count":300,
			"normalized":true,
			"type":"VEC4"
		},
		{
			"bufferView":16,
			"componentType":5123,
			"count":300,
			"normalized":true,
			"type":"VEC4"
		},
		{
			"bufferView":17,
			"componentType":5123,
			"count":618,
			"type":"SCALAR"
		}
	],
	"bufferViews":[
		{
			"buffer":0,
			"byteLength":47568,
			"byteOffset":0,
			"target":34962
		},
		{
			"buffer":0,
			"byteLength":47568,
			"byteOffset":47568,
			"target":34962
		},
		{
			"buffer":0,
			"byteLength":31712,
			"byteOffset":95136,
			"target":34962
		},
		{
			"buffer":0,
			"byteLength":15856,
			"byteOffset":126848,
			"target":34962
		},
		{
			"buffer":0,
			"byteLength":31712,
			"byteOffset":142704,
			"target":34962
		},
		{
			"buffer":0,
			"byteLength":25848,
			"byteOffset":174416,
			"target":34963
		},
		{
			"buffer":0,
			"byteLength":8256,
			"byteOffset":200264,
			"target":34962
		},
		{
			"buffer":0,
			"byteLength":8256,
			"byteOffset":208520,
			"target":34962
		},
		{
			"buffer":0,
			"byteLength":5504,
			"byteOffset":216776,
			"target":34962
		},
		{
			"buffer":0,
			"byteLength":2752,
			"byteOffset":222280,
			"target":34962
		},
		{
			"buffer":0,
			"byteLength":5504,
			"byteOffset":225032,
			"target":34962
		},
		{
			"buffer":0,
			"byteLength":4320,
			"byteOffset":230536,
			"target":34963
		},
		{
			"buffer":0,
			"byteLength":3600,
			"byteOffset":234856,
			"target":34962
		},
		{
			"buffer":0,
			"byteLength":3600,
			"byteOffset":238456,
			"target":34962
		},
		{
			"buffer":0,
			"byteLength":2400,
			"byteOffset":242056,
			"target":34962
		},
		{
			"buffer":0,
			"byteLength":1200,
			"byteOffset":244456,
			"target":34962
		},
		{
			"buffer":0,
			"byteLength":2400,
			"byteOffset":245656,
			"target":34962
		},
		{
			"buffer":0,
			"byteLength":1236,
			"byteOffset":248056,
			"target":34963
		}
	],
	"samplers":[
		{
			"magFilter":9729,
			"minFilter":9987
		}
	],
	"buffers":[
		{
			"byteLength":249292,
			"uri":"shelf_small_bottles.bin"
		}
	]
}
