{
	"asset":{
		"generator":"Khronos glTF Blender I/O v5.1.20",
		"version":"2.0"
	},
	"scene":0,
	"scenes":[
		{
			"name":"Scene",
			"nodes":[
				1
			]
		}
	],
	"nodes":[
		{
			"mesh":0,
			"name":"Shield_Wooden"
		},
		{
			"children":[
				0
			],
			"name":"shield_wooden"
		}
	],
	"materials":[
		{
			"doubleSided":true,
			"name":"MI_Trim_Furniture",
			"normalTexture":{
				"index":0
			},
			"pbrMetallicRoughness":{
				"baseColorTexture":{
					"index":1
				},
				"metallicFactor":0,
				"roughnessFactor":0.8727272748947144
			}
		},
		{
			"doubleSided":true,
			"name":"MI_Trim_Metal_Vertex",
			"pbrMetallicRoughness":{
				"baseColorTexture":{
					"index":2
				},
				"metallicFactor":0,
				"roughnessFactor":0.8727272748947144
			}
		},
		{
			"doubleSided":true,
			"name":"MI_Trim_Props",
			"normalTexture":{
				"index":3
			},
			"pbrMetallicRoughness":{
				"baseColorTexture":{
					"index":4
				},
				"metallicFactor":0,
				"roughnessFactor":0.8727272748947144
			}
		}
	],
	"meshes":[
		{
			"name":"Cube.193",
			"primitives":[
				{
					"attributes":{
						"POSITION":0,
						"NORMAL":1,
						"TEXCOORD_0":2,
						"COLOR_0":3,
						"COLOR_1":4
					},
					"indices":5,
					"material":0
				},
				{
					"attributes":{
						"POSITION":6,
						"NORMAL":7,
						"TEXCOORD_0":8,
						"COLOR_0":9,
						"COLOR_1":10
					},
					"indices":11,
					"material":1
				},
				{
					"attributes":{
						"POSITION":12,
						"NORMAL":13,
						"TEXCOORD_0":14,
						"COLOR_0":15,
						"COLOR_1":16
					},
					"indices":17,
					"material":2
				}
			]
		}
	],
	"textures":[
		{
			"sampler":0,
			"source":0
		},
		{
			"sampler":0,
			"source":1
		},
		{
			"sampler":0,
			"source":2
		},
		{
			"sampler":0,
			"source":3
		},
		{
			"sampler":0,
			"source":4
		}
	],
	"images":[
		{
			"mimeType":"image/png",
			"name":"T_Trim_Furniture_Normal.png",
			"uri":"../textures/T_Trim_Furniture_Normal.png"
		},
		{
			"mimeType":"image/png",
			"name":"T_Trim_Furniture_BaseColor.png",
			"uri":"../textures/T_Trim_Furniture_BaseColor.png"
		},
		{
			"mimeType":"image/png",
			"name":"T_Trim_Metal_BaseColor.png",
			"uri":"../textures/T_Trim_Metal_BaseColor.png"
		},
		{
			"mimeType":"image/png",
			"name":"T_Trim_Props_Normal.png",
			"uri":"../textures/T_Trim_Props_Normal.png"
		},
		{
			"mimeType":"image/png",
			"name":"T_Trim_Props_BaseColor.png",
			"uri":"../textures/T_Trim_Props_BaseColor.png"
		}
	],
	"accessors":[
		{
			"bufferView":0,
			"componentType":5126,
			"count":395,
			"max":[
				0.2810263931751251,
				0.2832871079444885,
				0.13919737935066223
			],
			"min":[
				-0.2826399505138397,
				-0.28176483511924744,
				0.02749248780310154
			],
			"type":"VEC3"
		},
		{
			"bufferView":1,
			"componentType":5126,
			"count":395,
			"type":"VEC3"
		},
		{
			"bufferView":2,
			"componentType":5126,
			"count":395,
			"type":"VEC2"
		},
		{
			"bufferView":3,
			"componentType":5121,
			"count":395,
			"normalized":true,
			"type":"VEC4"
		},
		{
			"bufferView":4,
			"componentType":5123,
			"count":395,
			"normalized":true,
			"type":"VEC4"
		},
		{
			"bufferView":5,
			"componentType":5123,
			"count":1440,
			"type":"SCALAR"
		},
		{
			"bufferView":6,
			"componentType":5126,
			"count":851,
			"max":[
				0.30728819966316223,
				0.3104481101036072,
				0.17805080115795135
			],
			"min":[
				-0.30728819966316223,
				-0.3104481101036072,
				0.018366262316703796
			],
			"type":"VEC3"
		},
		{
			"bufferView":7,
			"componentType":5126,
			"count":851,
			"type":"VEC3"
		},
		{
			"bufferView":8,
			"componentType":5126,
			"count":851,
			"type":"VEC2"
		},
		{
			"bufferView":9,
			"componentType":5121,
			"count":851,
			"normalized":true,
			"type":"VEC4"
		},
		{
			"bufferView":10,
			"componentType":5123,
			"count":851,
			"normalized":true,
			"type":"VEC4"
		},
		{
			"bufferView":11,
			"componentType":5123,
			"count":2352,
			"type":"SCALAR"
		},
		{
			"bufferView":12,
			"componentType":5126,
			"count":148,
			"max":[
				0.018362004309892654,
				0.15646028518676758,
				0.04415608197450638
			],
			"min":[
				-0.018362004309892654,
				-0.15646028518676758,
				-0.0007735927356407046
			],
			"type":"VEC3"
		},
		{
			"bufferView":13,
			"componentType":5126,
			"count":148,
			"type":"VEC3"
		},
		{
			"bufferView":14,
			"componentType":5126,
			"count":148,
			"type":"VEC2"
		},
		{
			"bufferView":15,
			"componentType":5121,
			"count":148,
			"normalized":true,
			"type":"VEC4"
		},
		{
			"bufferView":16,
			"componentType":5123,
			"count":148,
			"normalized":true,
			"type":"VEC4"
		},
		{
			"bufferView":17,
			"componentType":5123,
			"count":420,
			"type":"SCALAR"
		}
	],
	"bufferViews":[
		{
			"buffer":0,
			"byteLength":4740,
			"byteOffset":0,
			"target":34962
		},
		{
			"buffer":0,
			"byteLength":4740,
			"byteOffset":4740,
			"target":34962
		},
		{
			"buffer":0,
			"byteLength":3160,
			"byteOffset":9480,
			"target":34962
		},
		{
			"buffer":0,
			"byteLength":1580,
			"byteOffset":12640,
			"target":34962
		},
		{
			"buffer":0,
			"byteLength":3160,
			"byteOffset":14220,
			"target":34962
		},
		{
			"buffer":0,
			"byteLength":2880,
			"byteOffset":17380,
			"target":34963
		},
		{
			"buffer":0,
			"byteLength":10212,
			"byteOffset":20260,
			"target":34962
		},
		{
			"buffer":0,
			"byteLength":10212,
			"byteOffset":30472,
			"target":34962
		},
		{
			"buffer":0,
			"byteLength":6808,
			"byteOffset":40684,
			"target":34962
		},
		{
			"buffer":0,
			"byteLength":3404,
			"byteOffset":47492,
			"target":34962
		},
		{
			"buffer":0,
			"byteLength":6808,
			"byteOffset":50896,
			"target":34962
		},
		{
			"buffer":0,
			"byteLength":4704,
			"byteOffset":57704,
			"target":34963
		},
		{
			"buffer":0,
			"byteLength":1776,
			"byteOffset":62408,
			"target":34962
		},
		{
			"buffer":0,
			"byteLength":1776,
			"byteOffset":64184,
			"target":34962
		},
		{
			"buffer":0,
			"byteLength":1184,
			"byteOffset":65960,
			"target":34962
		},
		{
			"buffer":0,
			"byteLength":592,
			"byteOffset":67144,
			"target":34962
		},
		{
			"buffer":0,
			"byteLength":1184,
			"byteOffset":67736,
			"target":34962
		},
		{
			"buffer":0,
			"byteLength":840,
			"byteOffset":68920,
			"target":34963
		}
	],
	"samplers":[
		{
			"magFilter":9729,
			"minFilter":9987
		}
	],
	"buffers":[
		{
			"byteLength":69760,
			"uri":"shield_wooden.bin"
		}
	]
}
