{
	"asset":{
		"generator":"Khronos glTF Blender I/O v5.1.20",
		"version":"2.0"
	},
	"scene":0,
	"scenes":[
		{
			"name":"Scene",
			"nodes":[
				1
			]
		}
	],
	"nodes":[
		{
			"mesh":0,
			"name":"SmallBottles_1"
		},
		{
			"children":[
				0
			],
			"name":"small_bottles_1"
		}
	],
	"materials":[
		{
			"doubleSided":true,
			"name":"MI_Trim_Props_Vertex",
			"normalTexture":{
				"index":0
			},
			"pbrMetallicRoughness":{
				"baseColorTexture":{
					"index":1
				},
				"metallicFactor":0,
				"roughnessFactor":0.8727272748947144
			}
		}
	],
	"meshes":[
		{
			"name":"Cube.159",
			"primitives":[
				{
					"attributes":{
						"POSITION":0,
						"NORMAL":1,
						"TEXCOORD_0":2,
						"COLOR_0":3,
						"COLOR_1":4
					},
					"indices":5,
					"material":0
				}
			]
		}
	],
	"textures":[
		{
			"sampler":0,
			"source":0
		},
		{
			"sampler":0,
			"source":1
		}
	],
	"images":[
		{
			"mimeType":"image/png",
			"name":"T_Trim_Props_Normal.png",
			"uri":"../textures/T_Trim_Props_Normal.png"
		},
		{
			"mimeType":"image/png",
			"name":"T_Trim_Props_BaseColor.png",
			"uri":"../textures/T_Trim_Props_BaseColor.png"
		}
	],
	"accessors":[
		{
			"bufferView":0,
			"componentType":5126,
			"count":441,
			"max":[
				0.10215996205806732,
				0.146688312292099,
				0.027890579774975777
			],
			"min":[
				-0.11289415508508682,
				0.001300513162277639,
				-0.027890579774975777
			],
			"type":"VEC3"
		},
		{
			"bufferView":1,
			"componentType":5126,
			"count":441,
			"type":"VEC3"
		},
		{
			"bufferView":2,
			"componentType":5126,
			"count":441,
			"type":"VEC2"
		},
		{
			"bufferView":3,
			"componentType":5121,
			"count":441,
			"normalized":true,
			"type":"VEC4"
		},
		{
			"bufferView":4,
			"componentType":5123,
			"count":441,
			"normalized":true,
			"type":"VEC4"
		},
		{
			"bufferView":5,
			"componentType":5123,
			"count":1458,
			"type":"SCALAR"
		}
	],
	"bufferViews":[
		{
			"buffer":0,
			"byteLength":5292,
			"byteOffset":0,
			"target":34962
		},
		{
			"buffer":0,
			"byteLength":5292,
			"byteOffset":5292,
			"target":34962
		},
		{
			"buffer":0,
			"byteLength":3528,
			"byteOffset":10584,
			"target":34962
		},
		{
			"buffer":0,
			"byteLength":1764,
			"byteOffset":14112,
			"target":34962
		},
		{
			"buffer":0,
			"byteLength":3528,
			"byteOffset":15876,
			"target":34962
		},
		{
			"buffer":0,
			"byteLength":2916,
			"byteOffset":19404,
			"target":34963
		}
	],
	"samplers":[
		{
			"magFilter":9729,
			"minFilter":9987
		}
	],
	"buffers":[
		{
			"byteLength":22320,
			"uri":"small_bottles_1.bin"
		}
	]
}
