{
	"asset":{
		"generator":"Khronos glTF Blender I/O v5.1.20",
		"version":"2.0"
	},
	"scene":0,
	"scenes":[
		{
			"name":"Scene",
			"nodes":[
				1
			]
		}
	],
	"nodes":[
		{
			"mesh":0,
			"name":"Stall_Empty"
		},
		{
			"children":[
				0
			],
			"name":"stall_empty"
		}
	],
	"materials":[
		{
			"doubleSided":true,
			"name":"MI_Trim_Metal",
			"normalTexture":{
				"index":0
			},
			"pbrMetallicRoughness":{
				"baseColorTexture":{
					"index":1
				},
				"metallicFactor":0,
				"roughnessFactor":0.8727272748947144
			}
		},
		{
			"doubleSided":true,
			"name":"MI_Trim_Furniture",
			"normalTexture":{
				"index":2
			},
			"pbrMetallicRoughness":{
				"baseColorTexture":{
					"index":3
				},
				"metallicFactor":0,
				"roughnessFactor":0.8727272748947144
			}
		},
		{
			"doubleSided":true,
			"name":"MI_Banner",
			"normalTexture":{
				"index":4
			},
			"pbrMetallicRoughness":{
				"baseColorTexture":{
					"index":5
				},
				"metallicFactor":0,
				"roughnessFactor":0.5
			}
		}
	],
	"meshes":[
		{
			"name":"Cube.212",
			"primitives":[
				{
					"attributes":{
						"POSITION":0,
						"NORMAL":1,
						"TEXCOORD_0":2,
						"TEXCOORD_1":3,
						"COLOR_0":4,
						"COLOR_1":5
					},
					"indices":6,
					"material":0
				},
				{
					"attributes":{
						"POSITION":7,
						"NORMAL":8,
						"TEXCOORD_0":9,
						"TEXCOORD_1":10,
						"COLOR_0":11,
						"COLOR_1":12
					},
					"indices":13,
					"material":1
				},
				{
					"attributes":{
						"POSITION":14,
						"NORMAL":15,
						"TEXCOORD_0":16,
						"TEXCOORD_1":17,
						"COLOR_0":18,
						"COLOR_1":19
					},
					"indices":20,
					"material":2
				}
			]
		}
	],
	"textures":[
		{
			"sampler":0,
			"source":0
		},
		{
			"sampler":0,
			"source":1
		},
		{
			"sampler":0,
			"source":2
		},
		{
			"sampler":0,
			"source":3
		},
		{
			"sampler":0,
			"source":4
		},
		{
			"sampler":0,
			"source":5
		}
	],
	"images":[
		{
			"mimeType":"image/png",
			"name":"T_Trim_Metal_Normal.png",
			"uri":"../textures/T_Trim_Metal_Normal.png"
		},
		{
			"mimeType":"image/png",
			"name":"T_Trim_Metal_BaseColor.png",
			"uri":"../textures/T_Trim_Metal_BaseColor.png"
		},
		{
			"mimeType":"image/png",
			"name":"T_Trim_Furniture_Normal.png",
			"uri":"../textures/T_Trim_Furniture_Normal.png"
		},
		{
			"mimeType":"image/png",
			"name":"T_Trim_Furniture_BaseColor.png",
			"uri":"../textures/T_Trim_Furniture_BaseColor.png"
		},
		{
			"mimeType":"image/png",
			"name":"T_Trim_Cloth_Normal.png",
			"uri":"../textures/T_Trim_Cloth_Normal.png"
		},
		{
			"mimeType":"image/png",
			"name":"T_Trim_Cloth_BaseColor.png",
			"uri":"../textures/T_Trim_Cloth_BaseColor.png"
		}
	],
	"accessors":[
		{
			"bufferView":0,
			"componentType":5126,
			"count":536,
			"max":[
				0.9224295020103455,
				0.8559355139732361,
				0.4060481786727905
			],
			"min":[
				-0.9224295020103455,
				0.2437753826379776,
				-0.41325682401657104
			],
			"type":"VEC3"
		},
		{
			"bufferView":1,
			"componentType":5126,
			"count":536,
			"type":"VEC3"
		},
		{
			"bufferView":2,
			"componentType":5126,
			"count":536,
			"type":"VEC2"
		},
		{
			"bufferView":3,
			"componentType":5126,
			"count":536,
			"type":"VEC2"
		},
		{
			"bufferView":4,
			"componentType":5121,
			"count":536,
			"normalized":true,
			"type":"VEC4"
		},
		{
			"bufferView":5,
			"componentType":5123,
			"count":536,
			"normalized":true,
			"type":"VEC4"
		},
		{
			"bufferView":6,
			"componentType":5123,
			"count":1632,
			"type":"SCALAR"
		},
		{
			"bufferView":7,
			"componentType":5126,
			"count":576,
			"max":[
				0.9138581156730652,
				2.572237730026245,
				0.4367961883544922
			],
			"min":[
				-0.9138581156730652,
				-0.0048178937286138535,
				-0.4360024333000183
			],
			"type":"VEC3"
		},
		{
			"bufferView":8,
			"componentType":5126,
			"count":576,
			"type":"VEC3"
		},
		{
			"bufferView":9,
			"componentType":5126,
			"count":576,
			"type":"VEC2"
		},
		{
			"bufferView":10,
			"componentType":5126,
			"count":576,
			"type":"VEC2"
		},
		{
			"bufferView":11,
			"componentType":5121,
			"count":576,
			"normalized":true,
			"type":"VEC4"
		},
		{
			"bufferView":12,
			"componentType":5123,
			"count":576,
			"normalized":true,
			"type":"VEC4"
		},
		{
			"bufferView":13,
			"componentType":5123,
			"count":924,
			"type":"SCALAR"
		},
		{
			"bufferView":14,
			"componentType":5126,
			"count":538,
			"max":[
				0.9121408462524414,
				2.6223647594451904,
				0.47154372930526733
			],
			"min":[
				-0.9121408462524414,
				0.975335419178009,
				-0.4607115387916565
			],
			"type":"VEC3"
		},
		{
			"bufferView":15,
			"componentType":5126,
			"count":538,
			"type":"VEC3"
		},
		{
			"bufferView":16,
			"componentType":5126,
			"count":538,
			"type":"VEC2"
		},
		{
			"bufferView":17,
			"componentType":5126,
			"count":538,
			"type":"VEC2"
		},
		{
			"bufferView":18,
			"componentType":5121,
			"count":538,
			"normalized":true,
			"type":"VEC4"
		},
		{
			"bufferView":19,
			"componentType":5123,
			"count":538,
			"normalized":true,
			"type":"VEC4"
		},
		{
			"bufferView":20,
			"componentType":5123,
			"count":1932,
			"type":"SCALAR"
		}
	],
	"bufferViews":[
		{
			"buffer":0,
			"byteLength":6432,
			"byteOffset":0,
			"target":34962
		},
		{
			"buffer":0,
			"byteLength":6432,
			"byteOffset":6432,
			"target":34962
		},
		{
			"buffer":0,
			"byteLength":4288,
			"byteOffset":12864,
			"target":34962
		},
		{
			"buffer":0,
			"byteLength":4288,
			"byteOffset":17152,
			"target":34962
		},
		{
			"buffer":0,
			"byteLength":2144,
			"byteOffset":21440,
			"target":34962
		},
		{
			"buffer":0,
			"byteLength":4288,
			"byteOffset":23584,
			"target":34962
		},
		{
			"buffer":0,
			"byteLength":3264,
			"byteOffset":27872,
			"target":34963
		},
		{
			"buffer":0,
			"byteLength":6912,
			"byteOffset":31136,
			"target":34962
		},
		{
			"buffer":0,
			"byteLength":6912,
			"byteOffset":38048,
			"target":34962
		},
		{
			"buffer":0,
			"byteLength":4608,
			"byteOffset":44960,
			"target":34962
		},
		{
			"buffer":0,
			"byteLength":4608,
			"byteOffset":49568,
			"target":34962
		},
		{
			"buffer":0,
			"byteLength":2304,
			"byteOffset":54176,
			"target":34962
		},
		{
			"buffer":0,
			"byteLength":4608,
			"byteOffset":56480,
			"target":34962
		},
		{
			"buffer":0,
			"byteLength":1848,
			"byteOffset":61088,
			"target":34963
		},
		{
			"buffer":0,
			"byteLength":6456,
			"byteOffset":62936,
			"target":34962
		},
		{
			"buffer":0,
			"byteLength":6456,
			"byteOffset":69392,
			"target":34962
		},
		{
			"buffer":0,
			"byteLength":4304,
			"byteOffset":75848,
			"target":34962
		},
		{
			"buffer":0,
			"byteLength":4304,
			"byteOffset":80152,
			"target":34962
		},
		{
			"buffer":0,
			"byteLength":2152,
			"byteOffset":84456,
			"target":34962
		},
		{
			"buffer":0,
			"byteLength":4304,
			"byteOffset":86608,
			"target":34962
		},
		{
			"buffer":0,
			"byteLength":3864,
			"byteOffset":90912,
			"target":34963
		}
	],
	"samplers":[
		{
			"magFilter":9729,
			"minFilter":9987
		}
	],
	"buffers":[
		{
			"byteLength":94776,
			"uri":"stall_empty.bin"
		}
	]
}
