{
	"asset":{
		"generator":"Khronos glTF Blender I/O v5.1.20",
		"version":"2.0"
	},
	"scene":0,
	"scenes":[
		{
			"name":"Scene",
			"nodes":[
				1
			]
		}
	],
	"nodes":[
		{
			"mesh":0,
			"name":"Stall_Cart_Empty"
		},
		{
			"children":[
				0
			],
			"name":"stall_cart_empty"
		}
	],
	"materials":[
		{
			"doubleSided":true,
			"name":"MI_Trim_Metal",
			"normalTexture":{
				"index":0
			},
			"pbrMetallicRoughness":{
				"baseColorTexture":{
					"index":1
				},
				"metallicFactor":0,
				"roughnessFactor":0.8727272748947144
			}
		},
		{
			"doubleSided":true,
			"name":"MI_Trim_Furniture",
			"normalTexture":{
				"index":2
			},
			"pbrMetallicRoughness":{
				"baseColorTexture":{
					"index":3
				},
				"metallicFactor":0,
				"roughnessFactor":0.8727272748947144
			}
		},
		{
			"doubleSided":true,
			"name":"MI_Banner",
			"normalTexture":{
				"index":4
			},
			"pbrMetallicRoughness":{
				"baseColorTexture":{
					"index":5
				},
				"metallicFactor":0,
				"roughnessFactor":0.5
			}
		}
	],
	"meshes":[
		{
			"name":"Cylinder.094",
			"primitives":[
				{
					"attributes":{
						"POSITION":0,
						"NORMAL":1,
						"TEXCOORD_0":2,
						"TEXCOORD_1":3,
						"COLOR_0":4,
						"COLOR_1":5
					},
					"indices":6,
					"material":0
				},
				{
					"attributes":{
						"POSITION":7,
						"NORMAL":8,
						"TEXCOORD_0":9,
						"TEXCOORD_1":10,
						"COLOR_0":11,
						"COLOR_1":12
					},
					"indices":13,
					"material":1
				},
				{
					"attributes":{
						"POSITION":14,
						"NORMAL":15,
						"TEXCOORD_0":16,
						"TEXCOORD_1":17,
						"COLOR_0":18,
						"COLOR_1":19
					},
					"indices":20,
					"material":2
				}
			]
		}
	],
	"textures":[
		{
			"sampler":0,
			"source":0
		},
		{
			"sampler":0,
			"source":1
		},
		{
			"sampler":0,
			"source":2
		},
		{
			"sampler":0,
			"source":3
		},
		{
			"sampler":0,
			"source":4
		},
		{
			"sampler":0,
			"source":5
		}
	],
	"images":[
		{
			"mimeType":"image/png",
			"name":"T_Trim_Metal_Normal.png",
			"uri":"../textures/T_Trim_Metal_Normal.png"
		},
		{
			"mimeType":"image/png",
			"name":"T_Trim_Metal_BaseColor.png",
			"uri":"../textures/T_Trim_Metal_BaseColor.png"
		},
		{
			"mimeType":"image/png",
			"name":"T_Trim_Furniture_Normal.png",
			"uri":"../textures/T_Trim_Furniture_Normal.png"
		},
		{
			"mimeType":"image/png",
			"name":"T_Trim_Furniture_BaseColor.png",
			"uri":"../textures/T_Trim_Furniture_BaseColor.png"
		},
		{
			"mimeType":"image/png",
			"name":"T_Trim_Cloth_Normal.png",
			"uri":"../textures/T_Trim_Cloth_Normal.png"
		},
		{
			"mimeType":"image/png",
			"name":"T_Trim_Cloth_BaseColor.png",
			"uri":"../textures/T_Trim_Cloth_BaseColor.png"
		}
	],
	"accessors":[
		{
			"bufferView":0,
			"componentType":5126,
			"count":2130,
			"max":[
				0.9137552380561829,
				1.9630831480026245,
				0.5298508405685425
			],
			"min":[
				-0.9137551784515381,
				-0.0038988939486443996,
				-0.5298508405685425
			],
			"type":"VEC3"
		},
		{
			"bufferView":1,
			"componentType":5126,
			"count":2130,
			"type":"VEC3"
		},
		{
			"bufferView":2,
			"componentType":5126,
			"count":2130,
			"type":"VEC2"
		},
		{
			"bufferView":3,
			"componentType":5126,
			"count":2130,
			"type":"VEC2"
		},
		{
			"bufferView":4,
			"componentType":5121,
			"count":2130,
			"normalized":true,
			"type":"VEC4"
		},
		{
			"bufferView":5,
			"componentType":5123,
			"count":2130,
			"normalized":true,
			"type":"VEC4"
		},
		{
			"bufferView":6,
			"componentType":5123,
			"count":6654,
			"type":"SCALAR"
		},
		{
			"bufferView":7,
			"componentType":5126,
			"count":1960,
			"max":[
				0.9089454412460327,
				2.572237730026245,
				0.5095540285110474
			],
			"min":[
				-2.1067893505096436,
				-0.0020536466035991907,
				-0.5095540285110474
			],
			"type":"VEC3"
		},
		{
			"bufferView":8,
			"componentType":5126,
			"count":1960,
			"type":"VEC3"
		},
		{
			"bufferView":9,
			"componentType":5126,
			"count":1960,
			"type":"VEC2"
		},
		{
			"bufferView":10,
			"componentType":5126,
			"count":1960,
			"type":"VEC2"
		},
		{
			"bufferView":11,
			"componentType":5121,
			"count":1960,
			"normalized":true,
			"type":"VEC4"
		},
		{
			"bufferView":12,
			"componentType":5123,
			"count":1960,
			"normalized":true,
			"type":"VEC4"
		},
		{
			"bufferView":13,
			"componentType":5123,
			"count":3882,
			"type":"SCALAR"
		},
		{
			"bufferView":14,
			"componentType":5126,
			"count":353,
			"max":[
				0.9083468317985535,
				2.627926826477051,
				0.47836676239967346
			],
			"min":[
				-0.908346951007843,
				1.796966314315796,
				-0.46071121096611023
			],
			"type":"VEC3"
		},
		{
			"bufferView":15,
			"componentType":5126,
			"count":353,
			"type":"VEC3"
		},
		{
			"bufferView":16,
			"componentType":5126,
			"count":353,
			"type":"VEC2"
		},
		{
			"bufferView":17,
			"componentType":5126,
			"count":353,
			"type":"VEC2"
		},
		{
			"bufferView":18,
			"componentType":5121,
			"count":353,
			"normalized":true,
			"type":"VEC4"
		},
		{
			"bufferView":19,
			"componentType":5123,
			"count":353,
			"normalized":true,
			"type":"VEC4"
		},
		{
			"bufferView":20,
			"componentType":5123,
			"count":1272,
			"type":"SCALAR"
		}
	],
	"bufferViews":[
		{
			"buffer":0,
			"byteLength":25560,
			"byteOffset":0,
			"target":34962
		},
		{
			"buffer":0,
			"byteLength":25560,
			"byteOffset":25560,
			"target":34962
		},
		{
			"buffer":0,
			"byteLength":17040,
			"byteOffset":51120,
			"target":34962
		},
		{
			"buffer":0,
			"byteLength":17040,
			"byteOffset":68160,
			"target":34962
		},
		{
			"buffer":0,
			"byteLength":8520,
			"byteOffset":85200,
			"target":34962
		},
		{
			"buffer":0,
			"byteLength":17040,
			"byteOffset":93720,
			"target":34962
		},
		{
			"buffer":0,
			"byteLength":13308,
			"byteOffset":110760,
			"target":34963
		},
		{
			"buffer":0,
			"byteLength":23520,
			"byteOffset":124068,
			"target":34962
		},
		{
			"buffer":0,
			"byteLength":23520,
			"byteOffset":147588,
			"target":34962
		},
		{
			"buffer":0,
			"byteLength":15680,
			"byteOffset":171108,
			"target":34962
		},
		{
			"buffer":0,
			"byteLength":15680,
			"byteOffset":186788,
			"target":34962
		},
		{
			"buffer":0,
			"byteLength":7840,
			"byteOffset":202468,
			"target":34962
		},
		{
			"buffer":0,
			"byteLength":15680,
			"byteOffset":210308,
			"target":34962
		},
		{
			"buffer":0,
			"byteLength":7764,
			"byteOffset":225988,
			"target":34963
		},
		{
			"buffer":0,
			"byteLength":4236,
			"byteOffset":233752,
			"target":34962
		},
		{
			"buffer":0,
			"byteLength":4236,
			"byteOffset":237988,
			"target":34962
		},
		{
			"buffer":0,
			"byteLength":2824,
			"byteOffset":242224,
			"target":34962
		},
		{
			"buffer":0,
			"byteLength":2824,
			"byteOffset":245048,
			"target":34962
		},
		{
			"buffer":0,
			"byteLength":1412,
			"byteOffset":247872,
			"target":34962
		},
		{
			"buffer":0,
			"byteLength":2824,
			"byteOffset":249284,
			"target":34962
		},
		{
			"buffer":0,
			"byteLength":2544,
			"byteOffset":252108,
			"target":34963
		}
	],
	"samplers":[
		{
			"magFilter":9729,
			"minFilter":9987
		}
	],
	"buffers":[
		{
			"byteLength":254652,
			"uri":"stall_cart_empty.bin"
		}
	]
}
