{
	"asset":{
		"generator":"Khronos glTF Blender I/O v5.1.20",
		"version":"2.0"
	},
	"scene":0,
	"scenes":[
		{
			"name":"Scene",
			"nodes":[
				1
			]
		}
	],
	"nodes":[
		{
			"mesh":0,
			"name":"Sword_Bronze"
		},
		{
			"children":[
				0
			],
			"name":"sword_bronze"
		}
	],
	"materials":[
		{
			"doubleSided":true,
			"name":"MI_Trim_Props_Vertex",
			"normalTexture":{
				"index":0
			},
			"pbrMetallicRoughness":{
				"baseColorTexture":{
					"index":1
				},
				"metallicFactor":0,
				"roughnessFactor":0.8727272748947144
			}
		}
	],
	"meshes":[
		{
			"name":"meshId0_name.001",
			"primitives":[
				{
					"attributes":{
						"POSITION":0,
						"NORMAL":1,
						"TEXCOORD_0":2,
						"COLOR_0":3,
						"COLOR_1":4
					},
					"indices":5,
					"material":0
				}
			]
		}
	],
	"textures":[
		{
			"sampler":0,
			"source":0
		},
		{
			"sampler":0,
			"source":1
		}
	],
	"images":[
		{
			"mimeType":"image/png",
			"name":"T_Trim_Props_Normal.png",
			"uri":"../textures/T_Trim_Props_Normal.png"
		},
		{
			"mimeType":"image/png",
			"name":"T_Trim_Props_BaseColor.png",
			"uri":"../textures/T_Trim_Props_BaseColor.png"
		}
	],
	"accessors":[
		{
			"bufferView":0,
			"componentType":5126,
			"count":1517,
			"max":[
				0.1332807093858719,
				0.9240942597389221,
				0.032698988914489746
			],
			"min":[
				-0.1332807093858719,
				-0.20807738602161407,
				-0.032698988914489746
			],
			"type":"VEC3"
		},
		{
			"bufferView":1,
			"componentType":5126,
			"count":1517,
			"type":"VEC3"
		},
		{
			"bufferView":2,
			"componentType":5126,
			"count":1517,
			"type":"VEC2"
		},
		{
			"bufferView":3,
			"componentType":5121,
			"count":1517,
			"normalized":true,
			"type":"VEC4"
		},
		{
			"bufferView":4,
			"componentType":5123,
			"count":1517,
			"normalized":true,
			"type":"VEC4"
		},
		{
			"bufferView":5,
			"componentType":5123,
			"count":4620,
			"type":"SCALAR"
		}
	],
	"bufferViews":[
		{
			"buffer":0,
			"byteLength":18204,
			"byteOffset":0,
			"target":34962
		},
		{
			"buffer":0,
			"byteLength":18204,
			"byteOffset":18204,
			"target":34962
		},
		{
			"buffer":0,
			"byteLength":12136,
			"byteOffset":36408,
			"target":34962
		},
		{
			"buffer":0,
			"byteLength":6068,
			"byteOffset":48544,
			"target":34962
		},
		{
			"buffer":0,
			"byteLength":12136,
			"byteOffset":54612,
			"target":34962
		},
		{
			"buffer":0,
			"byteLength":9240,
			"byteOffset":66748,
			"target":34963
		}
	],
	"samplers":[
		{
			"magFilter":9729,
			"minFilter":9987
		}
	],
	"buffers":[
		{
			"byteLength":75988,
			"uri":"sword_bronze.bin"
		}
	]
}
