{
	"asset":{
		"generator":"Khronos glTF Blender I/O v5.1.20",
		"version":"2.0"
	},
	"scene":0,
	"scenes":[
		{
			"name":"Scene",
			"nodes":[
				1
			]
		}
	],
	"nodes":[
		{
			"mesh":0,
			"name":"Table_Large"
		},
		{
			"children":[
				0
			],
			"name":"table_large"
		}
	],
	"materials":[
		{
			"doubleSided":true,
			"name":"MI_Trim_Furniture",
			"normalTexture":{
				"index":0
			},
			"pbrMetallicRoughness":{
				"baseColorTexture":{
					"index":1
				},
				"metallicFactor":0,
				"roughnessFactor":0.8727272748947144
			}
		},
		{
			"doubleSided":true,
			"name":"MI_Trim_Metal",
			"normalTexture":{
				"index":2
			},
			"pbrMetallicRoughness":{
				"baseColorTexture":{
					"index":3
				},
				"metallicFactor":0,
				"roughnessFactor":0.8727272748947144
			}
		}
	],
	"meshes":[
		{
			"name":"Cube.084",
			"primitives":[
				{
					"attributes":{
						"POSITION":0,
						"NORMAL":1,
						"TEXCOORD_0":2,
						"COLOR_0":3,
						"COLOR_1":4
					},
					"indices":5,
					"material":0
				},
				{
					"attributes":{
						"POSITION":6,
						"NORMAL":7,
						"TEXCOORD_0":8,
						"COLOR_0":9,
						"COLOR_1":10
					},
					"indices":11,
					"material":1
				}
			]
		}
	],
	"textures":[
		{
			"sampler":0,
			"source":0
		},
		{
			"sampler":0,
			"source":1
		},
		{
			"sampler":0,
			"source":2
		},
		{
			"sampler":0,
			"source":3
		}
	],
	"images":[
		{
			"mimeType":"image/png",
			"name":"T_Trim_Furniture_Normal.png",
			"uri":"../textures/T_Trim_Furniture_Normal.png"
		},
		{
			"mimeType":"image/png",
			"name":"T_Trim_Furniture_BaseColor.png",
			"uri":"../textures/T_Trim_Furniture_BaseColor.png"
		},
		{
			"mimeType":"image/png",
			"name":"T_Trim_Metal_Normal.png",
			"uri":"../textures/T_Trim_Metal_Normal.png"
		},
		{
			"mimeType":"image/png",
			"name":"T_Trim_Metal_BaseColor.png",
			"uri":"../textures/T_Trim_Metal_BaseColor.png"
		}
	],
	"accessors":[
		{
			"bufferView":0,
			"componentType":5126,
			"count":1190,
			"max":[
				1.4242464303970337,
				0.8128094673156738,
				0.5461863279342651
			],
			"min":[
				-1.4242464303970337,
				0.001262865960597992,
				-0.5419855713844299
			],
			"type":"VEC3"
		},
		{
			"bufferView":1,
			"componentType":5126,
			"count":1190,
			"type":"VEC3"
		},
		{
			"bufferView":2,
			"componentType":5126,
			"count":1190,
			"type":"VEC2"
		},
		{
			"bufferView":3,
			"componentType":5121,
			"count":1190,
			"normalized":true,
			"type":"VEC4"
		},
		{
			"bufferView":4,
			"componentType":5123,
			"count":1190,
			"normalized":true,
			"type":"VEC4"
		},
		{
			"bufferView":5,
			"componentType":5123,
			"count":2838,
			"type":"SCALAR"
		},
		{
			"bufferView":6,
			"componentType":5126,
			"count":72,
			"max":[
				1.0883933305740356,
				0.8147094249725342,
				0.5546767711639404
			],
			"min":[
				-1.0883933305740356,
				0.7352322936058044,
				-0.5394105315208435
			],
			"type":"VEC3"
		},
		{
			"bufferView":7,
			"componentType":5126,
			"count":72,
			"type":"VEC3"
		},
		{
			"bufferView":8,
			"componentType":5126,
			"count":72,
			"type":"VEC2"
		},
		{
			"bufferView":9,
			"componentType":5121,
			"count":72,
			"normalized":true,
			"type":"VEC4"
		},
		{
			"bufferView":10,
			"componentType":5123,
			"count":72,
			"normalized":true,
			"type":"VEC4"
		},
		{
			"bufferView":11,
			"componentType":5123,
			"count":120,
			"type":"SCALAR"
		}
	],
	"bufferViews":[
		{
			"buffer":0,
			"byteLength":14280,
			"byteOffset":0,
			"target":34962
		},
		{
			"buffer":0,
			"byteLength":14280,
			"byteOffset":14280,
			"target":34962
		},
		{
			"buffer":0,
			"byteLength":9520,
			"byteOffset":28560,
			"target":34962
		},
		{
			"buffer":0,
			"byteLength":4760,
			"byteOffset":38080,
			"target":34962
		},
		{
			"buffer":0,
			"byteLength":9520,
			"byteOffset":42840,
			"target":34962
		},
		{
			"buffer":0,
			"byteLength":5676,
			"byteOffset":52360,
			"target":34963
		},
		{
			"buffer":0,
			"byteLength":864,
			"byteOffset":58036,
			"target":34962
		},
		{
			"buffer":0,
			"byteLength":864,
			"byteOffset":58900,
			"target":34962
		},
		{
			"buffer":0,
			"byteLength":576,
			"byteOffset":59764,
			"target":34962
		},
		{
			"buffer":0,
			"byteLength":288,
			"byteOffset":60340,
			"target":34962
		},
		{
			"buffer":0,
			"byteLength":576,
			"byteOffset":60628,
			"target":34962
		},
		{
			"buffer":0,
			"byteLength":240,
			"byteOffset":61204,
			"target":34963
		}
	],
	"samplers":[
		{
			"magFilter":9729,
			"minFilter":9987
		}
	],
	"buffers":[
		{
			"byteLength":61444,
			"uri":"table_large.bin"
		}
	]
}
