{
	"asset":{
		"generator":"Khronos glTF Blender I/O v5.1.20",
		"version":"2.0"
	},
	"scene":0,
	"scenes":[
		{
			"name":"Scene",
			"nodes":[
				1
			]
		}
	],
	"nodes":[
		{
			"mesh":0,
			"name":"Vase_Rubble_Medium"
		},
		{
			"children":[
				0
			],
			"name":"vase_rubble_medium"
		}
	],
	"materials":[
		{
			"doubleSided":true,
			"name":"MI_Trim_Props_Vertex",
			"normalTexture":{
				"index":0
			},
			"pbrMetallicRoughness":{
				"baseColorTexture":{
					"index":1
				},
				"metallicFactor":0,
				"roughnessFactor":0.8727272748947144
			}
		}
	],
	"meshes":[
		{
			"name":"Vase_1.001_cell.099",
			"primitives":[
				{
					"attributes":{
						"POSITION":0,
						"NORMAL":1,
						"TEXCOORD_0":2,
						"COLOR_0":3,
						"COLOR_1":4
					},
					"indices":5,
					"material":0
				}
			]
		}
	],
	"textures":[
		{
			"sampler":0,
			"source":0
		},
		{
			"sampler":0,
			"source":1
		}
	],
	"images":[
		{
			"mimeType":"image/png",
			"name":"T_Trim_Props_Normal.png",
			"uri":"../textures/T_Trim_Props_Normal.png"
		},
		{
			"mimeType":"image/png",
			"name":"T_Trim_Props_BaseColor.png",
			"uri":"../textures/T_Trim_Props_BaseColor.png"
		}
	],
	"accessors":[
		{
			"bufferView":0,
			"componentType":5126,
			"count":1990,
			"max":[
				0.41731083393096924,
				0.17781302332878113,
				0.32047608494758606
			],
			"min":[
				-0.37963709235191345,
				0.0031880736351013184,
				-0.27796468138694763
			],
			"type":"VEC3"
		},
		{
			"bufferView":1,
			"componentType":5126,
			"count":1990,
			"type":"VEC3"
		},
		{
			"bufferView":2,
			"componentType":5126,
			"count":1990,
			"type":"VEC2"
		},
		{
			"bufferView":3,
			"componentType":5121,
			"count":1990,
			"normalized":true,
			"type":"VEC4"
		},
		{
			"bufferView":4,
			"componentType":5123,
			"count":1990,
			"normalized":true,
			"type":"VEC4"
		},
		{
			"bufferView":5,
			"componentType":5123,
			"count":3339,
			"type":"SCALAR"
		}
	],
	"bufferViews":[
		{
			"buffer":0,
			"byteLength":23880,
			"byteOffset":0,
			"target":34962
		},
		{
			"buffer":0,
			"byteLength":23880,
			"byteOffset":23880,
			"target":34962
		},
		{
			"buffer":0,
			"byteLength":15920,
			"byteOffset":47760,
			"target":34962
		},
		{
			"buffer":0,
			"byteLength":7960,
			"byteOffset":63680,
			"target":34962
		},
		{
			"buffer":0,
			"byteLength":15920,
			"byteOffset":71640,
			"target":34962
		},
		{
			"buffer":0,
			"byteLength":6678,
			"byteOffset":87560,
			"target":34963
		}
	],
	"samplers":[
		{
			"magFilter":9729,
			"minFilter":9987
		}
	],
	"buffers":[
		{
			"byteLength":94240,
			"uri":"vase_rubble_medium.bin"
		}
	]
}
