{
	"asset":{
		"generator":"Khronos glTF Blender I/O v5.1.20",
		"version":"2.0"
	},
	"extensionsUsed":[
		"KHR_materials_specular"
	],
	"scene":0,
	"scenes":[
		{
			"name":"Scene",
			"nodes":[
				1
			]
		}
	],
	"nodes":[
		{
			"mesh":0,
			"name":"Railing edge",
			"rotation":[
				0,
				0.7071066498756409,
				0,
				0.70710688829422
			],
			"translation":[
				13,
				0,
				-3
			]
		},
		{
			"children":[
				0
			],
			"name":"railing_edge"
		}
	],
	"materials":[
		{
			"doubleSided":true,
			"extensions":{
				"KHR_materials_specular":{
					"specularFactor":0
				}
			},
			"name":"Material",
			"pbrMetallicRoughness":{
				"metallicFactor":0
			}
		}
	],
	"meshes":[
		{
			"name":"Cylinder.082",
			"primitives":[
				{
					"attributes":{
						"POSITION":0,
						"NORMAL":1,
						"TEXCOORD_0":2
					},
					"indices":3,
					"material":0
				}
			]
		}
	],
	"accessors":[
		{
			"bufferView":0,
			"componentType":5126,
			"count":330,
			"max":[
				4,
				2,
				4
			],
			"min":[
				-1.1920928955078125e-07,
				0,
				-1.1920928955078125e-07
			],
			"type":"VEC3"
		},
		{
			"bufferView":1,
			"componentType":5126,
			"count":330,
			"type":"VEC3"
		},
		{
			"bufferView":2,
			"componentType":5126,
			"count":330,
			"type":"VEC2"
		},
		{
			"bufferView":3,
			"componentType":5123,
			"count":540,
			"type":"SCALAR"
		}
	],
	"bufferViews":[
		{
			"buffer":0,
			"byteLength":3960,
			"byteOffset":0,
			"target":34962
		},
		{
			"buffer":0,
			"byteLength":3960,
			"byteOffset":3960,
			"target":34962
		},
		{
			"buffer":0,
			"byteLength":2640,
			"byteOffset":7920,
			"target":34962
		},
		{
			"buffer":0,
			"byteLength":1080,
			"byteOffset":10560,
			"target":34963
		}
	],
	"buffers":[
		{
			"byteLength":11640,
			"uri":"railing_edge.bin"
		}
	]
}
