{
	"asset":{
		"generator":"Khronos glTF Blender I/O v5.1.20",
		"version":"2.0"
	},
	"extensionsUsed":[
		"KHR_materials_specular"
	],
	"scene":0,
	"scenes":[
		{
			"name":"Scene",
			"nodes":[
				18
			]
		}
	],
	"nodes":[
		{
			"mesh":0,
			"name":"cone.006",
			"scale":[
				0.029311666265130043,
				0.029311666265130043,
				0.029311666265130043
			],
			"translation":[
				-0.40892770886421204,
				0.5809316635131836,
				0.44968605041503906
			]
		},
		{
			"mesh":1,
			"name":"cone.007",
			"rotation":[
				0,
				-0.3826834261417389,
				0,
				0.9238795638084412
			],
			"scale":[
				0.041870392858982086,
				0.04722617194056511,
				0.041870392858982086
			],
			"translation":[
				0.3416502773761749,
				1.4745194911956787,
				0.027423620223999023
			]
		},
		{
			"mesh":2,
			"name":"Cube.010",
			"rotation":[
				0.7071068286895752,
				0,
				0,
				0.7071068286895752
			],
			"scale":[
				0.055349528789520264,
				0.055349528789520264,
				0.055349528789520264
			],
			"translation":[
				-0.40892770886421204,
				0.5255821943283081,
				0.40540599822998047
			]
		},
		{
			"mesh":3,
			"name":"Cube.011",
			"scale":[
				0.08370045572519302,
				0.08370045572519302,
				0.06330843269824982
			],
			"translation":[
				0.3416502773761749,
				0.3407970666885376,
				0.027423381805419922
			]
		},
		{
			"mesh":4,
			"name":"Cube.073",
			"scale":[
				0.08370045572519302,
				0.08370045572519302,
				0.06330843269824982
			],
			"translation":[
				0.1742493361234665,
				0.3407970666885376,
				0.027423381805419922
			]
		},
		{
			"mesh":5,
			"name":"Cube.074",
			"scale":[
				0.08370045572519302,
				0.08370045572519302,
				0.06330843269824982
			],
			"translation":[
				0.5090512037277222,
				0.3407970666885376,
				0.027423381805419922
			]
		},
		{
			"mesh":6,
			"name":"Pillar.008",
			"rotation":[
				0.7071068286895752,
				0,
				0,
				0.7071068286895752
			],
			"scale":[
				0.11069905757904053,
				0.11069905757904053,
				0.11069905757904053
			],
			"translation":[
				-0.3535781502723694,
				0.5809317827224731,
				-0.48018646240234375
			]
		},
		{
			"mesh":7,
			"name":"Pillar.009",
			"rotation":[
				0.22004128992557526,
				0,
				0,
				0.9754905700683594
			],
			"scale":[
				0.09605324268341064,
				0.09605325013399124,
				0.09605325013399124
			],
			"translation":[
				-0.3535781502723694,
				0.35737600922584534,
				-0.46939802169799805
			]
		},
		{
			"mesh":8,
			"name":"Pillar.044",
			"rotation":[
				0.7071068286895752,
				0,
				0,
				0.7071068286895752
			],
			"scale":[
				0.11069905757904053,
				0.11069905757904053,
				0.11069905757904053
			],
			"translation":[
				-0.3535781502723694,
				0.5809317827224731,
				-0.03739023208618164
			]
		},
		{
			"mesh":9,
			"name":"Pillar.045",
			"rotation":[
				-0.09946254640817642,
				0,
				0,
				0.9950413107872009
			],
			"scale":[
				0.08162856847047806,
				0.08162856101989746,
				0.08162856101989746
			],
			"translation":[
				-0.3535781502723694,
				0.3377298414707184,
				-0.15758299827575684
			]
		},
		{
			"mesh":10,
			"name":"Pillar.046",
			"scale":[
				0.08370045572519302,
				0.08370045572519302,
				0.06330843269824982
			],
			"translation":[
				0.3835005760192871,
				0.005995355546474457,
				-0.004230976104736328
			]
		},
		{
			"mesh":11,
			"name":"Ramp.012",
			"scale":[
				0.053135547786951065,
				0.053135547786951065,
				0.053135547786951065
			],
			"translation":[
				-0.4089275896549225,
				0.5809317827224731,
				-0.4248368740081787
			]
		},
		{
			"mesh":12,
			"name":"Ramp.013",
			"rotation":[
				0,
				-0.7071066498756409,
				0,
				0.70710688829422
			],
			"scale":[
				0.06330843269824982,
				0.08370045572519302,
				0.08370045572519302
			],
			"translation":[
				0.5090512037277222,
				0.382647305727005,
				0.027423381805419922
			]
		},
		{
			"mesh":13,
			"name":"Ramp.014",
			"rotation":[
				0,
				0.7071066498756409,
				0,
				0.70710688829422
			],
			"scale":[
				0.06330843269824982,
				0.08370045572519302,
				0.08370045572519302
			],
			"translation":[
				0.1742493361234665,
				0.382647305727005,
				0.027423381805419922
			]
		},
		{
			"mesh":14,
			"name":"Ramp.021",
			"rotation":[
				0.5000000596046448,
				-0.5000000596046448,
				-0.4999999403953552,
				0.5
			],
			"scale":[
				0.547826886177063,
				0.025741789489984512,
				0.03403337299823761
			],
			"translation":[
				0.30761703848838806,
				0.9266997575759888,
				0.027423620223999023
			]
		},
		{
			"mesh":15,
			"name":"Ramp.022",
			"rotation":[
				-0.5000000596046448,
				-0.49999988079071045,
				0.4999999403953552,
				0.5000001192092896
			],
			"scale":[
				0.547826886177063,
				0.025741789489984512,
				0.03403337299823761
			],
			"translation":[
				0.30761703848838806,
				0.9266997575759888,
				0.027423620223999023
			]
		},
		{
			"mesh":16,
			"name":"Ramp.023",
			"rotation":[
				-0.5,
				0.5,
				-0.5,
				0.5000000596046448
			],
			"scale":[
				0.547826886177063,
				0.025741789489984512,
				0.03403337299823761
			],
			"translation":[
				0.3756836950778961,
				0.9266997575759888,
				0.027423620223999023
			]
		},
		{
			"mesh":17,
			"name":"Ramp.024",
			"rotation":[
				0.5000000596046448,
				0.4999999403953552,
				0.5,
				0.5000000596046448
			],
			"scale":[
				0.547826886177063,
				0.025741789489984512,
				0.03403337299823761
			],
			"translation":[
				0.3756836950778961,
				0.9266997575759888,
				0.027423620223999023
			]
		},
		{
			"children":[
				0,
				1,
				2,
				3,
				4,
				5,
				6,
				7,
				8,
				9,
				10,
				11,
				12,
				13,
				14,
				15,
				16,
				17
			],
			"name":"sample_5"
		}
	],
	"materials":[
		{
			"doubleSided":true,
			"extensions":{
				"KHR_materials_specular":{
					"specularFactor":0
				}
			},
			"name":"Material",
			"pbrMetallicRoughness":{
				"metallicFactor":0
			}
		}
	],
	"meshes":[
		{
			"name":"Cube.074",
			"primitives":[
				{
					"attributes":{
						"POSITION":0,
						"NORMAL":1,
						"TEXCOORD_0":2
					},
					"indices":3,
					"material":0
				}
			]
		},
		{
			"name":"Cube.142",
			"primitives":[
				{
					"attributes":{
						"POSITION":4,
						"NORMAL":5,
						"TEXCOORD_0":6
					},
					"indices":7,
					"material":0
				}
			]
		},
		{
			"name":"Cube.086",
			"primitives":[
				{
					"attributes":{
						"POSITION":8,
						"NORMAL":9,
						"TEXCOORD_0":10
					},
					"indices":11,
					"material":0
				}
			]
		},
		{
			"name":"Cube.088",
			"primitives":[
				{
					"attributes":{
						"POSITION":12,
						"NORMAL":13,
						"TEXCOORD_0":14
					},
					"indices":15,
					"material":0
				}
			]
		},
		{
			"name":"Cube.089",
			"primitives":[
				{
					"attributes":{
						"POSITION":16,
						"NORMAL":17,
						"TEXCOORD_0":18
					},
					"indices":15,
					"material":0
				}
			]
		},
		{
			"name":"Cube.093",
			"primitives":[
				{
					"attributes":{
						"POSITION":19,
						"NORMAL":20,
						"TEXCOORD_0":21
					},
					"indices":15,
					"material":0
				}
			]
		},
		{
			"name":"Cube.054",
			"primitives":[
				{
					"attributes":{
						"POSITION":22,
						"NORMAL":23,
						"TEXCOORD_0":24
					},
					"indices":15,
					"material":0
				}
			]
		},
		{
			"name":"Cube.055",
			"primitives":[
				{
					"attributes":{
						"POSITION":25,
						"NORMAL":26,
						"TEXCOORD_0":27
					},
					"indices":28,
					"material":0
				}
			]
		},
		{
			"name":"Cube.082",
			"primitives":[
				{
					"attributes":{
						"POSITION":29,
						"NORMAL":30,
						"TEXCOORD_0":31
					},
					"indices":15,
					"material":0
				}
			]
		},
		{
			"name":"Cube.083",
			"primitives":[
				{
					"attributes":{
						"POSITION":32,
						"NORMAL":33,
						"TEXCOORD_0":34
					},
					"indices":28,
					"material":0
				}
			]
		},
		{
			"name":"Cube.087",
			"primitives":[
				{
					"attributes":{
						"POSITION":35,
						"NORMAL":36,
						"TEXCOORD_0":37
					},
					"indices":38,
					"material":0
				}
			]
		},
		{
			"name":"Cube.081",
			"primitives":[
				{
					"attributes":{
						"POSITION":39,
						"NORMAL":40,
						"TEXCOORD_0":41
					},
					"indices":42,
					"material":0
				}
			]
		},
		{
			"name":"Cube.094",
			"primitives":[
				{
					"attributes":{
						"POSITION":43,
						"NORMAL":44,
						"TEXCOORD_0":45
					},
					"indices":42,
					"material":0
				}
			]
		},
		{
			"name":"Cube.095",
			"primitives":[
				{
					"attributes":{
						"POSITION":46,
						"NORMAL":47,
						"TEXCOORD_0":48
					},
					"indices":42,
					"material":0
				}
			]
		},
		{
			"name":"Cube.100",
			"primitives":[
				{
					"attributes":{
						"POSITION":49,
						"NORMAL":50,
						"TEXCOORD_0":51
					},
					"indices":42,
					"material":0
				}
			]
		},
		{
			"name":"Cube.135",
			"primitives":[
				{
					"attributes":{
						"POSITION":52,
						"NORMAL":53,
						"TEXCOORD_0":54
					},
					"indices":42,
					"material":0
				}
			]
		},
		{
			"name":"Cube.137",
			"primitives":[
				{
					"attributes":{
						"POSITION":55,
						"NORMAL":56,
						"TEXCOORD_0":57
					},
					"indices":42,
					"material":0
				}
			]
		},
		{
			"name":"Cube.138",
			"primitives":[
				{
					"attributes":{
						"POSITION":58,
						"NORMAL":59,
						"TEXCOORD_0":60
					},
					"indices":42,
					"material":0
				}
			]
		}
	],
	"accessors":[
		{
			"bufferView":0,
			"componentType":5126,
			"count":18,
			"max":[
				1,
				1,
				1
			],
			"min":[
				-1,
				0,
				-1
			],
			"type":"VEC3"
		},
		{
			"bufferView":1,
			"componentType":5126,
			"count":18,
			"type":"VEC3"
		},
		{
			"bufferView":2,
			"componentType":5126,
			"count":18,
			"type":"VEC2"
		},
		{
			"bufferView":3,
			"componentType":5123,
			"count":24,
			"type":"SCALAR"
		},
		{
			"bufferView":4,
			"componentType":5126,
			"count":16,
			"max":[
				1.0145556926727295,
				2,
				1.014555811882019
			],
			"min":[
				-1.014554738998413,
				0,
				-1.0145548582077026
			],
			"type":"VEC3"
		},
		{
			"bufferView":5,
			"componentType":5126,
			"count":16,
			"type":"VEC3"
		},
		{
			"bufferView":6,
			"componentType":5126,
			"count":16,
			"type":"VEC2"
		},
		{
			"bufferView":7,
			"componentType":5123,
			"count":18,
			"type":"SCALAR"
		},
		{
			"bufferView":8,
			"componentType":5126,
			"count":48,
			"max":[
				1,
				2,
				1
			],
			"min":[
				-1,
				0,
				-1
			],
			"type":"VEC3"
		},
		{
			"bufferView":9,
			"componentType":5126,
			"count":48,
			"type":"VEC3"
		},
		{
			"bufferView":10,
			"componentType":5126,
			"count":48,
			"type":"VEC2"
		},
		{
			"bufferView":11,
			"componentType":5123,
			"count":84,
			"type":"SCALAR"
		},
		{
			"bufferView":12,
			"componentType":5126,
			"count":24,
			"max":[
				1,
				0.5,
				1
			],
			"min":[
				-1,
				0,
				-1
			],
			"type":"VEC3"
		},
		{
			"bufferView":13,
			"componentType":5126,
			"count":24,
			"type":"VEC3"
		},
		{
			"bufferView":14,
			"componentType":5126,
			"count":24,
			"type":"VEC2"
		},
		{
			"bufferView":15,
			"componentType":5123,
			"count":36,
			"type":"SCALAR"
		},
		{
			"bufferView":16,
			"componentType":5126,
			"count":24,
			"max":[
				1,
				0.5,
				1
			],
			"min":[
				-1,
				0,
				-1
			],
			"type":"VEC3"
		},
		{
			"bufferView":17,
			"componentType":5126,
			"count":24,
			"type":"VEC3"
		},
		{
			"bufferView":18,
			"componentType":5126,
			"count":24,
			"type":"VEC2"
		},
		{
			"bufferView":19,
			"componentType":5126,
			"count":24,
			"max":[
				1,
				0.5,
				1
			],
			"min":[
				-1,
				0,
				-1
			],
			"type":"VEC3"
		},
		{
			"bufferView":20,
			"componentType":5126,
			"count":24,
			"type":"VEC3"
		},
		{
			"bufferView":21,
			"componentType":5126,
			"count":24,
			"type":"VEC2"
		},
		{
			"bufferView":22,
			"componentType":5126,
			"count":24,
			"max":[
				0,
				4,
				1
			],
			"min":[
				-1,
				0,
				0
			],
			"type":"VEC3"
		},
		{
			"bufferView":23,
			"componentType":5126,
			"count":24,
			"type":"VEC3"
		},
		{
			"bufferView":24,
			"componentType":5126,
			"count":24,
			"type":"VEC2"
		},
		{
			"bufferView":25,
			"componentType":5126,
			"count":24,
			"max":[
				-0.22320695221424103,
				2,
				1
			],
			"min":[
				-0.740551769733429,
				-0.9528249502182007,
				-0.08598122000694275
			],
			"type":"VEC3"
		},
		{
			"bufferView":26,
			"componentType":5126,
			"count":24,
			"type":"VEC3"
		},
		{
			"bufferView":27,
			"componentType":5126,
			"count":24,
			"type":"VEC2"
		},
		{
			"bufferView":28,
			"componentType":5123,
			"count":36,
			"type":"SCALAR"
		},
		{
			"bufferView":29,
			"componentType":5126,
			"count":24,
			"max":[
				0,
				4,
				1
			],
			"min":[
				-1,
				0,
				0
			],
			"type":"VEC3"
		},
		{
			"bufferView":30,
			"componentType":5126,
			"count":24,
			"type":"VEC3"
		},
		{
			"bufferView":31,
			"componentType":5126,
			"count":24,
			"type":"VEC2"
		},
		{
			"bufferView":32,
			"componentType":5126,
			"count":24,
			"max":[
				-0.26265019178390503,
				2,
				0.9999995231628418
			],
			"min":[
				-0.7799949645996094,
				-0.6435872912406921,
				-0.040075741708278656
			],
			"type":"VEC3"
		},
		{
			"bufferView":33,
			"componentType":5126,
			"count":24,
			"type":"VEC3"
		},
		{
			"bufferView":34,
			"componentType":5126,
			"count":24,
			"type":"VEC2"
		},
		{
			"bufferView":35,
			"componentType":5126,
			"count":72,
			"max":[
				0,
				4,
				1
			],
			"min":[
				-1,
				0,
				0
			],
			"type":"VEC3"
		},
		{
			"bufferView":36,
			"componentType":5126,
			"count":72,
			"type":"VEC3"
		},
		{
			"bufferView":37,
			"componentType":5126,
			"count":72,
			"type":"VEC2"
		},
		{
			"bufferView":38,
			"componentType":5123,
			"count":132,
			"type":"SCALAR"
		},
		{
			"bufferView":39,
			"componentType":5126,
			"count":18,
			"max":[
				1,
				1,
				1
			],
			"min":[
				-1,
				0,
				-1
			],
			"type":"VEC3"
		},
		{
			"bufferView":40,
			"componentType":5126,
			"count":18,
			"type":"VEC3"
		},
		{
			"bufferView":41,
			"componentType":5126,
			"count":18,
			"type":"VEC2"
		},
		{
			"bufferView":42,
			"componentType":5123,
			"count":24,
			"type":"SCALAR"
		},
		{
			"bufferView":43,
			"componentType":5126,
			"count":18,
			"max":[
				1,
				1,
				1
			],
			"min":[
				-1,
				0,
				-1
			],
			"type":"VEC3"
		},
		{
			"bufferView":44,
			"componentType":5126,
			"count":18,
			"type":"VEC3"
		},
		{
			"bufferView":45,
			"componentType":5126,
			"count":18,
			"type":"VEC2"
		},
		{
			"bufferView":46,
			"componentType":5126,
			"count":18,
			"max":[
				1,
				1,
				1
			],
			"min":[
				-1,
				0,
				-1
			],
			"type":"VEC3"
		},
		{
			"bufferView":47,
			"componentType":5126,
			"count":18,
			"type":"VEC3"
		},
		{
			"bufferView":48,
			"componentType":5126,
			"count":18,
			"type":"VEC2"
		},
		{
			"bufferView":49,
			"componentType":5126,
			"count":18,
			"max":[
				1,
				1,
				1
			],
			"min":[
				-1,
				0,
				-1
			],
			"type":"VEC3"
		},
		{
			"bufferView":50,
			"componentType":5126,
			"count":18,
			"type":"VEC3"
		},
		{
			"bufferView":51,
			"componentType":5126,
			"count":18,
			"type":"VEC2"
		},
		{
			"bufferView":52,
			"componentType":5126,
			"count":18,
			"max":[
				1,
				1,
				1
			],
			"min":[
				-1,
				0,
				-1
			],
			"type":"VEC3"
		},
		{
			"bufferView":53,
			"componentType":5126,
			"count":18,
			"type":"VEC3"
		},
		{
			"bufferView":54,
			"componentType":5126,
			"count":18,
			"type":"VEC2"
		},
		{
			"bufferView":55,
			"componentType":5126,
			"count":18,
			"max":[
				1,
				1,
				1
			],
			"min":[
				-1,
				0,
				-1
			],
			"type":"VEC3"
		},
		{
			"bufferView":56,
			"componentType":5126,
			"count":18,
			"type":"VEC3"
		},
		{
			"bufferView":57,
			"componentType":5126,
			"count":18,
			"type":"VEC2"
		},
		{
			"bufferView":58,
			"componentType":5126,
			"count":18,
			"max":[
				1,
				1,
				1
			],
			"min":[
				-1,
				0,
				-1
			],
			"type":"VEC3"
		},
		{
			"bufferView":59,
			"componentType":5126,
			"count":18,
			"type":"VEC3"
		},
		{
			"bufferView":60,
			"componentType":5126,
			"count":18,
			"type":"VEC2"
		}
	],
	"bufferViews":[
		{
			"buffer":0,
			"byteLength":216,
			"byteOffset":0,
			"target":34962
		},
		{
			"buffer":0,
			"byteLength":216,
			"byteOffset":216,
			"target":34962
		},
		{
			"buffer":0,
			"byteLength":144,
			"byteOffset":432,
			"target":34962
		},
		{
			"buffer":0,
			"byteLength":48,
			"byteOffset":576,
			"target":34963
		},
		{
			"buffer":0,
			"byteLength":192,
			"byteOffset":624,
			"target":34962
		},
		{
			"buffer":0,
			"byteLength":192,
			"byteOffset":816,
			"target":34962
		},
		{
			"buffer":0,
			"byteLength":128,
			"byteOffset":1008,
			"target":34962
		},
		{
			"buffer":0,
			"byteLength":36,
			"byteOffset":1136,
			"target":34963
		},
		{
			"buffer":0,
			"byteLength":576,
			"byteOffset":1172,
			"target":34962
		},
		{
			"buffer":0,
			"byteLength":576,
			"byteOffset":1748,
			"target":34962
		},
		{
			"buffer":0,
			"byteLength":384,
			"byteOffset":2324,
			"target":34962
		},
		{
			"buffer":0,
			"byteLength":168,
			"byteOffset":2708,
			"target":34963
		},
		{
			"buffer":0,
			"byteLength":288,
			"byteOffset":2876,
			"target":34962
		},
		{
			"buffer":0,
			"byteLength":288,
			"byteOffset":3164,
			"target":34962
		},
		{
			"buffer":0,
			"byteLength":192,
			"byteOffset":3452,
			"target":34962
		},
		{
			"buffer":0,
			"byteLength":72,
			"byteOffset":3644,
			"target":34963
		},
		{
			"buffer":0,
			"byteLength":288,
			"byteOffset":3716,
			"target":34962
		},
		{
			"buffer":0,
			"byteLength":288,
			"byteOffset":4004,
			"target":34962
		},
		{
			"buffer":0,
			"byteLength":192,
			"byteOffset":4292,
			"target":34962
		},
		{
			"buffer":0,
			"byteLength":288,
			"byteOffset":4484,
			"target":34962
		},
		{
			"buffer":0,
			"byteLength":288,
			"byteOffset":4772,
			"target":34962
		},
		{
			"buffer":0,
			"byteLength":192,
			"byteOffset":5060,
			"target":34962
		},
		{
			"buffer":0,
			"byteLength":288,
			"byteOffset":5252,
			"target":34962
		},
		{
			"buffer":0,
			"byteLength":288,
			"byteOffset":5540,
			"target":34962
		},
		{
			"buffer":0,
			"byteLength":192,
			"byteOffset":5828,
			"target":34962
		},
		{
			"buffer":0,
			"byteLength":288,
			"byteOffset":6020,
			"target":34962
		},
		{
			"buffer":0,
			"byteLength":288,
			"byteOffset":6308,
			"target":34962
		},
		{
			"buffer":0,
			"byteLength":192,
			"byteOffset":6596,
			"target":34962
		},
		{
			"buffer":0,
			"byteLength":72,
			"byteOffset":6788,
			"target":34963
		},
		{
			"buffer":0,
			"byteLength":288,
			"byteOffset":6860,
			"target":34962
		},
		{
			"buffer":0,
			"byteLength":288,
			"byteOffset":7148,
			"target":34962
		},
		{
			"buffer":0,
			"byteLength":192,
			"byteOffset":7436,
			"target":34962
		},
		{
			"buffer":0,
			"byteLength":288,
			"byteOffset":7628,
			"target":34962
		},
		{
			"buffer":0,
			"byteLength":288,
			"byteOffset":7916,
			"target":34962
		},
		{
			"buffer":0,
			"byteLength":192,
			"byteOffset":8204,
			"target":34962
		},
		{
			"buffer":0,
			"byteLength":864,
			"byteOffset":8396,
			"target":34962
		},
		{
			"buffer":0,
			"byteLength":864,
			"byteOffset":9260,
			"target":34962
		},
		{
			"buffer":0,
			"byteLength":576,
			"byteOffset":10124,
			"target":34962
		},
		{
			"buffer":0,
			"byteLength":264,
			"byteOffset":10700,
			"target":34963
		},
		{
			"buffer":0,
			"byteLength":216,
			"byteOffset":10964,
			"target":34962
		},
		{
			"buffer":0,
			"byteLength":216,
			"byteOffset":11180,
			"target":34962
		},
		{
			"buffer":0,
			"byteLength":144,
			"byteOffset":11396,
			"target":34962
		},
		{
			"buffer":0,
			"byteLength":48,
			"byteOffset":11540,
			"target":34963
		},
		{
			"buffer":0,
			"byteLength":216,
			"byteOffset":11588,
			"target":34962
		},
		{
			"buffer":0,
			"byteLength":216,
			"byteOffset":11804,
			"target":34962
		},
		{
			"buffer":0,
			"byteLength":144,
			"byteOffset":12020,
			"target":34962
		},
		{
			"buffer":0,
			"byteLength":216,
			"byteOffset":12164,
			"target":34962
		},
		{
			"buffer":0,
			"byteLength":216,
			"byteOffset":12380,
			"target":34962
		},
		{
			"buffer":0,
			"byteLength":144,
			"byteOffset":12596,
			"target":34962
		},
		{
			"buffer":0,
			"byteLength":216,
			"byteOffset":12740,
			"target":34962
		},
		{
			"buffer":0,
			"byteLength":216,
			"byteOffset":12956,
			"target":34962
		},
		{
			"buffer":0,
			"byteLength":144,
			"byteOffset":13172,
			"target":34962
		},
		{
			"buffer":0,
			"byteLength":216,
			"byteOffset":13316,
			"target":34962
		},
		{
			"buffer":0,
			"byteLength":216,
			"byteOffset":13532,
			"target":34962
		},
		{
			"buffer":0,
			"byteLength":144,
			"byteOffset":13748,
			"target":34962
		},
		{
			"buffer":0,
			"byteLength":216,
			"byteOffset":13892,
			"target":34962
		},
		{
			"buffer":0,
			"byteLength":216,
			"byteOffset":14108,
			"target":34962
		},
		{
			"buffer":0,
			"byteLength":144,
			"byteOffset":14324,
			"target":34962
		},
		{
			"buffer":0,
			"byteLength":216,
			"byteOffset":14468,
			"target":34962
		},
		{
			"buffer":0,
			"byteLength":216,
			"byteOffset":14684,
			"target":34962
		},
		{
			"buffer":0,
			"byteLength":144,
			"byteOffset":14900,
			"target":34962
		}
	],
	"buffers":[
		{
			"byteLength":15044,
			"uri":"sample_5.bin"
		}
	]
}
