{
	"asset":{
		"generator":"Khronos glTF Blender I/O v5.1.20",
		"version":"2.0"
	},
	"extensionsUsed":[
		"KHR_materials_specular"
	],
	"scene":0,
	"scenes":[
		{
			"name":"Scene",
			"nodes":[
				1
			]
		}
	],
	"nodes":[
		{
			"mesh":0,
			"name":"Stairs corner.001",
			"rotation":[
				0,
				-0.7071066498756409,
				0,
				0.70710688829422
			]
		},
		{
			"children":[
				0
			],
			"name":"stairs_corner_1"
		}
	],
	"materials":[
		{
			"doubleSided":true,
			"extensions":{
				"KHR_materials_specular":{
					"specularFactor":0
				}
			},
			"name":"Material",
			"pbrMetallicRoughness":{
				"metallicFactor":0
			}
		}
	],
	"meshes":[
		{
			"name":"Cube.041",
			"primitives":[
				{
					"attributes":{
						"POSITION":0,
						"NORMAL":1,
						"TEXCOORD_0":2
					},
					"indices":3,
					"material":0
				}
			]
		}
	],
	"accessors":[
		{
			"bufferView":0,
			"componentType":5126,
			"count":309,
			"max":[
				1,
				2,
				1
			],
			"min":[
				-1,
				0,
				-1
			],
			"type":"VEC3"
		},
		{
			"bufferView":1,
			"componentType":5126,
			"count":309,
			"type":"VEC3"
		},
		{
			"bufferView":2,
			"componentType":5126,
			"count":309,
			"type":"VEC2"
		},
		{
			"bufferView":3,
			"componentType":5123,
			"count":936,
			"type":"SCALAR"
		}
	],
	"bufferViews":[
		{
			"buffer":0,
			"byteLength":3708,
			"byteOffset":0,
			"target":34962
		},
		{
			"buffer":0,
			"byteLength":3708,
			"byteOffset":3708,
			"target":34962
		},
		{
			"buffer":0,
			"byteLength":2472,
			"byteOffset":7416,
			"target":34962
		},
		{
			"buffer":0,
			"byteLength":1872,
			"byteOffset":9888,
			"target":34963
		}
	],
	"buffers":[
		{
			"byteLength":11760,
			"uri":"stairs_corner_1.bin"
		}
	]
}
