{
	"asset":{
		"generator":"Khronos glTF Blender I/O v5.1.20",
		"version":"2.0"
	},
	"extensionsUsed":[
		"KHR_materials_specular"
	],
	"scene":0,
	"scenes":[
		{
			"name":"Scene",
			"nodes":[
				1
			]
		}
	],
	"nodes":[
		{
			"mesh":0,
			"name":"Stairs"
		},
		{
			"children":[
				0
			],
			"name":"stairs"
		}
	],
	"materials":[
		{
			"doubleSided":true,
			"extensions":{
				"KHR_materials_specular":{
					"specularFactor":0
				}
			},
			"name":"Material",
			"pbrMetallicRoughness":{
				"metallicFactor":0
			}
		}
	],
	"meshes":[
		{
			"name":"Cube.006",
			"primitives":[
				{
					"attributes":{
						"POSITION":0,
						"NORMAL":1,
						"TEXCOORD_0":2
					},
					"indices":3,
					"material":0
				}
			]
		}
	],
	"accessors":[
		{
			"bufferView":0,
			"componentType":5126,
			"count":144,
			"max":[
				1,
				2,
				1
			],
			"min":[
				-1,
				0,
				-1
			],
			"type":"VEC3"
		},
		{
			"bufferView":1,
			"componentType":5126,
			"count":144,
			"type":"VEC3"
		},
		{
			"bufferView":2,
			"componentType":5126,
			"count":144,
			"type":"VEC2"
		},
		{
			"bufferView":3,
			"componentType":5123,
			"count":396,
			"type":"SCALAR"
		}
	],
	"bufferViews":[
		{
			"buffer":0,
			"byteLength":1728,
			"byteOffset":0,
			"target":34962
		},
		{
			"buffer":0,
			"byteLength":1728,
			"byteOffset":1728,
			"target":34962
		},
		{
			"buffer":0,
			"byteLength":1152,
			"byteOffset":3456,
			"target":34962
		},
		{
			"buffer":0,
			"byteLength":792,
			"byteOffset":4608,
			"target":34963
		}
	],
	"buffers":[
		{
			"byteLength":5400,
			"uri":"stairs.bin"
		}
	]
}
