{
	"asset":{
		"generator":"Khronos glTF Blender I/O v5.1.20",
		"version":"2.0"
	},
	"extensionsUsed":[
		"KHR_materials_specular"
	],
	"scene":0,
	"scenes":[
		{
			"name":"Scene",
			"nodes":[
				1
			]
		}
	],
	"nodes":[
		{
			"mesh":0,
			"name":"Wall corner top",
			"rotation":[
				-0.7071068286895752,
				0.7071068286895752,
				0,
				5.338509012631221e-08
			],
			"translation":[
				30,
				0.5,
				-26
			]
		},
		{
			"children":[
				0
			],
			"name":"wall_corner_top"
		}
	],
	"materials":[
		{
			"doubleSided":true,
			"extensions":{
				"KHR_materials_specular":{
					"specularFactor":0
				}
			},
			"name":"Material",
			"pbrMetallicRoughness":{
				"metallicFactor":0
			}
		}
	],
	"meshes":[
		{
			"name":"Cube.057",
			"primitives":[
				{
					"attributes":{
						"POSITION":0,
						"NORMAL":1,
						"TEXCOORD_0":2
					},
					"indices":3,
					"material":0
				}
			]
		}
	],
	"accessors":[
		{
			"bufferView":0,
			"componentType":5126,
			"count":17,
			"max":[
				0.4999997019767761,
				1.2963616313754756e-07,
				4.000000476837158
			],
			"min":[
				-3.500000238418579,
				-4,
				2.2351741790771484e-08
			],
			"type":"VEC3"
		},
		{
			"bufferView":1,
			"componentType":5126,
			"count":17,
			"type":"VEC3"
		},
		{
			"bufferView":2,
			"componentType":5126,
			"count":17,
			"type":"VEC2"
		},
		{
			"bufferView":3,
			"componentType":5123,
			"count":27,
			"type":"SCALAR"
		}
	],
	"bufferViews":[
		{
			"buffer":0,
			"byteLength":204,
			"byteOffset":0,
			"target":34962
		},
		{
			"buffer":0,
			"byteLength":204,
			"byteOffset":204,
			"target":34962
		},
		{
			"buffer":0,
			"byteLength":136,
			"byteOffset":408,
			"target":34962
		},
		{
			"buffer":0,
			"byteLength":54,
			"byteOffset":544,
			"target":34963
		}
	],
	"buffers":[
		{
			"byteLength":600,
			"uri":"wall_corner_top.bin"
		}
	]
}
